<svg width="698" height="132" viewBox="0 0 698 132" fill="none" xmlns="http://www.w3.org/2000/svg">
<path d="M410.323 131.431H405.403L413.984 111.807H420.252L428.893 131.431H423.855L418.466 118.866L417.265 115.82H416.943L415.742 118.866L410.323 131.431ZM423.914 127.096H410.089V123.142H423.914V127.096Z" fill="#FFF3E5"/>
<path d="M389.862 131.431H385.469V111.807H390.155L397.184 121.092L399.879 125.222H400.201L399.996 121.268V111.807H404.39V131.431H399.703L392.469 122.058L389.979 118.368H389.686L389.862 121.971V131.431Z" fill="#FFF3E5"/>
<path d="M383.169 131.431H378.775V111.807H383.169V131.431Z" fill="#FFF3E5"/>
<path d="M368.856 131.431H364.463V111.807H368.856V131.431ZM376.149 115.761H357.169V111.807H376.149V115.761Z" fill="#FFF3E5"/>
<path d="M342.541 131.431H337.62L346.202 111.807H352.47L361.11 131.431H356.072L350.683 118.866L349.482 115.82H349.16L347.959 118.866L342.541 131.431ZM356.131 127.096H342.306V123.142H356.131V127.096Z" fill="#FFF3E5"/>
<path d="M324.432 131.431H320.038V111.807H324.432V131.431ZM336.118 131.431H321.269V127.477H336.118V131.431Z" fill="#FFF3E5"/>
<path d="M314.772 124.665H303.847V120.887H314.772V124.665Z" fill="#FFF3E5"/>
<path d="M288.861 131.724C286.713 131.724 284.839 131.314 283.238 130.494C281.656 129.654 280.436 128.483 279.576 126.979C278.737 125.456 278.317 123.669 278.317 121.619C278.317 119.569 278.737 117.792 279.576 116.288C280.436 114.765 281.656 113.594 283.238 112.774C284.839 111.934 286.713 111.514 288.861 111.514C291.087 111.514 292.991 111.934 294.573 112.774C296.154 113.594 297.375 114.765 298.234 116.288C299.093 117.792 299.523 119.569 299.523 121.619C299.523 123.669 299.093 125.456 298.234 126.979C297.375 128.483 296.154 129.654 294.573 130.494C292.991 131.314 291.087 131.724 288.861 131.724ZM288.861 127.506C290.306 127.506 291.458 127.321 292.317 126.95C293.196 126.559 293.831 125.934 294.221 125.075C294.631 124.216 294.836 123.064 294.836 121.619C294.836 120.155 294.631 119.003 294.221 118.163C293.831 117.304 293.196 116.689 292.317 116.318C291.458 115.927 290.306 115.732 288.861 115.732C287.436 115.732 286.293 115.927 285.434 116.318C284.575 116.689 283.95 117.304 283.56 118.163C283.169 119.003 282.974 120.155 282.974 121.619C282.974 123.064 283.169 124.216 283.56 125.075C283.95 125.934 284.575 126.559 285.434 126.95C286.293 127.321 287.436 127.506 288.861 127.506Z" fill="#FFF3E5"/>
<path d="M268.764 131.724C266.792 131.724 265.113 131.47 263.726 130.962C262.34 130.435 261.285 129.664 260.563 128.649C259.84 127.614 259.479 126.335 259.479 124.812V124.636H263.873V125.163C263.873 125.768 264 126.257 264.253 126.628C264.527 126.999 265.015 127.272 265.718 127.448C266.421 127.623 267.436 127.711 268.764 127.711C269.936 127.711 270.834 127.653 271.459 127.536C272.083 127.399 272.513 127.194 272.747 126.921C272.982 126.647 273.099 126.296 273.099 125.866C273.099 125.261 272.894 124.821 272.484 124.548C272.093 124.275 271.4 124.05 270.404 123.874L264.898 123.084C263.726 122.888 262.721 122.566 261.881 122.117C261.061 121.668 260.426 121.072 259.977 120.33C259.528 119.569 259.303 118.651 259.303 117.577C259.303 116.835 259.46 116.103 259.772 115.38C260.104 114.658 260.621 114.014 261.324 113.447C262.027 112.861 262.945 112.393 264.078 112.041C265.23 111.69 266.636 111.514 268.295 111.514C270.307 111.514 271.957 111.807 273.245 112.393C274.554 112.959 275.53 113.769 276.174 114.824C276.819 115.859 277.141 117.06 277.141 118.427V118.602H272.718V118.192C272.718 117.567 272.581 117.06 272.308 116.669C272.054 116.279 271.576 115.995 270.873 115.82C270.17 115.624 269.164 115.527 267.856 115.527C266.802 115.527 265.972 115.595 265.366 115.732C264.781 115.869 264.361 116.074 264.107 116.347C263.853 116.62 263.726 116.972 263.726 117.401C263.726 117.772 263.804 118.085 263.961 118.339C264.117 118.573 264.361 118.758 264.693 118.895C265.025 119.032 265.464 119.149 266.011 119.247L271.517 120.125C272.982 120.36 274.144 120.74 275.003 121.268C275.881 121.795 276.516 122.439 276.907 123.201C277.297 123.943 277.492 124.763 277.492 125.661C277.492 126.715 277.199 127.711 276.614 128.649C276.028 129.566 275.091 130.308 273.802 130.875C272.513 131.441 270.834 131.724 268.764 131.724Z" fill="#FFF3E5"/>
<path d="M248.012 131.724C245.884 131.724 244.107 131.382 242.681 130.699C241.256 130.015 240.182 129.039 239.459 127.77C238.737 126.501 238.376 124.987 238.376 123.23V111.807H242.769V122.908C242.769 124.021 242.925 124.919 243.238 125.602C243.57 126.266 244.117 126.745 244.878 127.038C245.659 127.311 246.704 127.448 248.012 127.448C249.359 127.448 250.414 127.311 251.175 127.038C251.937 126.745 252.474 126.266 252.786 125.602C253.099 124.919 253.255 124.021 253.255 122.908V111.807H257.648V123.23C257.648 124.987 257.287 126.501 256.565 127.77C255.842 129.039 254.768 130.015 253.343 130.699C251.937 131.382 250.16 131.724 248.012 131.724Z" fill="#FFF3E5"/>
<path d="M226.118 131.431H221.725V111.807H226.118V131.431ZM237.805 131.431H222.955V127.477H237.805V131.431Z" fill="#FFF3E5"/>
<path d="M195.509 131.431H190.588L199.17 111.807H205.438L214.079 131.431H209.041L203.652 118.866L202.451 115.82H202.128L200.928 118.866L195.509 131.431ZM209.099 127.096H195.275V123.142H209.099V127.096Z" fill="#FFF3E5"/>
<path d="M187.033 131.431H180.765L172.623 111.807H177.924L183.811 126.979H184.104L189.903 111.807H195.176L187.033 131.431Z" fill="#FFF3E5"/>
<path d="M170.678 131.431H166.284V111.807H170.678V131.431Z" fill="#FFF3E5"/>
<path d="M157.416 131.431H153.023V111.807H157.416V131.431ZM164.709 115.761H145.73V111.807H164.709V115.761Z" fill="#FFF3E5"/>
<path d="M130.575 131.431H125.655L134.236 111.807H140.504L149.145 131.431H144.107L138.718 118.866L137.517 115.82H137.195L135.994 118.866L130.575 131.431ZM144.166 127.096H130.341V123.142H144.166V127.096Z" fill="#FFF3E5"/>
<path d="M110.035 131.431H105.642V111.807H116.479C118.1 111.807 119.476 112.041 120.609 112.51C121.741 112.959 122.601 113.623 123.186 114.502C123.772 115.38 124.065 116.445 124.065 117.694C124.065 118.768 123.86 119.686 123.45 120.447C123.04 121.209 122.425 121.824 121.605 122.293C120.785 122.742 119.759 123.025 118.529 123.142V123.376C119.408 123.611 120.062 123.962 120.492 124.431C120.921 124.899 121.322 125.475 121.693 126.159L124.534 131.431H119.437L116.743 126.335C116.469 125.827 116.186 125.427 115.893 125.134C115.6 124.841 115.22 124.636 114.751 124.519C114.302 124.382 113.696 124.314 112.935 124.314H110.035V131.431ZM110.035 115.761V121.004H116.45C117.485 121.004 118.246 120.828 118.734 120.477C119.222 120.106 119.467 119.403 119.467 118.368C119.467 117.392 119.222 116.718 118.734 116.347C118.246 115.956 117.485 115.761 116.45 115.761H110.035Z" fill="#FFF3E5"/>
<path d="M91.4432 131.431H87.0498V111.807H91.4432V131.431ZM103.657 131.431H88.28V127.477H103.657V131.431ZM103.218 123.523H88.28V119.598H103.218V123.523ZM103.657 115.761H88.28V111.807H103.657V115.761Z" fill="#FFF3E5"/>
<path d="M78.0224 126.012H69.2941V122.058H77.5537C78.7839 122.058 79.6821 121.844 80.2484 121.414C80.8342 120.965 81.1271 120.125 81.1271 118.895C81.1271 117.704 80.8342 116.884 80.2484 116.435C79.6821 115.986 78.7839 115.761 77.5537 115.761H69.2941V111.807H78.0224C79.5454 111.807 80.8635 112.09 81.9765 112.656C83.0895 113.203 83.9486 114.004 84.5539 115.058C85.1788 116.113 85.4912 117.392 85.4912 118.895C85.4912 120.399 85.1788 121.687 84.5539 122.761C83.9486 123.816 83.0895 124.626 81.9765 125.192C80.8635 125.739 79.5454 126.012 78.0224 126.012ZM72.1644 131.431H67.771V111.807H72.1644V131.431Z" fill="#FFF3E5"/>
<path d="M55.1939 131.724C53.046 131.724 51.1715 131.314 49.5703 130.494C47.9887 129.654 46.7683 128.483 45.9091 126.979C45.0695 125.456 44.6497 123.669 44.6497 121.619C44.6497 119.569 45.0695 117.792 45.9091 116.288C46.7683 114.765 47.9887 113.594 49.5703 112.774C51.1715 111.934 53.046 111.514 55.1939 111.514C57.4199 111.514 59.3238 111.934 60.9054 112.774C62.487 113.594 63.7074 114.765 64.5666 116.288C65.4258 117.792 65.8553 119.569 65.8553 121.619C65.8553 123.669 65.4258 125.456 64.5666 126.979C63.7074 128.483 62.487 129.654 60.9054 130.494C59.3238 131.314 57.4199 131.724 55.1939 131.724ZM55.1939 127.506C56.6389 127.506 57.7909 127.321 58.6501 126.95C59.5288 126.559 60.1634 125.934 60.5539 125.075C60.964 124.216 61.169 123.064 61.169 121.619C61.169 120.155 60.964 119.003 60.5539 118.163C60.1634 117.304 59.5288 116.689 58.6501 116.318C57.7909 115.927 56.6389 115.732 55.1939 115.732C53.7685 115.732 52.6262 115.927 51.767 116.318C50.9079 116.689 50.283 117.304 49.8925 118.163C49.502 119.003 49.3067 120.155 49.3067 121.619C49.3067 123.064 49.502 124.216 49.8925 125.075C50.283 125.934 50.9079 126.559 51.767 126.95C52.6262 127.321 53.7685 127.506 55.1939 127.506Z" fill="#FFF3E5"/>
<path d="M32.5116 131.724C30.3636 131.724 28.4891 131.314 26.8879 130.494C25.3063 129.654 24.0859 128.483 23.2267 126.979C22.3871 125.456 21.9673 123.669 21.9673 121.619C21.9673 119.569 22.3871 117.792 23.2267 116.288C24.0859 114.765 25.3063 113.594 26.8879 112.774C28.4891 111.934 30.3636 111.514 32.5116 111.514C34.7376 111.514 36.6414 111.934 38.223 112.774C39.8047 113.594 41.0251 114.765 41.8842 116.288C42.7434 117.792 43.173 119.569 43.173 121.619C43.173 123.669 42.7434 125.456 41.8842 126.979C41.0251 128.483 39.8047 129.654 38.223 130.494C36.6414 131.314 34.7376 131.724 32.5116 131.724ZM32.5116 127.506C33.9565 127.506 35.1086 127.321 35.9677 126.95C36.8464 126.559 37.481 125.934 37.8715 125.075C38.2816 124.216 38.4866 123.064 38.4866 121.619C38.4866 120.155 38.2816 119.003 37.8715 118.163C37.481 117.304 36.8464 116.689 35.9677 116.318C35.1086 115.927 33.9565 115.732 32.5116 115.732C31.0861 115.732 29.9438 115.927 29.0847 116.318C28.2255 116.689 27.6007 117.304 27.2101 118.163C26.8196 119.003 26.6243 120.155 26.6243 121.619C26.6243 123.064 26.8196 124.216 27.2101 125.075C27.6007 125.934 28.2255 126.559 29.0847 126.95C29.9438 127.321 31.0861 127.506 32.5116 127.506Z" fill="#FFF3E5"/>
<path d="M10.4857 131.724C8.33778 131.724 6.47301 131.314 4.89137 130.494C3.32925 129.654 2.11862 128.483 1.25945 126.979C0.419818 125.456 0 123.669 0 121.619C0 119.569 0.419818 117.792 1.25945 116.288C2.11862 114.765 3.32925 113.594 4.89137 112.774C6.47301 111.934 8.33778 111.514 10.4857 111.514C12.536 111.514 14.3031 111.836 15.7871 112.481C17.2906 113.125 18.4525 114.043 19.2726 115.234C20.0927 116.425 20.5027 117.86 20.5027 119.54V119.979H15.6114V119.54C15.6114 118.251 15.2111 117.294 14.4105 116.669C13.6294 116.044 12.3505 115.732 10.5736 115.732C9.14813 115.732 7.99607 115.927 7.11738 116.318C6.25822 116.689 5.63337 117.304 5.24284 118.163C4.85232 119.003 4.65705 120.155 4.65705 121.619C4.65705 123.064 4.85232 124.216 5.24284 125.075C5.63337 125.934 6.25822 126.559 7.11738 126.95C7.99607 127.321 9.14813 127.506 10.5736 127.506C12.3505 127.506 13.6294 127.194 14.4105 126.569C15.2111 125.944 15.6114 124.987 15.6114 123.699V123.259H20.5027V123.699C20.5027 125.358 20.0927 126.794 19.2726 128.004C18.4525 129.195 17.2906 130.113 15.7871 130.757C14.3031 131.402 12.536 131.724 10.4857 131.724Z" fill="#FFF3E5"/>
<path d="M690.85 93.1256H666.387V77.5583H664.997V52.6784C664.997 49.1573 664.071 46.9334 662.217 46.0067C660.457 44.9874 657.26 44.4778 652.627 44.4778C648.364 44.4778 645.399 44.9874 643.731 46.0067C642.156 47.026 641.368 49.0183 641.368 51.9835V52.5394H615.238V52.2614C615.238 46.0531 616.859 40.6786 620.102 36.1382C623.346 31.5051 627.932 27.9376 633.863 25.4357C639.793 22.9338 646.696 21.6829 654.573 21.6829C662.727 21.6829 669.491 22.9801 674.866 25.5747C680.24 28.0766 684.225 31.6904 686.819 36.4162C689.506 41.0493 690.85 46.6554 690.85 53.2344V93.1256ZM638.588 94.5155C630.712 94.5155 624.597 92.8012 620.241 89.3727C615.979 85.9442 613.848 81.2648 613.848 75.3344C613.848 71.9985 614.635 69.0333 616.211 66.4388C617.786 63.8442 620.241 61.7593 623.577 60.1841C626.913 58.5162 631.222 57.4042 636.504 56.8482L666.387 53.9294V68.3847L643.453 71.0256C642.249 71.1182 641.368 71.3962 640.812 71.8595C640.349 72.3229 640.117 72.9252 640.117 73.6665C640.117 74.7784 640.627 75.5197 641.646 75.8903C642.758 76.1683 644.334 76.3073 646.372 76.3073C651.005 76.3073 654.665 76.0757 657.353 75.6124C660.04 75.0564 661.986 74.0834 663.19 72.6935C664.395 71.3036 664.997 69.3113 664.997 66.7168L666.943 66.1608V78.3922H664.997C663.7 83.3033 660.874 87.2415 656.519 90.2067C652.164 93.0792 646.187 94.5155 638.588 94.5155Z" fill="#FFF3E5"/>
<path d="M609.127 93.1255H582.996V57.8212C582.996 52.9101 581.93 49.5742 579.799 47.8136C577.668 45.9604 573.73 45.0338 567.985 45.0338C562.24 45.0338 558.394 45.9141 556.448 47.6747C554.595 49.3426 553.668 52.4468 553.668 56.9872H551.028L548.804 44.3388H553.39C553.946 40.447 555.197 36.7868 557.143 33.3583C559.182 29.9298 562.147 27.1499 566.039 25.0187C570.023 22.7948 575.12 21.6829 581.328 21.6829C587.629 21.6829 592.818 22.8411 596.895 25.1577C601.065 27.4743 604.123 30.6248 606.069 34.6093C608.108 38.5937 609.127 43.1342 609.127 48.2306V93.1255ZM553.668 93.1255H527.538V23.0728H552V44.6168L553.668 45.3118V93.1255Z" fill="#FFF3E5"/>
<path d="M520.635 93.1257H494.504V23.0729H520.635V93.1257ZM520.635 16.6792H494.504V0H520.635V16.6792Z" fill="#FFF3E5"/>
<path d="M488.032 93.1255H469.685C460.974 93.1255 454.117 90.948 449.114 86.5929C444.203 82.2377 441.747 75.5197 441.747 66.4388V10.9803H467.878V62.686C467.878 65.4658 468.387 67.3191 469.407 68.2457C470.519 69.1723 472.557 69.6356 475.522 69.6356H488.032V93.1255ZM488.032 44.4778H431.461V23.0728H488.032V44.4778Z" fill="#FFF3E5"/>
<path d="M428.91 93.1256H404.447V77.5583H403.057V52.6784C403.057 49.1573 402.13 46.9334 400.277 46.0067C398.516 44.9874 395.32 44.4778 390.686 44.4778C386.424 44.4778 383.459 44.9874 381.791 46.0067C380.216 47.026 379.428 49.0183 379.428 51.9835V52.5394H353.297V52.2614C353.297 46.0531 354.919 40.6786 358.162 36.1382C361.405 31.5051 365.992 27.9376 371.922 25.4357C377.853 22.9338 384.756 21.6829 392.632 21.6829C400.787 21.6829 407.551 22.9801 412.925 25.5747C418.3 28.0766 422.284 31.6904 424.879 36.4162C427.566 41.0493 428.91 46.6554 428.91 53.2344V93.1256ZM376.648 94.5155C368.772 94.5155 362.656 92.8012 358.301 89.3727C354.038 85.9442 351.907 81.2648 351.907 75.3344C351.907 71.9985 352.695 69.0333 354.27 66.4388C355.845 63.8442 358.301 61.7593 361.637 60.1841C364.973 58.5162 369.281 57.4042 374.563 56.8482L404.447 53.9294V68.3847L381.513 71.0256C380.308 71.1182 379.428 71.3962 378.872 71.8595C378.409 72.3229 378.177 72.9252 378.177 73.6665C378.177 74.7784 378.687 75.5197 379.706 75.8903C380.818 76.1683 382.393 76.3073 384.432 76.3073C389.065 76.3073 392.725 76.0757 395.412 75.6124C398.099 75.0564 400.045 74.0834 401.25 72.6935C402.455 71.3036 403.057 69.3113 403.057 66.7168L405.003 66.1608V78.3922H403.057C401.76 83.3033 398.933 87.2415 394.578 90.2067C390.223 93.0792 384.246 94.5155 376.648 94.5155Z" fill="#FFF3E5"/>
<path d="M217.574 94.5155C209.698 94.5155 202.702 93.3109 196.586 90.9017C190.47 88.4924 185.698 84.6006 182.27 79.2262C178.841 73.8518 177.127 66.8094 177.127 58.0992C177.127 50.5009 178.841 44.0145 182.27 38.6401C185.698 33.173 190.378 29.0032 196.308 26.1307C202.331 23.1655 209.234 21.6829 217.018 21.6829C225.08 21.6829 232.076 23.0265 238.006 25.7137C243.937 28.3082 248.523 32.2 251.767 37.3891C255.01 42.4856 256.631 48.7866 256.631 56.2923C256.631 57.4969 256.585 58.6088 256.492 59.6281C256.492 60.5547 256.4 61.6667 256.214 62.9639H194.223V49.7596H237.311L231.612 57.9602C231.612 57.1262 231.612 56.3386 231.612 55.5973C231.612 54.7633 231.612 53.9294 231.612 53.0954C231.612 48.8329 230.5 45.8677 228.277 44.1998C226.145 42.5319 222.207 41.6979 216.462 41.6979C210.532 41.6979 206.501 42.6246 204.37 44.4778C202.331 46.3311 201.312 49.6669 201.312 54.4853V61.157C201.312 66.0681 202.377 69.404 204.509 71.1646C206.64 72.9252 210.671 73.8054 216.601 73.8054C221.883 73.8054 225.404 73.3421 227.165 72.4155C229.018 71.3962 229.945 69.8673 229.945 67.8287V66.2998H256.075V67.9677C256.075 73.1568 254.5 77.7436 251.35 81.7281C248.199 85.7126 243.751 88.8631 238.006 91.1796C232.261 93.4035 225.45 94.5155 217.574 94.5155Z" fill="#FFF3E5"/>
<path d="M118.03 94.5157C111.544 94.5157 106.169 93.3574 101.907 91.0409C97.6442 88.7243 94.4474 85.5738 92.3162 81.5893C90.2776 77.6048 89.2583 73.0644 89.2583 67.9679V23.073H115.389V58.3774C115.389 63.1958 116.501 66.5317 118.725 68.3849C121.041 70.2381 125.165 71.1648 131.095 71.1648C137.118 71.1648 141.103 70.3308 143.049 68.6629C145.087 66.9023 146.107 63.7518 146.107 59.2113H148.748L150.971 71.8597H146.385C145.921 75.7516 144.67 79.4117 142.632 82.8402C140.593 86.2687 137.582 89.0949 133.597 91.3188C129.613 93.4501 124.424 94.5157 118.03 94.5157ZM172.237 93.1258H147.775V71.5818L146.107 70.8868V23.073H172.237V93.1258Z" fill="#FFF3E5"/>
<path d="M82.9792 93.1257H56.8484V57.8213C56.8484 52.9102 55.7364 49.5744 53.5125 47.8138C51.2886 45.9605 47.1652 45.0339 41.1421 45.0339C37.1576 45.0339 34.0534 45.4046 31.8295 46.1459C29.6983 46.8872 28.2157 48.1381 27.3817 49.8987C26.5478 51.5666 26.1308 53.9295 26.1308 56.9874H22.9339V44.3389H27.5207C28.262 40.3545 29.652 36.648 31.6905 33.2195C33.8218 29.791 36.8333 27.0111 40.7251 24.8798C44.6169 22.7486 49.528 21.683 55.4584 21.683C61.6668 21.683 66.8096 22.8876 70.8867 25.2968C74.9639 27.706 77.9754 30.9956 79.9213 35.1654C81.9599 39.2425 82.9792 43.8756 82.9792 49.0647V93.1257ZM26.1308 93.1257H0V0H26.1308V93.1257Z" fill="#FFF3E5"/>
<path d="M301.993 93.1261H287.881C279.509 93.1261 272.918 90.9742 268.108 86.6705C263.388 82.3667 261.027 75.728 261.027 66.7543V0.0294189H286.144V63.0457C286.144 65.7928 286.634 67.6242 287.614 68.5398C288.682 69.4555 290.642 69.9134 293.492 69.9134H301.993V93.1261Z" fill="#FFF3E5"/>
<path d="M347.584 93.1261H333.472C325.1 93.1261 318.509 90.9742 313.699 86.6705C308.979 82.3667 306.618 75.728 306.618 66.7543V0.0294189H331.735V63.0457C331.735 65.7928 332.225 67.6242 333.205 68.5399C334.274 69.4555 336.233 69.9134 339.083 69.9134H347.584V93.1261Z" fill="#FFF3E5"/>
</svg>
