<svg width="88" height="98" viewBox="0 0 88 98" fill="none" xmlns="http://www.w3.org/2000/svg">
<path d="M87.3224 98H59.8239V60.8478C59.8239 55.6796 58.6537 52.1692 56.3134 50.3164C53.9731 48.3662 49.6338 47.391 43.2955 47.391C39.1025 47.391 35.8358 47.7811 33.4955 48.5612C31.2527 49.3413 29.6925 50.6577 28.8149 52.5105C27.9373 54.2657 27.4985 56.7522 27.4985 59.9702H24.1343V46.6597H28.9612C29.7413 42.4667 31.204 38.5662 33.3493 34.9582C35.592 31.3502 38.7612 28.4249 42.8567 26.1821C46.9522 23.9393 52.1204 22.8179 58.3612 22.8179C64.8945 22.8179 70.3065 24.0856 74.597 26.6209C78.8876 29.1562 82.0567 32.6179 84.1045 37.006C86.2498 41.2965 87.3224 46.1721 87.3224 51.6328V98ZM27.4985 98H0V0H27.4985V98Z" fill="#FFF3E5"/>
</svg>
