<svg width="949" height="245" viewBox="0 0 949 245" fill="none" xmlns="http://www.w3.org/2000/svg">
<rect x="188.5" y="4.5" width="235" height="235" stroke="white"/>
<path d="M224.217 22.0382H223.879L224.469 20.6887H224.9L225.494 22.0382H225.148L224.777 21.1741L224.695 20.9647H224.672L224.59 21.1741L224.217 22.0382ZM225.152 21.7401H224.201V21.4682H225.152V21.7401Z" fill="#FFF3E5"/>
<path d="M222.81 22.0382H222.508V20.6887H222.83L223.313 21.3272L223.499 21.6112H223.521L223.507 21.3393V20.6887H223.809V22.0382H223.487L222.989 21.3937L222.818 21.1399H222.798L222.81 21.3876V22.0382Z" fill="#FFF3E5"/>
<path d="M222.349 22.0382H222.047V20.6887H222.349V22.0382Z" fill="#FFF3E5"/>
<path d="M221.366 22.0382H221.064V20.6887H221.366V22.0382ZM221.867 20.9606H220.562V20.6887H221.867V20.9606Z" fill="#FFF3E5"/>
<path d="M219.556 22.0382H219.217L219.807 20.6887H220.238L220.833 22.0382H220.486L220.116 21.1741L220.033 20.9647H220.011L219.928 21.1741L219.556 22.0382ZM220.49 21.7401H219.54V21.4682H220.49V21.7401Z" fill="#FFF3E5"/>
<path d="M218.31 22.0382H218.008V20.6887H218.31V22.0382ZM219.114 22.0382H218.093V21.7663H219.114V22.0382Z" fill="#FFF3E5"/>
<path d="M217.646 21.5731H216.895V21.3132H217.646V21.5731Z" fill="#FFF3E5"/>
<path d="M215.864 22.0585C215.717 22.0585 215.588 22.0303 215.478 21.9739C215.369 21.9162 215.285 21.8356 215.226 21.7322C215.168 21.6275 215.139 21.5046 215.139 21.3636C215.139 21.2226 215.168 21.1004 215.226 20.997C215.285 20.8923 215.369 20.8117 215.478 20.7553C215.588 20.6976 215.717 20.6687 215.864 20.6687C216.017 20.6687 216.148 20.6976 216.257 20.7553C216.366 20.8117 216.45 20.8923 216.509 20.997C216.568 21.1004 216.597 21.2226 216.597 21.3636C216.597 21.5046 216.568 21.6275 216.509 21.7322C216.45 21.8356 216.366 21.9162 216.257 21.9739C216.148 22.0303 216.017 22.0585 215.864 22.0585ZM215.864 21.7684C215.964 21.7684 216.043 21.7557 216.102 21.7302C216.162 21.7033 216.206 21.6604 216.233 21.6013C216.261 21.5422 216.275 21.463 216.275 21.3636C216.275 21.2629 216.261 21.1837 216.233 21.1259C216.206 21.0668 216.162 21.0245 216.102 20.999C216.043 20.9722 215.964 20.9587 215.864 20.9587C215.766 20.9587 215.688 20.9722 215.629 20.999C215.57 21.0245 215.527 21.0668 215.5 21.1259C215.473 21.1837 215.459 21.2629 215.459 21.3636C215.459 21.463 215.473 21.5422 215.5 21.6013C215.527 21.6604 215.57 21.7033 215.629 21.7302C215.688 21.7557 215.766 21.7684 215.864 21.7684Z" fill="#FFF3E5"/>
<path d="M214.482 22.0585C214.347 22.0585 214.231 22.041 214.136 22.0061C214.04 21.9699 213.968 21.9168 213.918 21.847C213.868 21.7758 213.844 21.6879 213.844 21.5831V21.5711H214.146V21.6073C214.146 21.6489 214.154 21.6825 214.172 21.708C214.191 21.7335 214.224 21.7523 214.273 21.7644C214.321 21.7765 214.391 21.7825 214.482 21.7825C214.563 21.7825 214.624 21.7785 214.667 21.7705C214.71 21.7611 214.74 21.747 214.756 21.7282C214.772 21.7094 214.78 21.6852 214.78 21.6557C214.78 21.614 214.766 21.5838 214.738 21.565C214.711 21.5462 214.663 21.5308 214.595 21.5187L214.216 21.4643C214.136 21.4509 214.067 21.4287 214.009 21.3978C213.952 21.367 213.909 21.326 213.878 21.275C213.847 21.2226 213.832 21.1595 213.832 21.0856C213.832 21.0346 213.842 20.9843 213.864 20.9346C213.887 20.8849 213.922 20.8406 213.971 20.8016C214.019 20.7614 214.082 20.7291 214.16 20.705C214.239 20.6808 214.336 20.6687 214.45 20.6687C214.588 20.6687 214.702 20.6888 214.79 20.7291C214.88 20.7681 214.947 20.8238 214.992 20.8963C215.036 20.9675 215.058 21.0501 215.058 21.144V21.1561H214.754V21.1279C214.754 21.085 214.745 21.0501 214.726 21.0232C214.708 20.9963 214.675 20.9769 214.627 20.9648C214.579 20.9514 214.51 20.9446 214.42 20.9446C214.347 20.9446 214.29 20.9493 214.248 20.9587C214.208 20.9681 214.179 20.9822 214.162 21.001C214.144 21.0198 214.136 21.044 214.136 21.0736C214.136 21.0991 214.141 21.1206 214.152 21.138C214.163 21.1541 214.179 21.1669 214.202 21.1763C214.225 21.1857 214.255 21.1937 214.293 21.2004L214.671 21.2609C214.772 21.277 214.852 21.3032 214.911 21.3394C214.972 21.3757 215.015 21.42 215.042 21.4724C215.069 21.5234 215.082 21.5798 215.082 21.6416C215.082 21.7141 215.062 21.7825 215.022 21.847C214.982 21.9101 214.917 21.9611 214.829 22.0001C214.74 22.039 214.624 22.0585 214.482 22.0585Z" fill="#FFF3E5"/>
<path d="M213.055 22.0584C212.909 22.0584 212.787 22.0349 212.689 21.9879C212.591 21.9409 212.517 21.8737 212.467 21.7865C212.417 21.6992 212.393 21.5951 212.393 21.4743V20.6887H212.695V21.4521C212.695 21.5286 212.705 21.5904 212.727 21.6374C212.75 21.6831 212.787 21.716 212.84 21.7361C212.893 21.7549 212.965 21.7643 213.055 21.7643C213.148 21.7643 213.22 21.7549 213.273 21.7361C213.325 21.716 213.362 21.6831 213.384 21.6374C213.405 21.5904 213.416 21.5286 213.416 21.4521V20.6887H213.718V21.4743C213.718 21.5951 213.693 21.6992 213.643 21.7865C213.594 21.8737 213.52 21.9409 213.422 21.9879C213.325 22.0349 213.203 22.0584 213.055 22.0584Z" fill="#FFF3E5"/>
<path d="M211.55 22.0382H211.248V20.6887H211.55V22.0382ZM212.353 22.0382H211.332V21.7663H212.353V22.0382Z" fill="#FFF3E5"/>
<path d="M209.445 22.0382H209.106L209.697 20.6887H210.128L210.722 22.0382H210.375L210.005 21.1741L209.922 20.9647H209.9L209.817 21.1741L209.445 22.0382ZM210.379 21.7401H209.429V21.4682H210.379V21.7401Z" fill="#FFF3E5"/>
<path d="M208.862 22.0382H208.431L207.871 20.6887H208.236L208.641 21.7321H208.661L209.059 20.6887H209.422L208.862 22.0382Z" fill="#FFF3E5"/>
<path d="M207.737 22.0382H207.435V20.6887H207.737V22.0382Z" fill="#FFF3E5"/>
<path d="M206.825 22.0382H206.523V20.6887H206.825V22.0382ZM207.327 20.9606H206.021V20.6887H207.327V20.9606Z" fill="#FFF3E5"/>
<path d="M204.979 22.0382H204.641L205.231 20.6887H205.662L206.256 22.0382H205.91L205.539 21.1741L205.457 20.9647H205.435L205.352 21.1741L204.979 22.0382ZM205.914 21.7401H204.963V21.4682H205.914V21.7401Z" fill="#FFF3E5"/>
<path d="M203.567 22.0382H203.265V20.6887H204.01C204.121 20.6887 204.216 20.7048 204.294 20.7371C204.372 20.7679 204.431 20.8136 204.471 20.874C204.511 20.9345 204.532 21.0076 204.532 21.0936C204.532 21.1674 204.517 21.2305 204.489 21.2829C204.461 21.3353 204.419 21.3776 204.362 21.4098C204.306 21.4407 204.235 21.4602 204.151 21.4682V21.4843C204.211 21.5004 204.256 21.5246 204.286 21.5568C204.315 21.5891 204.343 21.6287 204.368 21.6757L204.564 22.0382H204.213L204.028 21.6878C204.009 21.6528 203.99 21.6253 203.97 21.6052C203.949 21.585 203.923 21.5709 203.891 21.5629C203.86 21.5535 203.819 21.5488 203.766 21.5488H203.567V22.0382ZM203.567 20.9606V21.3212H204.008C204.079 21.3212 204.131 21.3091 204.165 21.2849C204.199 21.2594 204.215 21.2111 204.215 21.1399C204.215 21.0728 204.199 21.0264 204.165 21.0009C204.131 20.9741 204.079 20.9606 204.008 20.9606H203.567Z" fill="#FFF3E5"/>
<path d="M202.288 22.0382H201.986V20.6887H202.288V22.0382ZM203.128 22.0382H202.071V21.7663H203.128V22.0382ZM203.098 21.4944H202.071V21.2245H203.098V21.4944ZM203.128 20.9606H202.071V20.6887H203.128V20.9606Z" fill="#FFF3E5"/>
<path d="M201.366 21.6656H200.765V21.3937H201.333C201.418 21.3937 201.48 21.3789 201.519 21.3494C201.559 21.3185 201.579 21.2607 201.579 21.1762C201.579 21.0942 201.559 21.0378 201.519 21.007C201.48 20.9761 201.418 20.9606 201.333 20.9606H200.765V20.6887H201.366C201.47 20.6887 201.561 20.7082 201.638 20.7471C201.714 20.7847 201.773 20.8398 201.815 20.9123C201.858 20.9848 201.879 21.0728 201.879 21.1762C201.879 21.2795 201.858 21.3682 201.815 21.442C201.773 21.5145 201.714 21.5703 201.638 21.6092C201.561 21.6468 201.47 21.6656 201.366 21.6656ZM200.963 22.0382H200.661V20.6887H200.963V22.0382Z" fill="#FFF3E5"/>
<path d="M199.795 22.0585C199.648 22.0585 199.519 22.0303 199.409 21.9739C199.3 21.9162 199.216 21.8356 199.157 21.7322C199.099 21.6275 199.07 21.5046 199.07 21.3636C199.07 21.2226 199.099 21.1004 199.157 20.997C199.216 20.8923 199.3 20.8117 199.409 20.7553C199.519 20.6976 199.648 20.6687 199.795 20.6687C199.948 20.6687 200.079 20.6976 200.188 20.7553C200.297 20.8117 200.381 20.8923 200.44 20.997C200.499 21.1004 200.529 21.2226 200.529 21.3636C200.529 21.5046 200.499 21.6275 200.44 21.7322C200.381 21.8356 200.297 21.9162 200.188 21.9739C200.079 22.0303 199.948 22.0585 199.795 22.0585ZM199.795 21.7684C199.895 21.7684 199.974 21.7557 200.033 21.7302C200.094 21.7033 200.137 21.6604 200.164 21.6013C200.192 21.5422 200.206 21.463 200.206 21.3636C200.206 21.2629 200.192 21.1837 200.164 21.1259C200.137 21.0668 200.094 21.0245 200.033 20.999C199.974 20.9722 199.895 20.9587 199.795 20.9587C199.697 20.9587 199.619 20.9722 199.56 20.999C199.501 21.0245 199.458 21.0668 199.431 21.1259C199.404 21.1837 199.391 21.2629 199.391 21.3636C199.391 21.463 199.404 21.5422 199.431 21.6013C199.458 21.6604 199.501 21.7033 199.56 21.7302C199.619 21.7557 199.697 21.7684 199.795 21.7684Z" fill="#FFF3E5"/>
<path d="M198.236 22.0585C198.088 22.0585 197.959 22.0303 197.849 21.9739C197.74 21.9162 197.656 21.8356 197.597 21.7322C197.54 21.6275 197.511 21.5046 197.511 21.3636C197.511 21.2226 197.54 21.1004 197.597 20.997C197.656 20.8923 197.74 20.8117 197.849 20.7553C197.959 20.6976 198.088 20.6687 198.236 20.6687C198.389 20.6687 198.52 20.6976 198.629 20.7553C198.737 20.8117 198.821 20.8923 198.88 20.997C198.939 21.1004 198.969 21.2226 198.969 21.3636C198.969 21.5046 198.939 21.6275 198.88 21.7322C198.821 21.8356 198.737 21.9162 198.629 21.9739C198.52 22.0303 198.389 22.0585 198.236 22.0585ZM198.236 21.7684C198.335 21.7684 198.414 21.7557 198.474 21.7302C198.534 21.7033 198.578 21.6604 198.604 21.6013C198.633 21.5422 198.647 21.463 198.647 21.3636C198.647 21.2629 198.633 21.1837 198.604 21.1259C198.578 21.0668 198.534 21.0245 198.474 20.999C198.414 20.9722 198.335 20.9587 198.236 20.9587C198.138 20.9587 198.059 20.9722 198 20.999C197.941 21.0245 197.898 21.0668 197.871 21.1259C197.844 21.1837 197.831 21.2629 197.831 21.3636C197.831 21.463 197.844 21.5422 197.871 21.6013C197.898 21.6604 197.941 21.7033 198 21.7302C198.059 21.7557 198.138 21.7684 198.236 21.7684Z" fill="#FFF3E5"/>
<path d="M196.721 22.0585C196.573 22.0585 196.445 22.0303 196.336 21.9739C196.229 21.9162 196.146 21.8356 196.087 21.7322C196.029 21.6275 196 21.5046 196 21.3636C196 21.2226 196.029 21.1004 196.087 20.997C196.146 20.8923 196.229 20.8117 196.336 20.7553C196.445 20.6976 196.573 20.6687 196.721 20.6687C196.862 20.6687 196.984 20.6909 197.086 20.7352C197.189 20.7795 197.269 20.8426 197.325 20.9245C197.382 21.0064 197.41 21.1051 197.41 21.2206V21.2508H197.074V21.2206C197.074 21.132 197.046 21.0662 196.991 21.0232C196.937 20.9802 196.849 20.9587 196.727 20.9587C196.629 20.9587 196.55 20.9722 196.489 20.999C196.43 21.0245 196.387 21.0668 196.361 21.1259C196.334 21.1837 196.32 21.2629 196.32 21.3636C196.32 21.463 196.334 21.5422 196.361 21.6013C196.387 21.6604 196.43 21.7033 196.489 21.7302C196.55 21.7557 196.629 21.7684 196.727 21.7684C196.849 21.7684 196.937 21.747 196.991 21.704C197.046 21.661 197.074 21.5952 197.074 21.5066V21.4764H197.41V21.5066C197.41 21.6207 197.382 21.7194 197.325 21.8027C197.269 21.8846 197.189 21.9477 197.086 21.992C196.984 22.0363 196.862 22.0585 196.721 22.0585Z" fill="#FFF3E5"/>
<path d="M243.508 19.4039H241.826V18.3334H241.73V16.6225C241.73 16.3803 241.667 16.2274 241.539 16.1637C241.418 16.0936 241.198 16.0585 240.88 16.0585C240.587 16.0585 240.383 16.0936 240.268 16.1637C240.16 16.2338 240.105 16.3708 240.105 16.5747V16.6129H238.308V16.5938C238.308 16.1669 238.42 15.7973 238.643 15.485C238.866 15.1664 239.181 14.9211 239.589 14.749C239.997 14.577 240.472 14.491 241.013 14.491C241.574 14.491 242.039 14.5802 242.409 14.7586C242.779 14.9306 243.053 15.1792 243.231 15.5041C243.416 15.8228 243.508 16.2083 243.508 16.6607V19.4039ZM239.914 19.4995C239.373 19.4995 238.952 19.3816 238.653 19.1459C238.359 18.9101 238.213 18.5883 238.213 18.1805C238.213 17.9511 238.267 17.7472 238.375 17.5687C238.484 17.3903 238.653 17.2469 238.882 17.1386C239.111 17.0239 239.408 16.9474 239.771 16.9092L241.826 16.7085V17.7026L240.249 17.8842C240.166 17.8905 240.105 17.9097 240.067 17.9415C240.035 17.9734 240.019 18.0148 240.019 18.0658C240.019 18.1422 240.054 18.1932 240.125 18.2187C240.201 18.2378 240.309 18.2474 240.45 18.2474C240.768 18.2474 241.02 18.2314 241.205 18.1996C241.389 18.1614 241.523 18.0944 241.606 17.9989C241.689 17.9033 241.73 17.7663 241.73 17.5879L241.864 17.5496V18.3908H241.73C241.641 18.7285 241.447 18.9993 241.147 19.2032C240.848 19.4007 240.437 19.4995 239.914 19.4995Z" fill="#FFF3E5"/>
<path d="M237.889 19.4039H236.092V16.9761C236.092 16.6384 236.018 16.409 235.872 16.2879C235.725 16.1605 235.454 16.0968 235.059 16.0968C234.664 16.0968 234.4 16.1573 234.266 16.2784C234.139 16.3931 234.075 16.6065 234.075 16.9188H233.893L233.74 16.049H234.056C234.094 15.7813 234.18 15.5296 234.314 15.2939C234.454 15.0581 234.658 14.8669 234.925 14.7204C235.199 14.5674 235.55 14.491 235.977 14.491C236.41 14.491 236.767 14.5706 237.047 14.7299C237.334 14.8892 237.544 15.1059 237.678 15.3799C237.818 15.6539 237.889 15.9661 237.889 16.3166V19.4039ZM234.075 19.4039H232.278V14.5865H233.96V16.0681L234.075 16.1159V19.4039Z" fill="#FFF3E5"/>
<path d="M231.803 19.4041H230.006V14.5867H231.803V19.4041ZM231.803 14.147H230.006V13H231.803V14.147Z" fill="#FFF3E5"/>
<path d="M229.561 19.4041H228.299C227.7 19.4041 227.229 19.2543 226.885 18.9548C226.547 18.6553 226.378 18.1934 226.378 17.5689V13.7551H228.175V17.3108C228.175 17.502 228.21 17.6294 228.28 17.6931C228.357 17.7569 228.497 17.7887 228.701 17.7887H229.561V19.4041ZM229.561 16.0587H225.671V14.5867H229.561V16.0587Z" fill="#FFF3E5"/>
<path d="M225.495 19.4039H223.813V18.3334H223.717V16.6225C223.717 16.3803 223.653 16.2274 223.526 16.1637C223.405 16.0936 223.185 16.0585 222.866 16.0585C222.573 16.0585 222.369 16.0936 222.255 16.1637C222.146 16.2338 222.092 16.3708 222.092 16.5747V16.6129H220.295V16.5938C220.295 16.1669 220.407 15.7973 220.63 15.485C220.853 15.1664 221.168 14.9211 221.576 14.749C221.984 14.577 222.459 14.491 223 14.491C223.561 14.491 224.026 14.5802 224.396 14.7586C224.765 14.9306 225.039 15.1792 225.218 15.5041C225.403 15.8228 225.495 16.2083 225.495 16.6607V19.4039ZM221.901 19.4995C221.359 19.4995 220.939 19.3816 220.639 19.1459C220.346 18.9101 220.2 18.5883 220.2 18.1805C220.2 17.9511 220.254 17.7472 220.362 17.5687C220.471 17.3903 220.639 17.2469 220.869 17.1386C221.098 17.0239 221.394 16.9474 221.758 16.9092L223.813 16.7085V17.7026L222.236 17.8842C222.153 17.8905 222.092 17.9097 222.054 17.9415C222.022 17.9734 222.006 18.0148 222.006 18.0658C222.006 18.1422 222.041 18.1932 222.111 18.2187C222.188 18.2378 222.296 18.2474 222.436 18.2474C222.755 18.2474 223.007 18.2314 223.191 18.1996C223.376 18.1614 223.51 18.0944 223.593 17.9989C223.676 17.9033 223.717 17.7663 223.717 17.5879L223.851 17.5496V18.3908H223.717C223.628 18.7285 223.434 18.9993 223.134 19.2032C222.835 19.4007 222.424 19.4995 221.901 19.4995Z" fill="#FFF3E5"/>
<path d="M210.962 19.4995C210.42 19.4995 209.939 19.4167 209.519 19.251C209.098 19.0853 208.77 18.8177 208.534 18.4481C208.299 18.0785 208.181 17.5942 208.181 16.9952C208.181 16.4727 208.299 16.0267 208.534 15.6571C208.77 15.2811 209.092 14.9944 209.5 14.7968C209.914 14.5929 210.389 14.491 210.924 14.491C211.478 14.491 211.959 14.5834 212.367 14.7682C212.775 14.9466 213.09 15.2142 213.313 15.5711C213.536 15.9215 213.648 16.3548 213.648 16.871C213.648 16.9538 213.645 17.0303 213.638 17.1004C213.638 17.1641 213.632 17.2406 213.619 17.3298H209.356V16.4217H212.319L211.928 16.9857C211.928 16.9283 211.928 16.8742 211.928 16.8232C211.928 16.7658 211.928 16.7085 211.928 16.6511C211.928 16.358 211.851 16.1541 211.698 16.0394C211.552 15.9247 211.281 15.8674 210.886 15.8674C210.478 15.8674 210.201 15.9311 210.054 16.0585C209.914 16.186 209.844 16.4154 209.844 16.7467V17.2055C209.844 17.5432 209.917 17.7726 210.064 17.8937C210.21 18.0148 210.487 18.0753 210.895 18.0753C211.258 18.0753 211.501 18.0435 211.622 17.9797C211.749 17.9097 211.813 17.8045 211.813 17.6643V17.5592H213.61V17.6739C213.61 18.0307 213.501 18.3461 213.285 18.6202C213.068 18.8942 212.762 19.1108 212.367 19.2701C211.972 19.423 211.504 19.4995 210.962 19.4995Z" fill="#FFF3E5"/>
<path d="M204.117 19.4996C203.671 19.4996 203.301 19.42 203.008 19.2607C202.715 19.1014 202.495 18.8847 202.348 18.6107C202.208 18.3367 202.138 18.0245 202.138 17.674V14.5867H203.935V17.0145C203.935 17.3458 204.012 17.5752 204.165 17.7027C204.324 17.8301 204.607 17.8938 205.015 17.8938C205.429 17.8938 205.703 17.8365 205.837 17.7218C205.977 17.6007 206.048 17.3841 206.048 17.0718H206.229L206.382 17.9416H206.067C206.035 18.2093 205.949 18.461 205.809 18.6967C205.668 18.9325 205.461 19.1269 205.187 19.2798C204.913 19.4264 204.556 19.4996 204.117 19.4996ZM207.844 19.4041H206.162V17.9225L206.048 17.8747V14.5867H207.844V19.4041Z" fill="#FFF3E5"/>
<path d="M201.706 19.4041H199.909V16.9763C199.909 16.6385 199.833 16.4091 199.68 16.2881C199.527 16.1606 199.243 16.0969 198.829 16.0969C198.555 16.0969 198.342 16.1224 198.189 16.1734C198.042 16.2243 197.94 16.3104 197.883 16.4314C197.826 16.5461 197.797 16.7086 197.797 16.9189H197.577V16.0491H197.893C197.944 15.7751 198.039 15.5202 198.179 15.2844C198.326 15.0487 198.533 14.8575 198.801 14.7109C199.068 14.5644 199.406 14.4911 199.814 14.4911C200.241 14.4911 200.594 14.5739 200.875 14.7396C201.155 14.9053 201.362 15.1315 201.496 15.4182C201.636 15.6986 201.706 16.0172 201.706 16.3741V19.4041ZM197.797 19.4041H196V13H197.797V19.4041Z" fill="#FFF3E5"/>
<path d="M216.767 19.404H215.797C215.221 19.404 214.768 19.256 214.437 18.9601C214.113 18.6641 213.95 18.2076 213.95 17.5905V13.002H215.677V17.3355C215.677 17.5244 215.711 17.6503 215.778 17.7133C215.852 17.7762 215.987 17.8077 216.183 17.8077H216.767V19.404Z" fill="#FFF3E5"/>
<path d="M219.903 19.404H218.932C218.356 19.404 217.903 19.256 217.572 18.9601C217.248 18.6641 217.085 18.2076 217.085 17.5905V13.002H218.813V17.3355C218.813 17.5244 218.846 17.6503 218.914 17.7133C218.987 17.7762 219.122 17.8077 219.318 17.8077H219.903V19.404Z" fill="#FFF3E5"/>
<rect x="5.5" y="4.5" width="164" height="235" stroke="white"/>
<path d="M41.2173 232.589H40.8789L41.4691 231.24H41.9001L42.4943 232.589H42.1478L41.7772 231.725L41.6947 231.516H41.6725L41.5899 231.725L41.2173 232.589ZM42.1519 232.291H41.2012V232.019H42.1519V232.291Z" fill="#FFF3E5"/>
<path d="M39.8099 232.589H39.5078V231.24H39.8301L40.3135 231.878L40.4988 232.162H40.5209L40.5068 231.891V231.24H40.809V232.589H40.4867L39.9892 231.945L39.818 231.691H39.7979L39.8099 231.939V232.589Z" fill="#FFF3E5"/>
<path d="M39.3495 232.589H39.0474V231.24H39.3495V232.589Z" fill="#FFF3E5"/>
<path d="M38.3657 232.589H38.0635V231.24H38.3657V232.589ZM38.8672 231.512H37.562V231.24H38.8672V231.512Z" fill="#FFF3E5"/>
<path d="M36.5557 232.589H36.2173L36.8074 231.24H37.2385L37.8327 232.589H37.4862L37.1156 231.725L37.033 231.516H37.0109L36.9283 231.725L36.5557 232.589ZM37.4903 232.291H36.5396V232.019H37.4903V232.291Z" fill="#FFF3E5"/>
<path d="M35.3104 232.589H35.0083V231.24H35.3104V232.589ZM36.1141 232.589H35.0929V232.318H36.1141V232.589Z" fill="#FFF3E5"/>
<path d="M34.6463 232.124H33.895V231.865H34.6463V232.124Z" fill="#FFF3E5"/>
<path d="M32.8643 232.61C32.7166 232.61 32.5877 232.582 32.4775 232.525C32.3688 232.467 32.2849 232.387 32.2258 232.283C32.168 232.179 32.1392 232.056 32.1392 231.915C32.1392 231.774 32.168 231.652 32.2258 231.548C32.2849 231.444 32.3688 231.363 32.4775 231.307C32.5877 231.249 32.7166 231.22 32.8643 231.22C33.0173 231.22 33.1483 231.249 33.257 231.307C33.3658 231.363 33.4497 231.444 33.5088 231.548C33.5679 231.652 33.5974 231.774 33.5974 231.915C33.5974 232.056 33.5679 232.179 33.5088 232.283C33.4497 232.387 33.3658 232.467 33.257 232.525C33.1483 232.582 33.0173 232.61 32.8643 232.61ZM32.8643 232.32C32.9636 232.32 33.0429 232.307 33.1019 232.281C33.1624 232.255 33.206 232.212 33.2329 232.153C33.2611 232.093 33.2752 232.014 33.2752 231.915C33.2752 231.814 33.2611 231.735 33.2329 231.677C33.206 231.618 33.1624 231.576 33.1019 231.55C33.0429 231.523 32.9636 231.51 32.8643 231.51C32.7662 231.51 32.6877 231.523 32.6286 231.55C32.5695 231.576 32.5266 231.618 32.4997 231.677C32.4728 231.735 32.4594 231.814 32.4594 231.915C32.4594 232.014 32.4728 232.093 32.4997 232.153C32.5266 232.212 32.5695 232.255 32.6286 232.281C32.6877 232.307 32.7662 232.32 32.8643 232.32Z" fill="#FFF3E5"/>
<path d="M31.4821 232.61C31.3465 232.61 31.231 232.592 31.1357 232.557C31.0403 232.521 30.9678 232.468 30.9182 232.398C30.8685 232.327 30.8436 232.239 30.8436 232.134V232.122H31.1458V232.159C31.1458 232.2 31.1545 232.234 31.1719 232.259C31.1907 232.285 31.2243 232.304 31.2726 232.316C31.321 232.328 31.3908 232.334 31.4821 232.334C31.5627 232.334 31.6245 232.33 31.6674 232.322C31.7104 232.312 31.7399 232.298 31.7561 232.279C31.7722 232.261 31.7802 232.236 31.7802 232.207C31.7802 232.165 31.7661 232.135 31.7379 232.116C31.7111 232.097 31.6634 232.082 31.5949 232.07L31.2163 232.016C31.1357 232.002 31.0665 231.98 31.0088 231.949C30.9524 231.918 30.9088 231.877 30.8779 231.826C30.847 231.774 30.8315 231.711 30.8315 231.637C30.8315 231.586 30.8423 231.536 30.8638 231.486C30.8866 231.436 30.9222 231.392 30.9705 231.353C31.0189 231.313 31.082 231.28 31.1599 231.256C31.2391 231.232 31.3358 231.22 31.4499 231.22C31.5882 231.22 31.7017 231.24 31.7903 231.28C31.8803 231.319 31.9474 231.375 31.9917 231.448C32.036 231.519 32.0582 231.601 32.0582 231.695V231.707H31.754V231.679C31.754 231.636 31.7446 231.601 31.7258 231.574C31.7084 231.548 31.6755 231.528 31.6271 231.516C31.5788 231.503 31.5097 231.496 31.4197 231.496C31.3472 231.496 31.2901 231.501 31.2485 231.51C31.2082 231.519 31.1793 231.534 31.1619 231.552C31.1444 231.571 31.1357 231.595 31.1357 231.625C31.1357 231.65 31.1411 231.672 31.1518 231.689C31.1625 231.705 31.1793 231.718 31.2022 231.728C31.225 231.737 31.2552 231.745 31.2928 231.752L31.6715 231.812C31.7722 231.828 31.8521 231.854 31.9111 231.891C31.9716 231.927 32.0152 231.971 32.0421 232.024C32.0689 232.075 32.0824 232.131 32.0824 232.193C32.0824 232.265 32.0622 232.334 32.0219 232.398C31.9816 232.461 31.9172 232.512 31.8286 232.551C31.7399 232.59 31.6245 232.61 31.4821 232.61Z" fill="#FFF3E5"/>
<path d="M30.0552 232.61C29.9089 232.61 29.7867 232.586 29.6887 232.539C29.5906 232.492 29.5168 232.425 29.4671 232.338C29.4174 232.25 29.3926 232.146 29.3926 232.026V231.24H29.6947V232.003C29.6947 232.08 29.7054 232.142 29.7269 232.189C29.7498 232.234 29.7874 232.267 29.8397 232.287C29.8934 232.306 29.9653 232.316 30.0552 232.316C30.1479 232.316 30.2204 232.306 30.2728 232.287C30.3251 232.267 30.3621 232.234 30.3836 232.189C30.405 232.142 30.4158 232.08 30.4158 232.003V231.24H30.7179V232.026C30.7179 232.146 30.6931 232.25 30.6434 232.338C30.5937 232.425 30.5199 232.492 30.4218 232.539C30.3251 232.586 30.203 232.61 30.0552 232.61Z" fill="#FFF3E5"/>
<path d="M28.5497 232.589H28.2476V231.24H28.5497V232.589ZM29.3533 232.589H28.3322V232.318H29.3533V232.589Z" fill="#FFF3E5"/>
<path d="M26.4448 232.589H26.1064L26.6966 231.24H27.1276L27.7218 232.589H27.3754L27.0048 231.725L26.9222 231.516H26.9L26.8175 231.725L26.4448 232.589ZM27.3794 232.291H26.4287V232.019H27.3794V232.291Z" fill="#FFF3E5"/>
<path d="M25.8621 232.589H25.431L24.8711 231.24H25.2357L25.6405 232.283H25.6607L26.0595 231.24H26.422L25.8621 232.589Z" fill="#FFF3E5"/>
<path d="M24.7372 232.589H24.4351V231.24H24.7372V232.589Z" fill="#FFF3E5"/>
<path d="M23.8251 232.589H23.523V231.24H23.8251V232.589ZM24.3267 231.512H23.0215V231.24H24.3267V231.512Z" fill="#FFF3E5"/>
<path d="M21.9795 232.589H21.6411L22.2313 231.24H22.6623L23.2565 232.589H22.9101L22.5394 231.725L22.4569 231.516H22.4347L22.3521 231.725L21.9795 232.589ZM22.9141 232.291H21.9634V232.019H22.9141V232.291Z" fill="#FFF3E5"/>
<path d="M20.5668 232.589H20.2646V231.24H21.0099C21.1213 231.24 21.216 231.256 21.2939 231.288C21.3718 231.319 21.4309 231.365 21.4711 231.425C21.5114 231.486 21.5316 231.559 21.5316 231.645C21.5316 231.719 21.5175 231.782 21.4893 231.834C21.4611 231.887 21.4188 231.929 21.3624 231.961C21.306 231.992 21.2355 232.011 21.1509 232.019V232.036C21.2113 232.052 21.2563 232.076 21.2858 232.108C21.3154 232.14 21.3429 232.18 21.3684 232.227L21.5638 232.589H21.2133L21.028 232.239C21.0092 232.204 20.9898 232.177 20.9696 232.156C20.9495 232.136 20.9233 232.122 20.8911 232.114C20.8602 232.105 20.8185 232.1 20.7662 232.1H20.5668V232.589ZM20.5668 231.512V231.872H21.0079C21.0791 231.872 21.1314 231.86 21.165 231.836C21.1986 231.811 21.2153 231.762 21.2153 231.691C21.2153 231.624 21.1986 231.578 21.165 231.552C21.1314 231.525 21.0791 231.512 21.0079 231.512H20.5668Z" fill="#FFF3E5"/>
<path d="M19.2885 232.589H18.9863V231.24H19.2885V232.589ZM20.1284 232.589H19.0709V232.318H20.1284V232.589ZM20.0982 232.046H19.0709V231.776H20.0982V232.046ZM20.1284 231.512H19.0709V231.24H20.1284V231.512Z" fill="#FFF3E5"/>
<path d="M18.3656 232.217H17.7654V231.945H18.3334C18.418 231.945 18.4797 231.93 18.5187 231.901C18.559 231.87 18.5791 231.812 18.5791 231.727C18.5791 231.646 18.559 231.589 18.5187 231.558C18.4797 231.527 18.418 231.512 18.3334 231.512H17.7654V231.24H18.3656C18.4703 231.24 18.561 231.259 18.6375 231.298C18.7141 231.336 18.7731 231.391 18.8148 231.464C18.8577 231.536 18.8792 231.624 18.8792 231.727C18.8792 231.831 18.8577 231.919 18.8148 231.993C18.7731 232.066 18.7141 232.122 18.6375 232.16C18.561 232.198 18.4703 232.217 18.3656 232.217ZM17.9628 232.589H17.6606V231.24H17.9628V232.589Z" fill="#FFF3E5"/>
<path d="M16.7954 232.61C16.6477 232.61 16.5188 232.582 16.4087 232.525C16.2999 232.467 16.216 232.387 16.1569 232.283C16.0992 232.179 16.0703 232.056 16.0703 231.915C16.0703 231.774 16.0992 231.652 16.1569 231.548C16.216 231.444 16.2999 231.363 16.4087 231.307C16.5188 231.249 16.6477 231.22 16.7954 231.22C16.9485 231.22 17.0794 231.249 17.1882 231.307C17.297 231.363 17.3809 231.444 17.44 231.548C17.499 231.652 17.5286 231.774 17.5286 231.915C17.5286 232.056 17.499 232.179 17.44 232.283C17.3809 232.387 17.297 232.467 17.1882 232.525C17.0794 232.582 16.9485 232.61 16.7954 232.61ZM16.7954 232.32C16.8948 232.32 16.974 232.307 17.0331 232.281C17.0935 232.255 17.1372 232.212 17.164 232.153C17.1922 232.093 17.2063 232.014 17.2063 231.915C17.2063 231.814 17.1922 231.735 17.164 231.677C17.1372 231.618 17.0935 231.576 17.0331 231.55C16.974 231.523 16.8948 231.51 16.7954 231.51C16.6974 231.51 16.6188 231.523 16.5598 231.55C16.5007 231.576 16.4577 231.618 16.4309 231.677C16.404 231.735 16.3906 231.814 16.3906 231.915C16.3906 232.014 16.404 232.093 16.4309 232.153C16.4577 232.212 16.5007 232.255 16.5598 232.281C16.6188 232.307 16.6974 232.32 16.7954 232.32Z" fill="#FFF3E5"/>
<path d="M15.2358 232.61C15.0881 232.61 14.9592 232.582 14.8491 232.525C14.7404 232.467 14.6564 232.387 14.5974 232.283C14.5396 232.179 14.5107 232.056 14.5107 231.915C14.5107 231.774 14.5396 231.652 14.5974 231.548C14.6564 231.444 14.7404 231.363 14.8491 231.307C14.9592 231.249 15.0881 231.22 15.2358 231.22C15.3889 231.22 15.5198 231.249 15.6286 231.307C15.7374 231.363 15.8213 231.444 15.8804 231.548C15.9395 231.652 15.969 231.774 15.969 231.915C15.969 232.056 15.9395 232.179 15.8804 232.283C15.8213 232.387 15.7374 232.467 15.6286 232.525C15.5198 232.582 15.3889 232.61 15.2358 232.61ZM15.2358 232.32C15.3352 232.32 15.4144 232.307 15.4735 232.281C15.5339 232.255 15.5776 232.212 15.6044 232.153C15.6326 232.093 15.6467 232.014 15.6467 231.915C15.6467 231.814 15.6326 231.735 15.6044 231.677C15.5776 231.618 15.5339 231.576 15.4735 231.55C15.4144 231.523 15.3352 231.51 15.2358 231.51C15.1378 231.51 15.0593 231.523 15.0002 231.55C14.9411 231.576 14.8981 231.618 14.8713 231.677C14.8444 231.735 14.831 231.814 14.831 231.915C14.831 232.014 14.8444 232.093 14.8713 232.153C14.8981 232.212 14.9411 232.255 15.0002 232.281C15.0593 232.307 15.1378 232.32 15.2358 232.32Z" fill="#FFF3E5"/>
<path d="M13.7211 232.61C13.5734 232.61 13.4451 232.582 13.3364 232.525C13.2289 232.467 13.1457 232.387 13.0866 232.283C13.0289 232.179 13 232.056 13 231.915C13 231.774 13.0289 231.652 13.0866 231.548C13.1457 231.444 13.2289 231.363 13.3364 231.307C13.4451 231.249 13.5734 231.22 13.7211 231.22C13.8621 231.22 13.9836 231.242 14.0856 231.286C14.189 231.331 14.2689 231.394 14.3253 231.476C14.3817 231.558 14.4099 231.656 14.4099 231.772V231.802H14.0736V231.772C14.0736 231.683 14.046 231.617 13.991 231.574C13.9373 231.531 13.8493 231.51 13.7271 231.51C13.6291 231.51 13.5499 231.523 13.4894 231.55C13.4304 231.576 13.3874 231.618 13.3605 231.677C13.3337 231.735 13.3203 231.814 13.3203 231.915C13.3203 232.014 13.3337 232.093 13.3605 232.153C13.3874 232.212 13.4304 232.255 13.4894 232.281C13.5499 232.307 13.6291 232.32 13.7271 232.32C13.8493 232.32 13.9373 232.298 13.991 232.255C14.046 232.212 14.0736 232.146 14.0736 232.058V232.028H14.4099V232.058C14.4099 232.172 14.3817 232.271 14.3253 232.354C14.2689 232.436 14.189 232.499 14.0856 232.543C13.9836 232.588 13.8621 232.61 13.7211 232.61Z" fill="#FFF3E5"/>
<path d="M60.5082 229.955H58.8259V228.885H58.7303V227.174C58.7303 226.932 58.6666 226.779 58.5392 226.715C58.4181 226.645 58.1983 226.61 57.8797 226.61C57.5865 226.61 57.3826 226.645 57.2679 226.715C57.1596 226.785 57.1054 226.922 57.1054 227.126V227.164H55.3085V227.145C55.3085 226.718 55.42 226.349 55.643 226.037C55.866 225.718 56.1815 225.473 56.5893 225.301C56.9971 225.129 57.4718 225.042 58.0135 225.042C58.5742 225.042 59.0394 225.132 59.409 225.31C59.7786 225.482 60.0526 225.731 60.231 226.056C60.4158 226.374 60.5082 226.76 60.5082 227.212V229.955ZM56.9143 230.051C56.3726 230.051 55.9521 229.933 55.6526 229.697C55.3595 229.462 55.2129 229.14 55.2129 228.732C55.2129 228.503 55.2671 228.299 55.3754 228.12C55.4837 227.942 55.6526 227.798 55.882 227.69C56.1114 227.575 56.4077 227.499 56.7709 227.461L58.8259 227.26V228.254L57.2488 228.436C57.166 228.442 57.1054 228.461 57.0672 228.493C57.0353 228.525 57.0194 228.566 57.0194 228.617C57.0194 228.694 57.0545 228.745 57.1245 228.77C57.201 228.789 57.3093 228.799 57.4495 228.799C57.7681 228.799 58.0198 228.783 58.2046 228.751C58.3894 228.713 58.5232 228.646 58.6061 228.55C58.6889 228.455 58.7303 228.318 58.7303 228.139L58.8642 228.101V228.942H58.7303C58.6411 229.28 58.4468 229.551 58.1473 229.755C57.8478 229.952 57.4368 230.051 56.9143 230.051Z" fill="#FFF3E5"/>
<path d="M54.8886 229.955H53.0916V227.528C53.0916 227.19 53.0183 226.961 52.8718 226.839C52.7252 226.712 52.4544 226.648 52.0593 226.648C51.6642 226.648 51.3998 226.709 51.266 226.83C51.1385 226.945 51.0748 227.158 51.0748 227.47H50.8932L50.7403 226.6H51.0557C51.0939 226.333 51.1799 226.081 51.3137 225.845C51.4539 225.61 51.6578 225.418 51.9255 225.272C52.1995 225.119 52.55 225.042 52.9769 225.042C53.4102 225.042 53.767 225.122 54.0474 225.281C54.3342 225.441 54.5445 225.657 54.6783 225.931C54.8185 226.205 54.8886 226.518 54.8886 226.868V229.955ZM51.0748 229.955H49.2778V225.138H50.9601V226.62L51.0748 226.667V229.955Z" fill="#FFF3E5"/>
<path d="M48.8028 229.955H47.0059V225.138H48.8028V229.955ZM48.8028 224.698H47.0059V223.551H48.8028V224.698Z" fill="#FFF3E5"/>
<path d="M46.5611 229.955H45.2994C44.7004 229.955 44.2289 229.806 43.8848 229.506C43.5471 229.207 43.3782 228.745 43.3782 228.12V224.306H45.1752V227.862C45.1752 228.053 45.2102 228.181 45.2803 228.244C45.3568 228.308 45.497 228.34 45.7009 228.34H46.5611V229.955ZM46.5611 226.61H42.6709V225.138H46.5611V226.61Z" fill="#FFF3E5"/>
<path d="M42.495 229.955H40.8127V228.885H40.7172V227.174C40.7172 226.932 40.6534 226.779 40.526 226.715C40.4049 226.645 40.1851 226.61 39.8665 226.61C39.5733 226.61 39.3694 226.645 39.2547 226.715C39.1464 226.785 39.0922 226.922 39.0922 227.126V227.164H37.2953V227.145C37.2953 226.718 37.4068 226.349 37.6298 226.037C37.8529 225.718 38.1683 225.473 38.5761 225.301C38.9839 225.129 39.4586 225.042 40.0003 225.042C40.561 225.042 41.0262 225.132 41.3958 225.31C41.7654 225.482 42.0394 225.731 42.2178 226.056C42.4026 226.374 42.495 226.76 42.495 227.212V229.955ZM38.9011 230.051C38.3594 230.051 37.9389 229.933 37.6394 229.697C37.3463 229.462 37.1997 229.14 37.1997 228.732C37.1997 228.503 37.2539 228.299 37.3622 228.12C37.4705 227.942 37.6394 227.798 37.8688 227.69C38.0982 227.575 38.3945 227.499 38.7577 227.461L40.8127 227.26V228.254L39.2356 228.436C39.1528 228.442 39.0922 228.461 39.054 228.493C39.0222 228.525 39.0062 228.566 39.0062 228.617C39.0062 228.694 39.0413 228.745 39.1114 228.77C39.1878 228.789 39.2962 228.799 39.4363 228.799C39.755 228.799 40.0067 228.783 40.1915 228.751C40.3762 228.713 40.5101 228.646 40.5929 228.55C40.6757 228.455 40.7172 228.318 40.7172 228.139L40.851 228.101V228.942H40.7172C40.6279 229.28 40.4336 229.551 40.1341 229.755C39.8346 229.952 39.4236 230.051 38.9011 230.051Z" fill="#FFF3E5"/>
<path d="M27.9621 230.051C27.4205 230.051 26.9394 229.968 26.5188 229.803C26.0983 229.637 25.7701 229.369 25.5343 229C25.2986 228.63 25.1807 228.146 25.1807 227.547C25.1807 227.024 25.2986 226.578 25.5343 226.209C25.7701 225.833 26.0919 225.546 26.4997 225.348C26.9139 225.144 27.3886 225.042 27.9239 225.042C28.4783 225.042 28.9594 225.135 29.3672 225.32C29.775 225.498 30.0904 225.766 30.3135 226.123C30.5365 226.473 30.648 226.906 30.648 227.422C30.648 227.505 30.6448 227.582 30.6385 227.652C30.6385 227.716 30.6321 227.792 30.6193 227.881H26.3563V226.973H29.3194L28.9275 227.537C28.9275 227.48 28.9275 227.426 28.9275 227.375C28.9275 227.317 28.9275 227.26 28.9275 227.203C28.9275 226.91 28.8511 226.706 28.6981 226.591C28.5516 226.476 28.2807 226.419 27.8857 226.419C27.4778 226.419 27.2007 226.483 27.0541 226.61C26.9139 226.737 26.8438 226.967 26.8438 227.298V227.757C26.8438 228.095 26.9171 228.324 27.0636 228.445C27.2102 228.566 27.4874 228.627 27.8952 228.627C28.2584 228.627 28.5006 228.595 28.6217 228.531C28.7491 228.461 28.8128 228.356 28.8128 228.216V228.111H30.6098V228.225C30.6098 228.582 30.5014 228.898 30.2848 229.172C30.0681 229.446 29.7623 229.662 29.3672 229.822C28.9721 229.975 28.5038 230.051 27.9621 230.051Z" fill="#FFF3E5"/>
<path d="M21.1168 230.051C20.6707 230.051 20.3011 229.971 20.008 229.812C19.7149 229.653 19.495 229.436 19.3485 229.162C19.2083 228.888 19.1382 228.576 19.1382 228.225V225.138H20.9351V227.566C20.9351 227.897 21.0116 228.127 21.1645 228.254C21.3238 228.381 21.6074 228.445 22.0152 228.445C22.4294 228.445 22.7034 228.388 22.8372 228.273C22.9774 228.152 23.0475 227.935 23.0475 227.623H23.2291L23.3821 228.493H23.0666C23.0348 228.761 22.9488 229.012 22.8086 229.248C22.6684 229.484 22.4613 229.678 22.1873 229.831C21.9133 229.978 21.5564 230.051 21.1168 230.051ZM24.8445 229.955H23.1622V228.474L23.0475 228.426V225.138H24.8445V229.955Z" fill="#FFF3E5"/>
<path d="M18.7063 229.955H16.9093V227.528C16.9093 227.19 16.8329 226.96 16.6799 226.839C16.527 226.712 16.2434 226.648 15.8293 226.648C15.5553 226.648 15.3418 226.674 15.1888 226.725C15.0423 226.776 14.9403 226.862 14.883 226.983C14.8256 227.097 14.797 227.26 14.797 227.47H14.5771V226.6H14.8925C14.9435 226.326 15.0391 226.071 15.1793 225.836C15.3259 225.6 15.5329 225.409 15.8006 225.262C16.0682 225.116 16.4059 225.042 16.8138 225.042C17.2407 225.042 17.5944 225.125 17.8747 225.291C18.1551 225.457 18.3622 225.683 18.496 225.97C18.6362 226.25 18.7063 226.569 18.7063 226.925V229.955ZM14.797 229.955H13V223.551H14.797V229.955Z" fill="#FFF3E5"/>
<path d="M33.7673 229.955H32.7969C32.2211 229.955 31.7679 229.807 31.4371 229.511C31.1125 229.215 30.9502 228.759 30.9502 228.142V223.553H32.6774V227.887C32.6774 228.076 32.7111 228.202 32.7785 228.265C32.852 228.328 32.9867 228.359 33.1827 228.359H33.7673V229.955Z" fill="#FFF3E5"/>
<path d="M36.9026 229.955H35.9321C35.3564 229.955 34.9031 229.807 34.5724 229.511C34.2478 229.215 34.0854 228.759 34.0854 228.142V223.553H35.8127V227.887C35.8127 228.076 35.8464 228.202 35.9137 228.265C35.9872 228.328 36.122 228.359 36.318 228.359H36.9026V229.955Z" fill="#FFF3E5"/>
<rect x="443.5" y="4.5" width="505" height="235" stroke="white"/>
<path d="M480.217 232.038H479.879L480.469 230.689H480.9L481.494 232.038H481.148L480.777 231.174L480.695 230.965H480.672L480.59 231.174L480.217 232.038ZM481.152 231.74H480.201V231.468H481.152V231.74Z" fill="#FFF3E5"/>
<path d="M478.81 232.038H478.508V230.689H478.83L479.313 231.327L479.499 231.611H479.521L479.507 231.339V230.689H479.809V232.038H479.487L478.989 231.394L478.818 231.14H478.798L478.81 231.388V232.038Z" fill="#FFF3E5"/>
<path d="M478.349 232.038H478.047V230.689H478.349V232.038Z" fill="#FFF3E5"/>
<path d="M477.366 232.038H477.064V230.689H477.366V232.038ZM477.867 230.961H476.562V230.689H477.867V230.961Z" fill="#FFF3E5"/>
<path d="M475.556 232.038H475.217L475.807 230.689H476.238L476.833 232.038H476.486L476.116 231.174L476.033 230.965H476.011L475.928 231.174L475.556 232.038ZM476.49 231.74H475.54V231.468H476.49V231.74Z" fill="#FFF3E5"/>
<path d="M474.31 232.038H474.008V230.689H474.31V232.038ZM475.114 232.038H474.093V231.766H475.114V232.038Z" fill="#FFF3E5"/>
<path d="M473.646 231.573H472.895V231.313H473.646V231.573Z" fill="#FFF3E5"/>
<path d="M471.864 232.058C471.717 232.058 471.588 232.03 471.478 231.974C471.369 231.916 471.285 231.836 471.226 231.732C471.168 231.627 471.139 231.505 471.139 231.364C471.139 231.223 471.168 231.1 471.226 230.997C471.285 230.892 471.369 230.812 471.478 230.755C471.588 230.698 471.717 230.669 471.864 230.669C472.017 230.669 472.148 230.698 472.257 230.755C472.366 230.812 472.45 230.892 472.509 230.997C472.568 231.1 472.597 231.223 472.597 231.364C472.597 231.505 472.568 231.627 472.509 231.732C472.45 231.836 472.366 231.916 472.257 231.974C472.148 232.03 472.017 232.058 471.864 232.058ZM471.864 231.768C471.964 231.768 472.043 231.756 472.102 231.73C472.162 231.703 472.206 231.66 472.233 231.601C472.261 231.542 472.275 231.463 472.275 231.364C472.275 231.263 472.261 231.184 472.233 231.126C472.206 231.067 472.162 231.025 472.102 230.999C472.043 230.972 471.964 230.959 471.864 230.959C471.766 230.959 471.688 230.972 471.629 230.999C471.57 231.025 471.527 231.067 471.5 231.126C471.473 231.184 471.459 231.263 471.459 231.364C471.459 231.463 471.473 231.542 471.5 231.601C471.527 231.66 471.57 231.703 471.629 231.73C471.688 231.756 471.766 231.768 471.864 231.768Z" fill="#FFF3E5"/>
<path d="M470.482 232.058C470.347 232.058 470.231 232.041 470.136 232.006C470.04 231.97 469.968 231.917 469.918 231.847C469.868 231.776 469.844 231.688 469.844 231.583V231.571H470.146V231.607C470.146 231.649 470.154 231.683 470.172 231.708C470.191 231.734 470.224 231.752 470.273 231.764C470.321 231.777 470.391 231.783 470.482 231.783C470.563 231.783 470.624 231.779 470.667 231.77C470.71 231.761 470.74 231.747 470.756 231.728C470.772 231.709 470.78 231.685 470.78 231.656C470.78 231.614 470.766 231.584 470.738 231.565C470.711 231.546 470.663 231.531 470.595 231.519L470.216 231.464C470.136 231.451 470.067 231.429 470.009 231.398C469.952 231.367 469.909 231.326 469.878 231.275C469.847 231.223 469.832 231.159 469.832 231.086C469.832 231.035 469.842 230.984 469.864 230.935C469.887 230.885 469.922 230.841 469.971 230.802C470.019 230.761 470.082 230.729 470.16 230.705C470.239 230.681 470.336 230.669 470.45 230.669C470.588 230.669 470.702 230.689 470.79 230.729C470.88 230.768 470.947 230.824 470.992 230.896C471.036 230.967 471.058 231.05 471.058 231.144V231.156H470.754V231.128C470.754 231.085 470.745 231.05 470.726 231.023C470.708 230.996 470.675 230.977 470.627 230.965C470.579 230.951 470.51 230.945 470.42 230.945C470.347 230.945 470.29 230.949 470.248 230.959C470.208 230.968 470.179 230.982 470.162 231.001C470.144 231.02 470.136 231.044 470.136 231.074C470.136 231.099 470.141 231.121 470.152 231.138C470.163 231.154 470.179 231.167 470.202 231.176C470.225 231.186 470.255 231.194 470.293 231.2L470.671 231.261C470.772 231.277 470.852 231.303 470.911 231.339C470.972 231.376 471.015 231.42 471.042 231.472C471.069 231.523 471.082 231.58 471.082 231.642C471.082 231.714 471.062 231.783 471.022 231.847C470.982 231.91 470.917 231.961 470.829 232C470.74 232.039 470.624 232.058 470.482 232.058Z" fill="#FFF3E5"/>
<path d="M469.055 232.058C468.909 232.058 468.787 232.035 468.689 231.988C468.591 231.941 468.517 231.874 468.467 231.786C468.417 231.699 468.393 231.595 468.393 231.474V230.689H468.695V231.452C468.695 231.529 468.705 231.59 468.727 231.637C468.75 231.683 468.787 231.716 468.84 231.736C468.893 231.755 468.965 231.764 469.055 231.764C469.148 231.764 469.22 231.755 469.273 231.736C469.325 231.716 469.362 231.683 469.384 231.637C469.405 231.59 469.416 231.529 469.416 231.452V230.689H469.718V231.474C469.718 231.595 469.693 231.699 469.643 231.786C469.594 231.874 469.52 231.941 469.422 231.988C469.325 232.035 469.203 232.058 469.055 232.058Z" fill="#FFF3E5"/>
<path d="M467.55 232.038H467.248V230.689H467.55V232.038ZM468.353 232.038H467.332V231.766H468.353V232.038Z" fill="#FFF3E5"/>
<path d="M465.445 232.038H465.106L465.697 230.689H466.128L466.722 232.038H466.375L466.005 231.174L465.922 230.965H465.9L465.817 231.174L465.445 232.038ZM466.379 231.74H465.429V231.468H466.379V231.74Z" fill="#FFF3E5"/>
<path d="M464.862 232.038H464.431L463.871 230.689H464.236L464.641 231.732H464.661L465.059 230.689H465.422L464.862 232.038Z" fill="#FFF3E5"/>
<path d="M463.737 232.038H463.435V230.689H463.737V232.038Z" fill="#FFF3E5"/>
<path d="M462.825 232.038H462.523V230.689H462.825V232.038ZM463.327 230.961H462.021V230.689H463.327V230.961Z" fill="#FFF3E5"/>
<path d="M460.979 232.038H460.641L461.231 230.689H461.662L462.256 232.038H461.91L461.539 231.174L461.457 230.965H461.435L461.352 231.174L460.979 232.038ZM461.914 231.74H460.963V231.468H461.914V231.74Z" fill="#FFF3E5"/>
<path d="M459.567 232.038H459.265V230.689H460.01C460.121 230.689 460.216 230.705 460.294 230.737C460.372 230.768 460.431 230.814 460.471 230.874C460.511 230.934 460.532 231.008 460.532 231.094C460.532 231.167 460.517 231.231 460.489 231.283C460.461 231.335 460.419 231.378 460.362 231.41C460.306 231.441 460.235 231.46 460.151 231.468V231.484C460.211 231.5 460.256 231.525 460.286 231.557C460.315 231.589 460.343 231.629 460.368 231.676L460.564 232.038H460.213L460.028 231.688C460.009 231.653 459.99 231.625 459.97 231.605C459.949 231.585 459.923 231.571 459.891 231.563C459.86 231.553 459.819 231.549 459.766 231.549H459.567V232.038ZM459.567 230.961V231.321H460.008C460.079 231.321 460.131 231.309 460.165 231.285C460.199 231.259 460.215 231.211 460.215 231.14C460.215 231.073 460.199 231.026 460.165 231.001C460.131 230.974 460.079 230.961 460.008 230.961H459.567Z" fill="#FFF3E5"/>
<path d="M458.288 232.038H457.986V230.689H458.288V232.038ZM459.128 232.038H458.071V231.766H459.128V232.038ZM459.098 231.494H458.071V231.224H459.098V231.494ZM459.128 230.961H458.071V230.689H459.128V230.961Z" fill="#FFF3E5"/>
<path d="M457.366 231.666H456.765V231.394H457.333C457.418 231.394 457.48 231.379 457.519 231.349C457.559 231.318 457.579 231.261 457.579 231.176C457.579 231.094 457.559 231.038 457.519 231.007C457.48 230.976 457.418 230.961 457.333 230.961H456.765V230.689H457.366C457.47 230.689 457.561 230.708 457.638 230.747C457.714 230.785 457.773 230.84 457.815 230.912C457.858 230.985 457.879 231.073 457.879 231.176C457.879 231.28 457.858 231.368 457.815 231.442C457.773 231.515 457.714 231.57 457.638 231.609C457.561 231.647 457.47 231.666 457.366 231.666ZM456.963 232.038H456.661V230.689H456.963V232.038Z" fill="#FFF3E5"/>
<path d="M455.795 232.058C455.648 232.058 455.519 232.03 455.409 231.974C455.3 231.916 455.216 231.836 455.157 231.732C455.099 231.627 455.07 231.505 455.07 231.364C455.07 231.223 455.099 231.1 455.157 230.997C455.216 230.892 455.3 230.812 455.409 230.755C455.519 230.698 455.648 230.669 455.795 230.669C455.948 230.669 456.079 230.698 456.188 230.755C456.297 230.812 456.381 230.892 456.44 230.997C456.499 231.1 456.529 231.223 456.529 231.364C456.529 231.505 456.499 231.627 456.44 231.732C456.381 231.836 456.297 231.916 456.188 231.974C456.079 232.03 455.948 232.058 455.795 232.058ZM455.795 231.768C455.895 231.768 455.974 231.756 456.033 231.73C456.094 231.703 456.137 231.66 456.164 231.601C456.192 231.542 456.206 231.463 456.206 231.364C456.206 231.263 456.192 231.184 456.164 231.126C456.137 231.067 456.094 231.025 456.033 230.999C455.974 230.972 455.895 230.959 455.795 230.959C455.697 230.959 455.619 230.972 455.56 230.999C455.501 231.025 455.458 231.067 455.431 231.126C455.404 231.184 455.391 231.263 455.391 231.364C455.391 231.463 455.404 231.542 455.431 231.601C455.458 231.66 455.501 231.703 455.56 231.73C455.619 231.756 455.697 231.768 455.795 231.768Z" fill="#FFF3E5"/>
<path d="M454.236 232.058C454.088 232.058 453.959 232.03 453.849 231.974C453.74 231.916 453.656 231.836 453.597 231.732C453.54 231.627 453.511 231.505 453.511 231.364C453.511 231.223 453.54 231.1 453.597 230.997C453.656 230.892 453.74 230.812 453.849 230.755C453.959 230.698 454.088 230.669 454.236 230.669C454.389 230.669 454.52 230.698 454.629 230.755C454.737 230.812 454.821 230.892 454.88 230.997C454.939 231.1 454.969 231.223 454.969 231.364C454.969 231.505 454.939 231.627 454.88 231.732C454.821 231.836 454.737 231.916 454.629 231.974C454.52 232.03 454.389 232.058 454.236 232.058ZM454.236 231.768C454.335 231.768 454.414 231.756 454.474 231.73C454.534 231.703 454.578 231.66 454.604 231.601C454.633 231.542 454.647 231.463 454.647 231.364C454.647 231.263 454.633 231.184 454.604 231.126C454.578 231.067 454.534 231.025 454.474 230.999C454.414 230.972 454.335 230.959 454.236 230.959C454.138 230.959 454.059 230.972 454 230.999C453.941 231.025 453.898 231.067 453.871 231.126C453.844 231.184 453.831 231.263 453.831 231.364C453.831 231.463 453.844 231.542 453.871 231.601C453.898 231.66 453.941 231.703 454 231.73C454.059 231.756 454.138 231.768 454.236 231.768Z" fill="#FFF3E5"/>
<path d="M452.721 232.058C452.573 232.058 452.445 232.03 452.336 231.974C452.229 231.916 452.146 231.836 452.087 231.732C452.029 231.627 452 231.505 452 231.364C452 231.223 452.029 231.1 452.087 230.997C452.146 230.892 452.229 230.812 452.336 230.755C452.445 230.698 452.573 230.669 452.721 230.669C452.862 230.669 452.984 230.691 453.086 230.735C453.189 230.779 453.269 230.843 453.325 230.925C453.382 231.006 453.41 231.105 453.41 231.221V231.251H453.074V231.221C453.074 231.132 453.046 231.066 452.991 231.023C452.937 230.98 452.849 230.959 452.727 230.959C452.629 230.959 452.55 230.972 452.489 230.999C452.43 231.025 452.387 231.067 452.361 231.126C452.334 231.184 452.32 231.263 452.32 231.364C452.32 231.463 452.334 231.542 452.361 231.601C452.387 231.66 452.43 231.703 452.489 231.73C452.55 231.756 452.629 231.768 452.727 231.768C452.849 231.768 452.937 231.747 452.991 231.704C453.046 231.661 453.074 231.595 453.074 231.507V231.476H453.41V231.507C453.41 231.621 453.382 231.719 453.325 231.803C453.269 231.885 453.189 231.948 453.086 231.992C452.984 232.036 452.862 232.058 452.721 232.058Z" fill="#FFF3E5"/>
<path d="M499.508 229.404H497.826V228.333H497.73V226.622C497.73 226.38 497.667 226.227 497.539 226.164C497.418 226.094 497.198 226.059 496.88 226.059C496.587 226.059 496.383 226.094 496.268 226.164C496.16 226.234 496.105 226.371 496.105 226.575V226.613H494.308V226.594C494.308 226.167 494.42 225.797 494.643 225.485C494.866 225.166 495.181 224.921 495.589 224.749C495.997 224.577 496.472 224.491 497.013 224.491C497.574 224.491 498.039 224.58 498.409 224.759C498.779 224.931 499.053 225.179 499.231 225.504C499.416 225.823 499.508 226.208 499.508 226.661V229.404ZM495.914 229.5C495.373 229.5 494.952 229.382 494.653 229.146C494.359 228.91 494.213 228.588 494.213 228.18C494.213 227.951 494.267 227.747 494.375 227.569C494.484 227.39 494.653 227.247 494.882 227.139C495.111 227.024 495.408 226.947 495.771 226.909L497.826 226.708V227.703L496.249 227.884C496.166 227.891 496.105 227.91 496.067 227.942C496.035 227.973 496.019 228.015 496.019 228.066C496.019 228.142 496.054 228.193 496.125 228.219C496.201 228.238 496.309 228.247 496.45 228.247C496.768 228.247 497.02 228.231 497.205 228.2C497.389 228.161 497.523 228.094 497.606 227.999C497.689 227.903 497.73 227.766 497.73 227.588L497.864 227.55V228.391H497.73C497.641 228.728 497.447 228.999 497.147 229.203C496.848 229.401 496.437 229.5 495.914 229.5Z" fill="#FFF3E5"/>
<path d="M493.889 229.404H492.092V226.976C492.092 226.638 492.018 226.409 491.872 226.288C491.725 226.16 491.454 226.097 491.059 226.097C490.664 226.097 490.4 226.157 490.266 226.278C490.139 226.393 490.075 226.607 490.075 226.919H489.893L489.74 226.049H490.056C490.094 225.781 490.18 225.53 490.314 225.294C490.454 225.058 490.658 224.867 490.925 224.72C491.199 224.567 491.55 224.491 491.977 224.491C492.41 224.491 492.767 224.571 493.047 224.73C493.334 224.889 493.544 225.106 493.678 225.38C493.818 225.654 493.889 225.966 493.889 226.317V229.404ZM490.075 229.404H488.278V224.587H489.96V226.068L490.075 226.116V229.404Z" fill="#FFF3E5"/>
<path d="M487.803 229.404H486.006V224.587H487.803V229.404ZM487.803 224.147H486.006V223H487.803V224.147Z" fill="#FFF3E5"/>
<path d="M485.561 229.404H484.299C483.7 229.404 483.229 229.254 482.885 228.955C482.547 228.655 482.378 228.193 482.378 227.569V223.755H484.175V227.311C484.175 227.502 484.21 227.629 484.28 227.693C484.357 227.757 484.497 227.789 484.701 227.789H485.561V229.404ZM485.561 226.059H481.671V224.587H485.561V226.059Z" fill="#FFF3E5"/>
<path d="M481.495 229.404H479.813V228.333H479.717V226.622C479.717 226.38 479.653 226.227 479.526 226.164C479.405 226.094 479.185 226.059 478.866 226.059C478.573 226.059 478.369 226.094 478.255 226.164C478.146 226.234 478.092 226.371 478.092 226.575V226.613H476.295V226.594C476.295 226.167 476.407 225.797 476.63 225.485C476.853 225.166 477.168 224.921 477.576 224.749C477.984 224.577 478.459 224.491 479 224.491C479.561 224.491 480.026 224.58 480.396 224.759C480.765 224.931 481.039 225.179 481.218 225.504C481.403 225.823 481.495 226.208 481.495 226.661V229.404ZM477.901 229.5C477.359 229.5 476.939 229.382 476.639 229.146C476.346 228.91 476.2 228.588 476.2 228.18C476.2 227.951 476.254 227.747 476.362 227.569C476.471 227.39 476.639 227.247 476.869 227.139C477.098 227.024 477.394 226.947 477.758 226.909L479.813 226.708V227.703L478.236 227.884C478.153 227.891 478.092 227.91 478.054 227.942C478.022 227.973 478.006 228.015 478.006 228.066C478.006 228.142 478.041 228.193 478.111 228.219C478.188 228.238 478.296 228.247 478.436 228.247C478.755 228.247 479.007 228.231 479.191 228.2C479.376 228.161 479.51 228.094 479.593 227.999C479.676 227.903 479.717 227.766 479.717 227.588L479.851 227.55V228.391H479.717C479.628 228.728 479.434 228.999 479.134 229.203C478.835 229.401 478.424 229.5 477.901 229.5Z" fill="#FFF3E5"/>
<path d="M466.962 229.5C466.42 229.5 465.939 229.417 465.519 229.251C465.098 229.086 464.77 228.818 464.534 228.448C464.299 228.079 464.181 227.594 464.181 226.995C464.181 226.473 464.299 226.027 464.534 225.657C464.77 225.281 465.092 224.995 465.5 224.797C465.914 224.593 466.389 224.491 466.924 224.491C467.478 224.491 467.959 224.584 468.367 224.768C468.775 224.947 469.09 225.214 469.313 225.571C469.536 225.922 469.648 226.355 469.648 226.871C469.648 226.954 469.645 227.031 469.638 227.101C469.638 227.164 469.632 227.241 469.619 227.33H465.356V226.422H468.319L467.928 226.986C467.928 226.929 467.928 226.874 467.928 226.823C467.928 226.766 467.928 226.709 467.928 226.651C467.928 226.358 467.851 226.154 467.698 226.04C467.552 225.925 467.281 225.868 466.886 225.868C466.478 225.868 466.201 225.931 466.054 226.059C465.914 226.186 465.844 226.416 465.844 226.747V227.206C465.844 227.543 465.917 227.773 466.064 227.894C466.21 228.015 466.487 228.076 466.895 228.076C467.258 228.076 467.501 228.044 467.622 227.98C467.749 227.91 467.813 227.805 467.813 227.665V227.559H469.61V227.674C469.61 228.031 469.501 228.346 469.285 228.62C469.068 228.894 468.762 229.111 468.367 229.27C467.972 229.423 467.504 229.5 466.962 229.5Z" fill="#FFF3E5"/>
<path d="M460.117 229.5C459.671 229.5 459.301 229.42 459.008 229.261C458.715 229.101 458.495 228.885 458.348 228.611C458.208 228.337 458.138 228.024 458.138 227.674V224.587H459.935V227.014C459.935 227.346 460.012 227.575 460.165 227.703C460.324 227.83 460.607 227.894 461.015 227.894C461.429 227.894 461.703 227.836 461.837 227.722C461.977 227.601 462.048 227.384 462.048 227.072H462.229L462.382 227.942H462.067C462.035 228.209 461.949 228.461 461.809 228.697C461.668 228.933 461.461 229.127 461.187 229.28C460.913 229.426 460.556 229.5 460.117 229.5ZM463.844 229.404H462.162V227.923L462.048 227.875V224.587H463.844V229.404Z" fill="#FFF3E5"/>
<path d="M457.706 229.404H455.909V226.976C455.909 226.639 455.833 226.409 455.68 226.288C455.527 226.161 455.243 226.097 454.829 226.097C454.555 226.097 454.342 226.122 454.189 226.173C454.042 226.224 453.94 226.31 453.883 226.431C453.826 226.546 453.797 226.709 453.797 226.919H453.577V226.049H453.893C453.944 225.775 454.039 225.52 454.179 225.284C454.326 225.049 454.533 224.857 454.801 224.711C455.068 224.564 455.406 224.491 455.814 224.491C456.241 224.491 456.594 224.574 456.875 224.74C457.155 224.905 457.362 225.132 457.496 225.418C457.636 225.699 457.706 226.017 457.706 226.374V229.404ZM453.797 229.404H452V223H453.797V229.404Z" fill="#FFF3E5"/>
<path d="M472.767 229.404H471.797C471.221 229.404 470.768 229.256 470.437 228.96C470.113 228.664 469.95 228.208 469.95 227.59V223.002H471.677V227.335C471.677 227.524 471.711 227.65 471.778 227.713C471.852 227.776 471.987 227.808 472.183 227.808H472.767V229.404Z" fill="#FFF3E5"/>
<path d="M475.903 229.404H474.932C474.356 229.404 473.903 229.256 473.572 228.96C473.248 228.664 473.085 228.208 473.085 227.59V223.002H474.813V227.335C474.813 227.524 474.846 227.65 474.914 227.713C474.987 227.776 475.122 227.808 475.318 227.808H475.903V229.404Z" fill="#FFF3E5"/>
<circle cx="443" cy="240" r="5" fill="#FF00DD"/>
<circle cx="443" cy="5" r="5" fill="#FF00DD"/>
<circle cx="188" cy="5" r="5" fill="#FF00DD"/>
<circle cx="188" cy="240" r="5" fill="#FF00DD"/>
<circle cx="5" cy="240" r="5" fill="#FF00DD"/>
<circle cx="5" cy="5" r="5" fill="#FF00DD"/>
</svg>
