<svg width="944" height="236" viewBox="0 0 944 236" fill="none" xmlns="http://www.w3.org/2000/svg">
<rect x="183.5" y="0.5" width="235" height="235" stroke="white"/>
<path d="M320.504 138.802H318.939L321.668 132.561H323.662L326.41 138.802H324.808L323.094 134.806L322.712 133.837H322.609L322.227 134.806L320.504 138.802ZM324.826 137.423H320.429V136.166H324.826V137.423Z" fill="#FFF3E5"/>
<path d="M313.996 138.802H312.599V132.561H314.089L316.325 135.514L317.182 136.827H317.284L317.219 135.569V132.561H318.617V138.802H317.126L314.825 135.821L314.033 134.647H313.94L313.996 135.793V138.802Z" fill="#FFF3E5"/>
<path d="M311.868 138.802H310.47V132.561H311.868V138.802Z" fill="#FFF3E5"/>
<path d="M307.315 138.802H305.918V132.561H307.315V138.802ZM309.635 133.818H303.598V132.561H309.635V133.818Z" fill="#FFF3E5"/>
<path d="M298.945 138.802H297.38L300.11 132.561H302.103L304.851 138.802H303.249L301.535 134.806L301.153 133.837H301.051L300.669 134.806L298.945 138.802ZM303.268 137.423H298.871V136.166H303.268V137.423Z" fill="#FFF3E5"/>
<path d="M293.186 138.802H291.789V132.561H293.186V138.802ZM296.903 138.802H292.18V137.544H296.903V138.802Z" fill="#FFF3E5"/>
<path d="M290.114 136.65H286.639V135.448H290.114V136.65Z" fill="#FFF3E5"/>
<path d="M281.873 138.895C281.19 138.895 280.593 138.765 280.084 138.504C279.581 138.237 279.193 137.864 278.92 137.386C278.653 136.902 278.519 136.333 278.519 135.681C278.519 135.029 278.653 134.464 278.92 133.986C279.193 133.501 279.581 133.129 280.084 132.868C280.593 132.601 281.19 132.467 281.873 132.467C282.581 132.467 283.186 132.601 283.689 132.868C284.192 133.129 284.58 133.501 284.854 133.986C285.127 134.464 285.264 135.029 285.264 135.681C285.264 136.333 285.127 136.902 284.854 137.386C284.58 137.864 284.192 138.237 283.689 138.504C283.186 138.765 282.581 138.895 281.873 138.895ZM281.873 137.554C282.332 137.554 282.699 137.495 282.972 137.377C283.251 137.252 283.453 137.054 283.577 136.78C283.708 136.507 283.773 136.141 283.773 135.681C283.773 135.215 283.708 134.849 283.577 134.582C283.453 134.309 283.251 134.113 282.972 133.995C282.699 133.871 282.332 133.809 281.873 133.809C281.419 133.809 281.056 133.871 280.783 133.995C280.509 134.113 280.311 134.309 280.187 134.582C280.062 134.849 280 135.215 280 135.681C280 136.141 280.062 136.507 280.187 136.78C280.311 137.054 280.509 137.252 280.783 137.377C281.056 137.495 281.419 137.554 281.873 137.554Z" fill="#FFF3E5"/>
<path d="M275.481 138.895C274.853 138.895 274.319 138.814 273.878 138.653C273.437 138.485 273.102 138.24 272.872 137.917C272.642 137.588 272.528 137.181 272.528 136.697V136.641H273.925V136.808C273.925 137.001 273.965 137.156 274.046 137.274C274.133 137.392 274.288 137.479 274.512 137.535C274.735 137.591 275.058 137.619 275.481 137.619C275.853 137.619 276.139 137.6 276.338 137.563C276.536 137.519 276.673 137.454 276.748 137.367C276.822 137.28 276.859 137.169 276.859 137.032C276.859 136.839 276.794 136.7 276.664 136.613C276.539 136.526 276.319 136.454 276.002 136.398L274.251 136.147C273.878 136.085 273.558 135.982 273.291 135.84C273.031 135.697 272.829 135.507 272.686 135.271C272.543 135.029 272.472 134.737 272.472 134.396C272.472 134.16 272.521 133.927 272.621 133.697C272.726 133.467 272.891 133.262 273.114 133.082C273.338 132.896 273.63 132.747 273.99 132.635C274.357 132.523 274.804 132.467 275.332 132.467C275.971 132.467 276.496 132.56 276.906 132.747C277.322 132.927 277.633 133.185 277.837 133.52C278.042 133.849 278.145 134.231 278.145 134.666V134.722H276.738V134.591C276.738 134.393 276.695 134.231 276.608 134.107C276.527 133.983 276.375 133.893 276.151 133.837C275.928 133.775 275.608 133.744 275.192 133.744C274.856 133.744 274.593 133.765 274.4 133.809C274.214 133.852 274.08 133.917 273.999 134.004C273.919 134.091 273.878 134.203 273.878 134.34C273.878 134.458 273.903 134.557 273.953 134.638C274.003 134.712 274.08 134.771 274.186 134.815C274.291 134.858 274.431 134.896 274.605 134.927L276.356 135.206C276.822 135.281 277.192 135.402 277.465 135.569C277.744 135.737 277.946 135.942 278.07 136.184C278.195 136.42 278.257 136.681 278.257 136.967C278.257 137.302 278.164 137.619 277.977 137.917C277.791 138.209 277.493 138.445 277.083 138.625C276.673 138.805 276.139 138.895 275.481 138.895Z" fill="#FFF3E5"/>
<path d="M268.881 138.895C268.204 138.895 267.639 138.786 267.185 138.569C266.732 138.352 266.39 138.041 266.161 137.638C265.931 137.234 265.816 136.753 265.816 136.194V132.561H267.213V136.091C267.213 136.445 267.263 136.731 267.362 136.948C267.468 137.159 267.642 137.312 267.884 137.405C268.132 137.492 268.465 137.535 268.881 137.535C269.309 137.535 269.645 137.492 269.887 137.405C270.129 137.312 270.3 137.159 270.399 136.948C270.499 136.731 270.548 136.445 270.548 136.091V132.561H271.946V136.194C271.946 136.753 271.831 137.234 271.601 137.638C271.371 138.041 271.03 138.352 270.576 138.569C270.129 138.786 269.564 138.895 268.881 138.895Z" fill="#FFF3E5"/>
<path d="M261.917 138.802H260.52V132.561H261.917V138.802ZM265.634 138.802H260.911V137.544H265.634V138.802Z" fill="#FFF3E5"/>
<path d="M252.182 138.802H250.617L253.346 132.561H255.34L258.088 138.802H256.486L254.771 134.806L254.39 133.837H254.287L253.905 134.806L252.182 138.802ZM256.504 137.423H252.107V136.166H256.504V137.423Z" fill="#FFF3E5"/>
<path d="M249.486 138.802H247.493L244.903 132.561H246.589L248.461 137.386H248.555L250.399 132.561H252.076L249.486 138.802Z" fill="#FFF3E5"/>
<path d="M244.285 138.802H242.887V132.561H244.285V138.802Z" fill="#FFF3E5"/>
<path d="M240.067 138.802H238.669V132.561H240.067V138.802ZM242.386 133.818H236.35V132.561H242.386V133.818Z" fill="#FFF3E5"/>
<path d="M231.529 138.802H229.964L232.694 132.561H234.687L237.435 138.802H235.833L234.119 134.806L233.737 133.837H233.635L233.253 134.806L231.529 138.802ZM235.852 137.423H231.455V136.166H235.852V137.423Z" fill="#FFF3E5"/>
<path d="M224.997 138.802H223.6V132.561H227.046C227.562 132.561 228 132.635 228.36 132.784C228.72 132.927 228.993 133.138 229.18 133.418C229.366 133.697 229.459 134.036 229.459 134.433C229.459 134.775 229.394 135.066 229.264 135.309C229.133 135.551 228.937 135.746 228.677 135.896C228.416 136.038 228.09 136.128 227.698 136.166V136.24C227.978 136.315 228.186 136.427 228.323 136.576C228.459 136.725 228.587 136.908 228.705 137.125L229.608 138.802H227.987L227.13 137.181C227.043 137.02 226.953 136.892 226.86 136.799C226.767 136.706 226.646 136.641 226.497 136.604C226.354 136.56 226.161 136.538 225.919 136.538H224.997V138.802ZM224.997 133.818V135.486H227.037C227.366 135.486 227.608 135.43 227.764 135.318C227.919 135.2 227.997 134.976 227.997 134.647C227.997 134.337 227.919 134.122 227.764 134.004C227.608 133.88 227.366 133.818 227.037 133.818H224.997Z" fill="#FFF3E5"/>
<path d="M219.084 138.802H217.687V132.561H219.084V138.802ZM222.968 138.802H218.078V137.544H222.968V138.802ZM222.829 136.287H218.078V135.038H222.829V136.287ZM222.968 133.818H218.078V132.561H222.968V133.818Z" fill="#FFF3E5"/>
<path d="M214.815 137.079H212.039V135.821H214.666C215.057 135.821 215.343 135.753 215.523 135.616C215.709 135.473 215.803 135.206 215.803 134.815C215.803 134.436 215.709 134.175 215.523 134.032C215.343 133.89 215.057 133.818 214.666 133.818H212.039V132.561H214.815C215.3 132.561 215.719 132.651 216.073 132.831C216.427 133.005 216.7 133.259 216.893 133.595C217.091 133.93 217.191 134.337 217.191 134.815C217.191 135.293 217.091 135.703 216.893 136.045C216.7 136.38 216.427 136.638 216.073 136.818C215.719 136.992 215.3 137.079 214.815 137.079ZM212.952 138.802H211.555V132.561H212.952V138.802Z" fill="#FFF3E5"/>
<path d="M207.554 138.895C206.871 138.895 206.275 138.765 205.766 138.504C205.263 138.237 204.875 137.864 204.601 137.386C204.334 136.902 204.201 136.333 204.201 135.681C204.201 135.029 204.334 134.464 204.601 133.986C204.875 133.501 205.263 133.129 205.766 132.868C206.275 132.601 206.871 132.467 207.554 132.467C208.262 132.467 208.868 132.601 209.371 132.868C209.874 133.129 210.262 133.501 210.535 133.986C210.809 134.464 210.945 135.029 210.945 135.681C210.945 136.333 210.809 136.902 210.535 137.386C210.262 137.864 209.874 138.237 209.371 138.504C208.868 138.765 208.262 138.895 207.554 138.895ZM207.554 137.554C208.014 137.554 208.38 137.495 208.654 137.377C208.933 137.252 209.135 137.054 209.259 136.78C209.389 136.507 209.455 136.141 209.455 135.681C209.455 135.215 209.389 134.849 209.259 134.582C209.135 134.309 208.933 134.113 208.654 133.995C208.38 133.871 208.014 133.809 207.554 133.809C207.101 133.809 206.738 133.871 206.464 133.995C206.191 134.113 205.992 134.309 205.868 134.582C205.744 134.849 205.682 135.215 205.682 135.681C205.682 136.141 205.744 136.507 205.868 136.78C205.992 137.054 206.191 137.252 206.464 137.377C206.738 137.495 207.101 137.554 207.554 137.554Z" fill="#FFF3E5"/>
<path d="M200.34 138.895C199.657 138.895 199.061 138.765 198.552 138.504C198.049 138.237 197.661 137.864 197.387 137.386C197.12 136.902 196.987 136.333 196.987 135.681C196.987 135.029 197.12 134.464 197.387 133.986C197.661 133.501 198.049 133.129 198.552 132.868C199.061 132.601 199.657 132.467 200.34 132.467C201.048 132.467 201.654 132.601 202.157 132.868C202.66 133.129 203.048 133.501 203.321 133.986C203.595 134.464 203.731 135.029 203.731 135.681C203.731 136.333 203.595 136.902 203.321 137.386C203.048 137.864 202.66 138.237 202.157 138.504C201.654 138.765 201.048 138.895 200.34 138.895ZM200.34 137.554C200.8 137.554 201.166 137.495 201.44 137.377C201.719 137.252 201.921 137.054 202.045 136.78C202.176 136.507 202.241 136.141 202.241 135.681C202.241 135.215 202.176 134.849 202.045 134.582C201.921 134.309 201.719 134.113 201.44 133.995C201.166 133.871 200.8 133.809 200.34 133.809C199.887 133.809 199.524 133.871 199.251 133.995C198.977 134.113 198.779 134.309 198.654 134.582C198.53 134.849 198.468 135.215 198.468 135.681C198.468 136.141 198.53 136.507 198.654 136.78C198.779 137.054 198.977 137.252 199.251 137.377C199.524 137.495 199.887 137.554 200.34 137.554Z" fill="#FFF3E5"/>
<path d="M193.335 138.895C192.652 138.895 192.059 138.765 191.556 138.504C191.059 138.237 190.674 137.864 190.401 137.386C190.134 136.902 190 136.333 190 135.681C190 135.029 190.134 134.464 190.401 133.986C190.674 133.501 191.059 133.129 191.556 132.868C192.059 132.601 192.652 132.467 193.335 132.467C193.987 132.467 194.549 132.57 195.021 132.775C195.499 132.98 195.869 133.272 196.13 133.65C196.391 134.029 196.521 134.486 196.521 135.02V135.159H194.965V135.02C194.965 134.61 194.838 134.306 194.583 134.107C194.335 133.908 193.928 133.809 193.363 133.809C192.91 133.809 192.543 133.871 192.264 133.995C191.99 134.113 191.792 134.309 191.667 134.582C191.543 134.849 191.481 135.215 191.481 135.681C191.481 136.141 191.543 136.507 191.667 136.78C191.792 137.054 191.99 137.252 192.264 137.377C192.543 137.495 192.91 137.554 193.363 137.554C193.928 137.554 194.335 137.454 194.583 137.256C194.838 137.057 194.965 136.752 194.965 136.343V136.203H196.521V136.343C196.521 136.87 196.391 137.327 196.13 137.712C195.869 138.091 195.499 138.383 195.021 138.588C194.549 138.793 193.987 138.895 193.335 138.895Z" fill="#FFF3E5"/>
<path d="M409.726 126.619H401.946V121.668H401.504V113.755C401.504 112.635 401.209 111.927 400.619 111.633C400.059 111.309 399.043 111.146 397.569 111.146C396.213 111.146 395.27 111.309 394.74 111.633C394.239 111.957 393.988 112.591 393.988 113.534V113.71H385.677V113.622C385.677 111.647 386.193 109.938 387.225 108.494C388.256 107.02 389.715 105.886 391.601 105.09C393.487 104.294 395.683 103.896 398.188 103.896C400.782 103.896 402.933 104.309 404.642 105.134C406.352 105.93 407.619 107.079 408.444 108.582C409.299 110.056 409.726 111.839 409.726 113.931V126.619ZM393.104 127.061C390.599 127.061 388.654 126.516 387.269 125.425C385.913 124.335 385.235 122.847 385.235 120.96C385.235 119.899 385.486 118.956 385.987 118.131C386.488 117.306 387.269 116.643 388.33 116.142C389.391 115.611 390.761 115.258 392.441 115.081L401.946 114.153V118.75L394.651 119.59C394.268 119.619 393.988 119.708 393.812 119.855C393.664 120.003 393.591 120.194 393.591 120.43C393.591 120.784 393.753 121.019 394.077 121.137C394.43 121.226 394.931 121.27 395.58 121.27C397.053 121.27 398.218 121.196 399.072 121.049C399.927 120.872 400.546 120.563 400.929 120.12C401.312 119.678 401.504 119.045 401.504 118.22L402.122 118.043V121.933H401.504C401.091 123.495 400.192 124.748 398.807 125.691C397.422 126.604 395.521 127.061 393.104 127.061Z" fill="#FFF3E5"/>
<path d="M383.734 126.619H375.423V115.39C375.423 113.828 375.084 112.767 374.406 112.207C373.728 111.618 372.476 111.323 370.648 111.323C368.821 111.323 367.598 111.603 366.979 112.163C366.39 112.694 366.095 113.681 366.095 115.125H365.255L364.548 111.102H366.007C366.184 109.864 366.581 108.7 367.2 107.61C367.849 106.519 368.792 105.635 370.03 104.957C371.297 104.25 372.918 103.896 374.892 103.896C376.896 103.896 378.547 104.265 379.844 105.002C381.17 105.738 382.142 106.74 382.761 108.008C383.41 109.275 383.734 110.719 383.734 112.34V126.619ZM366.095 126.619H357.784V104.339H365.565V111.191L366.095 111.412V126.619Z" fill="#FFF3E5"/>
<path d="M355.589 126.619H347.278V104.338H355.589V126.619ZM355.589 102.305H347.278V97H355.589V102.305Z" fill="#FFF3E5"/>
<path d="M345.219 126.619H339.384C336.614 126.619 334.433 125.926 332.841 124.541C331.279 123.156 330.498 121.019 330.498 118.131V100.492H338.809V116.937C338.809 117.821 338.971 118.411 339.296 118.706C339.649 119 340.298 119.148 341.241 119.148H345.219V126.619ZM345.219 111.146H327.227V104.338H345.219V111.146Z" fill="#FFF3E5"/>
<path d="M326.416 126.619H318.635V121.668H318.193V113.755C318.193 112.635 317.898 111.927 317.309 111.633C316.749 111.309 315.732 111.146 314.259 111.146C312.903 111.146 311.96 111.309 311.429 111.633C310.928 111.957 310.678 112.591 310.678 113.534V113.71H302.367V113.622C302.367 111.647 302.883 109.938 303.914 108.494C304.946 107.02 306.404 105.886 308.291 105.09C310.177 104.294 312.372 103.896 314.877 103.896C317.471 103.896 319.622 104.309 321.332 105.134C323.041 105.93 324.308 107.079 325.134 108.582C325.988 110.056 326.416 111.839 326.416 113.931V126.619ZM309.794 127.061C307.289 127.061 305.343 126.516 303.958 125.425C302.603 124.335 301.925 122.847 301.925 120.96C301.925 119.899 302.175 118.956 302.676 118.131C303.177 117.306 303.958 116.643 305.019 116.142C306.08 115.611 307.451 115.258 309.131 115.081L318.635 114.153V118.75L311.341 119.59C310.958 119.619 310.678 119.708 310.501 119.855C310.354 120.003 310.28 120.194 310.28 120.43C310.28 120.784 310.442 121.019 310.766 121.137C311.12 121.226 311.621 121.27 312.269 121.27C313.743 121.27 314.907 121.196 315.762 121.049C316.616 120.872 317.235 120.563 317.618 120.12C318.001 119.678 318.193 119.045 318.193 118.22L318.812 118.043V121.933H318.193C317.78 123.495 316.882 124.748 315.496 125.691C314.111 126.604 312.21 127.061 309.794 127.061Z" fill="#FFF3E5"/>
<path d="M259.2 127.061C256.695 127.061 254.47 126.678 252.524 125.912C250.579 125.145 249.062 123.908 247.971 122.198C246.881 120.489 246.335 118.249 246.335 115.479C246.335 113.062 246.881 110.999 247.971 109.29C249.062 107.551 250.55 106.225 252.436 105.311C254.352 104.368 256.547 103.896 259.023 103.896C261.587 103.896 263.812 104.324 265.698 105.178C267.584 106.004 269.043 107.241 270.075 108.892C271.106 110.513 271.622 112.517 271.622 114.904C271.622 115.287 271.607 115.641 271.578 115.965C271.578 116.26 271.548 116.613 271.489 117.026H251.773V112.826H265.477L263.665 115.435C263.665 115.169 263.665 114.919 263.665 114.683C263.665 114.418 263.665 114.153 263.665 113.887C263.665 112.532 263.311 111.589 262.604 111.058C261.926 110.528 260.673 110.262 258.846 110.262C256.96 110.262 255.678 110.557 255 111.146C254.352 111.736 254.027 112.797 254.027 114.329V116.451C254.027 118.013 254.366 119.074 255.044 119.634C255.722 120.194 257.004 120.474 258.89 120.474C260.57 120.474 261.69 120.327 262.25 120.032C262.839 119.708 263.134 119.222 263.134 118.573V118.087H271.445V118.617C271.445 120.268 270.944 121.727 269.942 122.994C268.94 124.261 267.525 125.263 265.698 126C263.871 126.707 261.705 127.061 259.2 127.061Z" fill="#FFF3E5"/>
<path d="M227.54 127.061C225.477 127.061 223.767 126.692 222.412 125.956C221.056 125.219 220.039 124.217 219.361 122.95C218.713 121.682 218.389 120.238 218.389 118.617V104.338H226.7V115.567C226.7 117.1 227.053 118.16 227.761 118.75C228.497 119.339 229.809 119.634 231.695 119.634C233.611 119.634 234.878 119.369 235.497 118.838C236.145 118.278 236.469 117.276 236.469 115.832H237.309L238.017 119.855H236.558C236.41 121.093 236.013 122.257 235.364 123.347C234.716 124.438 233.758 125.337 232.491 126.044C231.223 126.722 229.573 127.061 227.54 127.061ZM244.78 126.619H237V119.767L236.469 119.546V104.338H244.78V126.619Z" fill="#FFF3E5"/>
<path d="M216.392 126.619H208.081V115.39C208.081 113.828 207.727 112.767 207.02 112.207C206.312 111.618 205.001 111.323 203.085 111.323C201.818 111.323 200.831 111.441 200.123 111.677C199.446 111.913 198.974 112.31 198.709 112.87C198.444 113.401 198.311 114.152 198.311 115.125H197.294V111.102H198.753C198.989 109.835 199.431 108.656 200.079 107.566C200.757 106.475 201.715 105.591 202.953 104.913C204.19 104.235 205.752 103.896 207.639 103.896C209.613 103.896 211.249 104.279 212.546 105.046C213.842 105.812 214.8 106.858 215.419 108.184C216.067 109.481 216.392 110.955 216.392 112.605V126.619ZM198.311 126.619H190V97H198.311V126.619Z" fill="#FFF3E5"/>
<path d="M286.049 126.619H281.561C278.898 126.619 276.802 125.934 275.272 124.566C273.771 123.197 273.02 121.085 273.02 118.231V97.0093H281.008V117.052C281.008 117.925 281.164 118.508 281.476 118.799C281.816 119.09 282.439 119.236 283.345 119.236H286.049V126.619Z" fill="#FFF3E5"/>
<path d="M300.55 126.619H296.061C293.399 126.619 291.302 125.934 289.773 124.566C288.271 123.197 287.521 121.085 287.521 118.231V97.0093H295.509V117.052C295.509 117.925 295.665 118.508 295.976 118.799C296.316 119.09 296.939 119.236 297.846 119.236H300.55V126.619Z" fill="#FFF3E5"/>
<rect x="0.5" y="0.5" width="164" height="235" stroke="white"/>
<path d="M96.1785 228.353H95.1211L96.9653 224.136H98.3123L100.169 228.353H99.0865L97.9284 225.653L97.6703 224.998H97.6011L97.343 225.653L96.1785 228.353ZM99.0991 227.421H96.1282V226.572H99.0991V227.421Z" fill="#FFF3E5"/>
<path d="M91.7811 228.353H90.8369V224.136H91.844L93.3547 226.131L93.9337 227.019H94.003L93.9589 226.169V224.136H94.9031V228.353H93.896L92.3413 226.339L91.8062 225.546H91.7433L91.7811 226.32V228.353Z" fill="#FFF3E5"/>
<path d="M90.3431 228.353H89.3989V224.136H90.3431V228.353Z" fill="#FFF3E5"/>
<path d="M87.2673 228.353H86.3231V224.136H87.2673V228.353ZM88.8346 224.985H84.7559V224.136H88.8346V224.985Z" fill="#FFF3E5"/>
<path d="M81.6116 228.353H80.5542L82.3984 224.136H83.7454L85.6023 228.353H84.5196L83.3615 225.653L83.1034 224.998H83.0342L82.7761 225.653L81.6116 228.353ZM84.5322 227.421H81.5613V226.572H84.5322V227.421Z" fill="#FFF3E5"/>
<path d="M77.7205 228.353H76.7764V224.136H77.7205V228.353ZM80.232 228.353H77.0407V227.503H80.232V228.353Z" fill="#FFF3E5"/>
<path d="M75.6447 226.899H73.2969V226.087H75.6447V226.899Z" fill="#FFF3E5"/>
<path d="M70.076 228.416C69.6144 228.416 69.2116 228.328 68.8675 228.151C68.5276 227.971 68.2653 227.719 68.0807 227.396C67.9003 227.069 67.8101 226.685 67.8101 226.244C67.8101 225.804 67.9003 225.422 68.0807 225.099C68.2653 224.771 68.5276 224.52 68.8675 224.343C69.2116 224.163 69.6144 224.073 70.076 224.073C70.5544 224.073 70.9635 224.163 71.3034 224.343C71.6433 224.52 71.9056 224.771 72.0902 225.099C72.2748 225.422 72.3672 225.804 72.3672 226.244C72.3672 226.685 72.2748 227.069 72.0902 227.396C71.9056 227.719 71.6433 227.971 71.3034 228.151C70.9635 228.328 70.5544 228.416 70.076 228.416ZM70.076 227.509C70.3865 227.509 70.6341 227.47 70.8187 227.39C71.0076 227.306 71.144 227.172 71.2279 226.987C71.316 226.802 71.3601 226.555 71.3601 226.244C71.3601 225.93 71.316 225.682 71.2279 225.502C71.144 225.317 71.0076 225.185 70.8187 225.105C70.6341 225.021 70.3865 224.979 70.076 224.979C69.7697 224.979 69.5242 225.021 69.3396 225.105C69.1549 225.185 69.0207 225.317 68.9367 225.502C68.8528 225.682 68.8109 225.93 68.8109 226.244C68.8109 226.555 68.8528 226.802 68.9367 226.987C69.0207 227.172 69.1549 227.306 69.3396 227.39C69.5242 227.47 69.7697 227.509 70.076 227.509Z" fill="#FFF3E5"/>
<path d="M65.7572 228.416C65.3334 228.416 64.9725 228.361 64.6746 228.252C64.3766 228.139 64.15 227.973 63.9948 227.755C63.8395 227.533 63.7619 227.258 63.7619 226.93V226.893H64.706V227.006C64.706 227.136 64.7333 227.241 64.7879 227.321C64.8466 227.4 64.9515 227.459 65.1026 227.497C65.2536 227.535 65.4718 227.554 65.7572 227.554C66.009 227.554 66.202 227.541 66.3363 227.516C66.4705 227.486 66.5629 227.442 66.6132 227.384C66.6636 227.325 66.6888 227.249 66.6888 227.157C66.6888 227.027 66.6447 226.932 66.5566 226.874C66.4726 226.815 66.3237 226.767 66.1097 226.729L64.9263 226.559C64.6746 226.517 64.4585 226.448 64.278 226.351C64.1018 226.255 63.9654 226.127 63.8689 225.967C63.7724 225.804 63.7241 225.606 63.7241 225.376C63.7241 225.216 63.7577 225.059 63.8248 224.904C63.8962 224.748 64.0074 224.61 64.1584 224.488C64.3095 224.362 64.5067 224.262 64.7501 224.186C64.9977 224.111 65.2998 224.073 65.6565 224.073C66.0887 224.073 66.4433 224.136 66.7202 224.262C67.0014 224.383 67.2112 224.557 67.3497 224.784C67.4881 225.006 67.5574 225.264 67.5574 225.558V225.596H66.6069V225.508C66.6069 225.374 66.5776 225.264 66.5188 225.181C66.4643 225.097 66.3614 225.036 66.2104 224.998C66.0593 224.956 65.8432 224.935 65.5621 224.935C65.3355 224.935 65.1571 224.95 65.027 224.979C64.9012 225.009 64.8109 225.053 64.7564 225.111C64.7018 225.17 64.6746 225.246 64.6746 225.338C64.6746 225.418 64.6914 225.485 64.7249 225.539C64.7585 225.59 64.8109 225.63 64.8823 225.659C64.9536 225.688 65.048 225.713 65.1655 225.734L66.3489 225.923C66.6636 225.974 66.9132 226.055 67.0979 226.169C67.2867 226.282 67.4231 226.421 67.507 226.584C67.5909 226.744 67.6329 226.92 67.6329 227.113C67.6329 227.34 67.57 227.554 67.4441 227.755C67.3182 227.952 67.1168 228.112 66.8398 228.233C66.5629 228.355 66.202 228.416 65.7572 228.416Z" fill="#FFF3E5"/>
<path d="M61.2979 228.416C60.8405 228.416 60.4586 228.342 60.1523 228.196C59.846 228.049 59.6152 227.839 59.4599 227.566C59.3047 227.293 59.2271 226.968 59.2271 226.591V224.136H60.1712V226.521C60.1712 226.76 60.2048 226.954 60.2719 227.1C60.3432 227.243 60.4607 227.346 60.6244 227.409C60.7922 227.468 61.0167 227.497 61.2979 227.497C61.5874 227.497 61.814 227.468 61.9777 227.409C62.1413 227.346 62.2567 227.243 62.3239 227.1C62.391 226.954 62.4246 226.76 62.4246 226.521V224.136H63.3687V226.591C63.3687 226.968 63.2911 227.293 63.1358 227.566C62.9806 227.839 62.7498 228.049 62.4435 228.196C62.1413 228.342 61.7595 228.416 61.2979 228.416Z" fill="#FFF3E5"/>
<path d="M56.5926 228.353H55.6484V224.136H56.5926V228.353ZM59.104 228.353H55.9128V227.503H59.104V228.353Z" fill="#FFF3E5"/>
<path d="M50.015 228.353H48.9575L50.8018 224.136H52.1487L54.0056 228.353H52.9229L51.7648 225.653L51.5067 224.998H51.4375L51.1794 225.653L50.015 228.353ZM52.9355 227.421H49.9646V226.572H52.9355V227.421Z" fill="#FFF3E5"/>
<path d="M48.1935 228.353H46.8465L45.0967 224.136H46.236L47.5011 227.396H47.5641L48.8103 224.136H49.9433L48.1935 228.353Z" fill="#FFF3E5"/>
<path d="M44.6785 228.353H43.7344V224.136H44.6785V228.353Z" fill="#FFF3E5"/>
<path d="M41.8288 228.353H40.8847V224.136H41.8288V228.353ZM43.3961 224.985H39.3174V224.136H43.3961V224.985Z" fill="#FFF3E5"/>
<path d="M36.0604 228.353H35.0029L36.8472 224.136H38.1942L40.051 228.353H38.9684L37.8102 225.653L37.5521 224.998H37.4829L37.2248 225.653L36.0604 228.353ZM38.9809 227.421H36.01V226.572H38.9809V227.421Z" fill="#FFF3E5"/>
<path d="M31.6468 228.353H30.7026V224.136H33.0315C33.3798 224.136 33.6757 224.186 33.919 224.287C34.1624 224.383 34.3471 224.526 34.4729 224.715C34.5988 224.904 34.6618 225.132 34.6618 225.401C34.6618 225.632 34.6177 225.829 34.5296 225.993C34.4415 226.156 34.3093 226.288 34.133 226.389C33.9568 226.486 33.7365 226.546 33.4721 226.572V226.622C33.661 226.672 33.8015 226.748 33.8939 226.849C33.9862 226.949 34.0722 227.073 34.1519 227.22L34.7625 228.353H33.6673L33.0882 227.258C33.0294 227.149 32.9686 227.063 32.9057 227C32.8427 226.937 32.7609 226.893 32.6602 226.867C32.5637 226.838 32.4336 226.823 32.2699 226.823H31.6468V228.353ZM31.6468 224.985V226.112H33.0252C33.2476 226.112 33.4113 226.074 33.5162 225.999C33.6211 225.919 33.6736 225.768 33.6736 225.546C33.6736 225.336 33.6211 225.191 33.5162 225.111C33.4113 225.027 33.2476 224.985 33.0252 224.985H31.6468Z" fill="#FFF3E5"/>
<path d="M27.6512 228.353H26.707V224.136H27.6512V228.353ZM30.2759 228.353H26.9714V227.503H30.2759V228.353ZM30.1815 226.653H26.9714V225.81H30.1815V226.653ZM30.2759 224.985H26.9714V224.136H30.2759V224.985Z" fill="#FFF3E5"/>
<path d="M24.767 227.188H22.8913V226.339H24.6663C24.9306 226.339 25.1237 226.293 25.2454 226.2C25.3712 226.104 25.4342 225.923 25.4342 225.659C25.4342 225.403 25.3712 225.227 25.2454 225.13C25.1237 225.034 24.9306 224.985 24.6663 224.985H22.8913V224.136H24.767C25.0943 224.136 25.3775 224.197 25.6167 224.318C25.8559 224.436 26.0405 224.608 26.1706 224.834C26.3049 225.061 26.372 225.336 26.372 225.659C26.372 225.982 26.3049 226.259 26.1706 226.49C26.0405 226.716 25.8559 226.891 25.6167 227.012C25.3775 227.13 25.0943 227.188 24.767 227.188ZM23.5081 228.353H22.564V224.136H23.5081V228.353Z" fill="#FFF3E5"/>
<path d="M19.8612 228.416C19.3996 228.416 18.9968 228.328 18.6527 228.151C18.3128 227.971 18.0505 227.719 17.8659 227.396C17.6854 227.069 17.5952 226.685 17.5952 226.244C17.5952 225.804 17.6854 225.422 17.8659 225.099C18.0505 224.771 18.3128 224.52 18.6527 224.343C18.9968 224.163 19.3996 224.073 19.8612 224.073C20.3395 224.073 20.7487 224.163 21.0886 224.343C21.4285 224.52 21.6907 224.771 21.8754 225.099C22.06 225.422 22.1523 225.804 22.1523 226.244C22.1523 226.685 22.06 227.069 21.8754 227.396C21.6907 227.719 21.4285 227.971 21.0886 228.151C20.7487 228.328 20.3395 228.416 19.8612 228.416ZM19.8612 227.509C20.1717 227.509 20.4193 227.47 20.6039 227.39C20.7927 227.306 20.9291 227.172 21.013 226.987C21.1012 226.802 21.1452 226.555 21.1452 226.244C21.1452 225.93 21.1012 225.682 21.013 225.502C20.9291 225.317 20.7927 225.185 20.6039 225.105C20.4193 225.021 20.1717 224.979 19.8612 224.979C19.5548 224.979 19.3094 225.021 19.1247 225.105C18.9401 225.185 18.8058 225.317 18.7219 225.502C18.638 225.682 18.596 225.93 18.596 226.244C18.596 226.555 18.638 226.802 18.7219 226.987C18.8058 227.172 18.9401 227.306 19.1247 227.39C19.3094 227.47 19.5548 227.509 19.8612 227.509Z" fill="#FFF3E5"/>
<path d="M14.9867 228.416C14.5251 228.416 14.1222 228.328 13.7782 228.151C13.4383 227.971 13.176 227.719 12.9914 227.396C12.8109 227.069 12.7207 226.685 12.7207 226.244C12.7207 225.804 12.8109 225.422 12.9914 225.099C13.176 224.771 13.4383 224.52 13.7782 224.343C14.1222 224.163 14.5251 224.073 14.9867 224.073C15.465 224.073 15.8742 224.163 16.2141 224.343C16.554 224.52 16.8162 224.771 17.0008 225.099C17.1855 225.422 17.2778 225.804 17.2778 226.244C17.2778 226.685 17.1855 227.069 17.0008 227.396C16.8162 227.719 16.554 227.971 16.2141 228.151C15.8742 228.328 15.465 228.416 14.9867 228.416ZM14.9867 227.509C15.2972 227.509 15.5448 227.47 15.7294 227.39C15.9182 227.306 16.0546 227.172 16.1385 226.987C16.2266 226.802 16.2707 226.555 16.2707 226.244C16.2707 225.93 16.2266 225.682 16.1385 225.502C16.0546 225.317 15.9182 225.185 15.7294 225.105C15.5448 225.021 15.2972 224.979 14.9867 224.979C14.6803 224.979 14.4349 225.021 14.2502 225.105C14.0656 225.185 13.9313 225.317 13.8474 225.502C13.7635 225.682 13.7215 225.93 13.7215 226.244C13.7215 226.555 13.7635 226.802 13.8474 226.987C13.9313 227.172 14.0656 227.306 14.2502 227.39C14.4349 227.47 14.6803 227.509 14.9867 227.509Z" fill="#FFF3E5"/>
<path d="M10.2534 228.416C9.79179 228.416 9.39105 228.328 9.05115 228.151C8.71546 227.971 8.45529 227.719 8.27066 227.396C8.09022 227.069 8 226.685 8 226.244C8 225.804 8.09022 225.422 8.27066 225.099C8.45529 224.771 8.71546 224.52 9.05115 224.343C9.39105 224.163 9.79179 224.073 10.2534 224.073C10.694 224.073 11.0737 224.142 11.3926 224.28C11.7158 224.419 11.9654 224.616 12.1417 224.872C12.3179 225.128 12.406 225.437 12.406 225.797V225.892H11.3549V225.797C11.3549 225.52 11.2689 225.315 11.0968 225.181C10.929 225.046 10.6541 224.979 10.2723 224.979C9.96593 224.979 9.71835 225.021 9.52952 225.105C9.34489 225.185 9.21061 225.317 9.12669 225.502C9.04276 225.682 9.0008 225.93 9.0008 226.244C9.0008 226.555 9.04276 226.802 9.12669 226.987C9.21061 227.172 9.34489 227.306 9.52952 227.39C9.71835 227.47 9.96593 227.509 10.2723 227.509C10.6541 227.509 10.929 227.442 11.0968 227.308C11.2689 227.174 11.3549 226.968 11.3549 226.691V226.597H12.406V226.691C12.406 227.048 12.3179 227.356 12.1417 227.616C11.9654 227.872 11.7158 228.07 11.3926 228.208C11.0737 228.347 10.694 228.416 10.2534 228.416Z" fill="#FFF3E5"/>
<path d="M156.463 220.121H151.206V216.776H150.908V211.429C150.908 210.672 150.708 210.194 150.31 209.995C149.932 209.776 149.245 209.667 148.249 209.667C147.333 209.667 146.696 209.776 146.338 209.995C145.999 210.214 145.83 210.642 145.83 211.28V211.399H140.214V211.339C140.214 210.005 140.563 208.85 141.26 207.875C141.957 206.879 142.942 206.112 144.217 205.575C145.491 205.037 146.975 204.768 148.667 204.768C150.42 204.768 151.873 205.047 153.028 205.604C154.183 206.142 155.04 206.919 155.597 207.934C156.175 208.93 156.463 210.135 156.463 211.548V220.121ZM145.232 220.42C143.54 220.42 142.225 220.051 141.29 219.315C140.374 218.578 139.916 217.572 139.916 216.298C139.916 215.581 140.085 214.944 140.423 214.386C140.762 213.829 141.29 213.38 142.006 213.042C142.723 212.684 143.649 212.445 144.784 212.325L151.206 211.698V214.804L146.278 215.372C146.019 215.392 145.83 215.451 145.71 215.551C145.611 215.651 145.561 215.78 145.561 215.939C145.561 216.178 145.67 216.338 145.889 216.417C146.128 216.477 146.467 216.507 146.905 216.507C147.901 216.507 148.687 216.457 149.265 216.358C149.842 216.238 150.26 216.029 150.519 215.73C150.778 215.432 150.908 215.003 150.908 214.446L151.326 214.326V216.955H150.908C150.629 218.01 150.021 218.857 149.086 219.494C148.15 220.111 146.865 220.42 145.232 220.42Z" fill="#FFF3E5"/>
<path d="M138.901 220.121H133.286V212.534C133.286 211.479 133.057 210.762 132.599 210.384C132.141 209.985 131.294 209.786 130.06 209.786C128.825 209.786 127.999 209.975 127.581 210.354C127.182 210.712 126.983 211.379 126.983 212.355H126.416L125.938 209.637H126.923C127.043 208.8 127.312 208.014 127.73 207.277C128.168 206.54 128.805 205.943 129.642 205.485C130.498 205.007 131.593 204.768 132.927 204.768C134.281 204.768 135.396 205.017 136.273 205.515C137.169 206.013 137.826 206.69 138.244 207.546C138.682 208.402 138.901 209.378 138.901 210.473V220.121ZM126.983 220.121H121.368V205.067H126.625V209.697L126.983 209.846V220.121Z" fill="#FFF3E5"/>
<path d="M119.885 220.121H114.269V205.067H119.885V220.121ZM119.885 203.693H114.269V200.108H119.885V203.693Z" fill="#FFF3E5"/>
<path d="M112.878 220.121H108.935C107.063 220.121 105.589 219.653 104.514 218.717C103.459 217.781 102.931 216.338 102.931 214.386V202.468H108.547V213.58C108.547 214.177 108.656 214.575 108.875 214.775C109.114 214.974 109.552 215.073 110.189 215.073H112.878V220.121ZM112.878 209.667H100.721V205.067H112.878V209.667Z" fill="#FFF3E5"/>
<path d="M100.172 220.121H94.9152V216.776H94.6166V211.429C94.6166 210.672 94.4174 210.194 94.0192 209.995C93.6408 209.776 92.9538 209.667 91.9581 209.667C91.0421 209.667 90.4049 209.776 90.0465 209.995C89.708 210.214 89.5387 210.642 89.5387 211.28V211.399H83.9232V211.339C83.9232 210.005 84.2717 208.85 84.9686 207.875C85.6656 206.879 86.6513 206.112 87.9257 205.575C89.2002 205.037 90.6837 204.768 92.3763 204.768C94.1287 204.768 95.5823 205.047 96.7373 205.604C97.8923 206.142 98.7485 206.919 99.3061 207.934C99.8836 208.93 100.172 210.135 100.172 211.548V220.121ZM88.9413 220.42C87.2487 220.42 85.9344 220.051 84.9985 219.315C84.0825 218.578 83.6245 217.572 83.6245 216.298C83.6245 215.581 83.7938 214.944 84.1323 214.386C84.4708 213.829 84.9985 213.38 85.7154 213.042C86.4323 212.684 87.3582 212.445 88.4933 212.325L94.9152 211.698V214.804L89.9868 215.372C89.7279 215.392 89.5387 215.451 89.4192 215.551C89.3197 215.651 89.2699 215.78 89.2699 215.939C89.2699 216.178 89.3794 216.338 89.5984 216.417C89.8374 216.477 90.1759 216.507 90.614 216.507C91.6097 216.507 92.3962 216.457 92.9737 216.358C93.5512 216.238 93.9694 216.029 94.2282 215.73C94.4871 215.432 94.6166 215.003 94.6166 214.446L95.0347 214.326V216.955H94.6166C94.3378 218.01 93.7304 218.857 92.7945 219.494C91.8586 220.111 90.5742 220.42 88.9413 220.42Z" fill="#FFF3E5"/>
<path d="M54.7565 220.42C53.0639 220.42 51.5605 220.161 50.2462 219.643C48.9319 219.125 47.9064 218.289 47.1696 217.134C46.4328 215.979 46.0645 214.466 46.0645 212.594C46.0645 210.961 46.4328 209.567 47.1696 208.412C47.9064 207.237 48.912 206.341 50.1865 205.724C51.4808 205.087 52.9643 204.768 54.637 204.768C56.3695 204.768 57.8729 205.057 59.1474 205.634C60.4218 206.192 61.4075 207.028 62.1045 208.143C62.8014 209.239 63.1499 210.593 63.1499 212.206C63.1499 212.464 63.14 212.703 63.12 212.922C63.12 213.122 63.1001 213.361 63.0603 213.639H49.7384V210.802H58.998L57.7734 212.564C57.7734 212.385 57.7734 212.216 57.7734 212.056C57.7734 211.877 57.7734 211.698 57.7734 211.519C57.7734 210.603 57.5344 209.965 57.0565 209.607C56.5985 209.249 55.7522 209.069 54.5176 209.069C53.2431 209.069 52.3769 209.268 51.9189 209.667C51.4808 210.065 51.2618 210.782 51.2618 211.817V213.251C51.2618 214.306 51.4908 215.023 51.9488 215.402C52.4068 215.78 53.273 215.969 54.5474 215.969C55.6825 215.969 56.4392 215.87 56.8175 215.67C57.2158 215.451 57.4149 215.123 57.4149 214.685V214.356H63.0304V214.715C63.0304 215.83 62.6919 216.816 62.0149 217.672C61.3378 218.528 60.382 219.205 59.1474 219.703C57.9128 220.181 56.4491 220.42 54.7565 220.42Z" fill="#FFF3E5"/>
<path d="M33.3647 220.42C31.9707 220.42 30.8158 220.171 29.8998 219.673C28.9838 219.175 28.2968 218.498 27.8388 217.642C27.4007 216.786 27.1816 215.81 27.1816 214.715V205.067H32.7971V212.654C32.7971 213.689 33.0361 214.406 33.514 214.804C34.0118 215.203 34.898 215.402 36.1724 215.402C37.4668 215.402 38.323 215.223 38.7412 214.864C39.1793 214.486 39.3983 213.809 39.3983 212.833H39.9659L40.4438 215.551H39.4581C39.3585 216.388 39.0897 217.174 38.6516 217.911C38.2135 218.648 37.5663 219.255 36.7101 219.733C35.8538 220.191 34.7387 220.42 33.3647 220.42ZM45.0138 220.121H39.7568V215.491L39.3983 215.342V205.067H45.0138V220.121Z" fill="#FFF3E5"/>
<path d="M25.8322 220.121H20.2167V212.534C20.2167 211.479 19.9777 210.762 19.4998 210.384C19.0219 209.985 18.1358 209.786 16.8414 209.786C15.9852 209.786 15.3181 209.866 14.8402 210.025C14.3822 210.184 14.0635 210.453 13.8843 210.832C13.7051 211.19 13.6155 211.698 13.6155 212.355H12.9285V209.637H13.9142C14.0735 208.781 14.3722 207.984 14.8103 207.247C15.2683 206.51 15.9155 205.913 16.7518 205.455C17.5882 204.997 18.6436 204.768 19.918 204.768C21.2522 204.768 22.3574 205.027 23.2335 205.545C24.1097 206.062 24.7569 206.769 25.1751 207.665C25.6132 208.542 25.8322 209.537 25.8322 210.652V220.121ZM13.6155 220.121H8V200.108H13.6155V220.121Z" fill="#FFF3E5"/>
<path d="M72.8982 220.121H69.8655C68.0663 220.121 66.65 219.659 65.6164 218.734C64.6019 217.809 64.0947 216.382 64.0947 214.454V200.115H69.4923V213.657C69.4923 214.247 69.5976 214.641 69.8081 214.838C70.0378 215.034 70.4589 215.133 71.0714 215.133H72.8982V220.121Z" fill="#FFF3E5"/>
<path d="M82.6956 220.121H79.6629C77.8637 220.121 76.4473 219.659 75.4137 218.734C74.3993 217.809 73.8921 216.382 73.8921 214.454V200.115H79.2897V213.657C79.2897 214.247 79.3949 214.641 79.6055 214.838C79.8352 215.034 80.2563 215.133 80.8687 215.133H82.6956V220.121Z" fill="#FFF3E5"/>
<rect x="438.5" y="0.5" width="505" height="235" stroke="white"/>
<path d="M736.11 221.834H732.691L738.654 208.199H743.009L749.013 221.834H745.512L741.768 213.103L740.933 210.987H740.709L739.875 213.103L736.11 221.834ZM745.553 218.822H735.947V216.075H745.553V218.822Z" fill="#FFF3E5"/>
<path d="M721.893 221.834H718.84V208.199H722.096L726.981 214.65L728.853 217.52H729.077L728.934 214.772V208.199H731.987V221.834H728.731L723.704 215.322L721.974 212.758H721.77L721.893 215.261V221.834Z" fill="#FFF3E5"/>
<path d="M717.242 221.834H714.189V208.199H717.242V221.834Z" fill="#FFF3E5"/>
<path d="M707.297 221.834H704.244V208.199H707.297V221.834ZM712.365 210.946H699.177V208.199H712.365V210.946Z" fill="#FFF3E5"/>
<path d="M689.012 221.834H685.593L691.556 208.199H695.911L701.915 221.834H698.414L694.67 213.103L693.835 210.987H693.611L692.777 213.103L689.012 221.834ZM698.455 218.822H688.849V216.075H698.455V218.822Z" fill="#FFF3E5"/>
<path d="M676.429 221.834H673.376V208.199H676.429V221.834ZM684.55 221.834H674.231V219.087H684.55V221.834Z" fill="#FFF3E5"/>
<path d="M669.717 217.133H662.126V214.507H669.717V217.133Z" fill="#FFF3E5"/>
<path d="M651.713 222.038C650.22 222.038 648.918 221.753 647.805 221.183C646.706 220.6 645.858 219.786 645.261 218.741C644.678 217.683 644.386 216.441 644.386 215.016C644.386 213.592 644.678 212.357 645.261 211.312C645.858 210.254 646.706 209.44 647.805 208.87C648.918 208.287 650.22 207.995 651.713 207.995C653.26 207.995 654.582 208.287 655.681 208.87C656.78 209.44 657.628 210.254 658.225 211.312C658.822 212.357 659.121 213.592 659.121 215.016C659.121 216.441 658.822 217.683 658.225 218.741C657.628 219.786 656.78 220.6 655.681 221.183C654.582 221.753 653.26 222.038 651.713 222.038ZM651.713 219.107C652.717 219.107 653.517 218.978 654.114 218.72C654.725 218.449 655.166 218.015 655.437 217.418C655.722 216.821 655.865 216.02 655.865 215.016C655.865 213.999 655.722 213.198 655.437 212.615C655.166 212.018 654.725 211.591 654.114 211.333C653.517 211.061 652.717 210.926 651.713 210.926C650.722 210.926 649.929 211.061 649.332 211.333C648.735 211.591 648.301 212.018 648.029 212.615C647.758 213.198 647.622 213.999 647.622 215.016C647.622 216.02 647.758 216.821 648.029 217.418C648.301 218.015 648.735 218.449 649.332 218.72C649.929 218.978 650.722 219.107 651.713 219.107Z" fill="#FFF3E5"/>
<path d="M637.749 222.038C636.379 222.038 635.212 221.861 634.248 221.509C633.285 221.142 632.552 220.606 632.05 219.901C631.548 219.182 631.297 218.293 631.297 217.235V217.113H634.35V217.479C634.35 217.9 634.438 218.239 634.615 218.497C634.805 218.754 635.144 218.944 635.632 219.066C636.121 219.189 636.826 219.25 637.749 219.25C638.563 219.25 639.187 219.209 639.621 219.127C640.055 219.033 640.354 218.89 640.517 218.7C640.68 218.51 640.761 218.266 640.761 217.967C640.761 217.547 640.618 217.242 640.334 217.052C640.062 216.862 639.581 216.706 638.889 216.584L635.062 216.034C634.248 215.898 633.55 215.674 632.966 215.362C632.396 215.05 631.955 214.637 631.643 214.121C631.331 213.592 631.175 212.954 631.175 212.208C631.175 211.692 631.284 211.184 631.501 210.682C631.732 210.18 632.091 209.732 632.58 209.338C633.068 208.931 633.706 208.606 634.493 208.361C635.293 208.117 636.27 207.995 637.423 207.995C638.821 207.995 639.967 208.199 640.863 208.606C641.772 208.999 642.45 209.562 642.898 210.295C643.346 211.014 643.569 211.848 643.569 212.798V212.92H640.496V212.635C640.496 212.201 640.401 211.848 640.211 211.577C640.035 211.306 639.703 211.109 639.214 210.987C638.726 210.851 638.027 210.783 637.118 210.783C636.385 210.783 635.809 210.831 635.388 210.926C634.981 211.021 634.689 211.163 634.513 211.353C634.337 211.543 634.248 211.787 634.248 212.086C634.248 212.344 634.303 212.561 634.411 212.737C634.52 212.9 634.689 213.029 634.92 213.124C635.151 213.219 635.456 213.3 635.836 213.368L639.662 213.979C640.68 214.141 641.487 214.406 642.084 214.772C642.694 215.139 643.135 215.586 643.407 216.115C643.678 216.631 643.814 217.201 643.814 217.825C643.814 218.558 643.61 219.25 643.203 219.901C642.796 220.539 642.145 221.054 641.249 221.448C640.354 221.841 639.187 222.038 637.749 222.038Z" fill="#FFF3E5"/>
<path d="M623.329 222.038C621.851 222.038 620.616 221.8 619.625 221.326C618.635 220.851 617.889 220.172 617.387 219.29C616.885 218.408 616.634 217.357 616.634 216.136V208.199H619.687V215.912C619.687 216.685 619.795 217.309 620.012 217.784C620.243 218.246 620.623 218.578 621.152 218.782C621.695 218.972 622.42 219.067 623.329 219.067C624.266 219.067 624.998 218.972 625.527 218.782C626.057 218.578 626.43 218.246 626.647 217.784C626.864 217.309 626.972 216.685 626.972 215.912V208.199H630.025V216.136C630.025 217.357 629.774 218.408 629.272 219.29C628.77 220.172 628.024 220.851 627.033 221.326C626.057 221.8 624.822 222.038 623.329 222.038Z" fill="#FFF3E5"/>
<path d="M608.117 221.834H605.064V208.199H608.117V221.834ZM616.237 221.834H605.919V219.087H616.237V221.834Z" fill="#FFF3E5"/>
<path d="M586.848 221.834H583.429L589.392 208.199H593.747L599.751 221.834H596.25L592.506 213.103L591.671 210.987H591.447L590.613 213.103L586.848 221.834ZM596.291 218.822H586.685V216.075H596.291V218.822Z" fill="#FFF3E5"/>
<path d="M580.958 221.834H576.603L570.945 208.199H574.629L578.72 218.741H578.923L582.953 208.199H586.616L580.958 221.834Z" fill="#FFF3E5"/>
<path d="M569.594 221.834H566.542V208.199H569.594V221.834Z" fill="#FFF3E5"/>
<path d="M560.38 221.834H557.327V208.199H560.38V221.834ZM565.447 210.946H552.259V208.199H565.447V210.946Z" fill="#FFF3E5"/>
<path d="M541.729 221.834H538.31L544.273 208.199H548.628L554.632 221.834H551.132L547.387 213.103L546.552 210.987H546.329L545.494 213.103L541.729 221.834ZM551.172 218.822H541.566V216.075H551.172V218.822Z" fill="#FFF3E5"/>
<path d="M527.457 221.834H524.404V208.199H531.934C533.061 208.199 534.017 208.362 534.804 208.687C535.591 208.999 536.188 209.461 536.595 210.071C537.002 210.682 537.205 211.421 537.205 212.289C537.205 213.036 537.063 213.673 536.778 214.202C536.493 214.732 536.066 215.159 535.496 215.485C534.926 215.797 534.214 215.993 533.359 216.075V216.238C533.97 216.4 534.424 216.645 534.723 216.97C535.021 217.296 535.299 217.696 535.557 218.171L537.531 221.834H533.99L532.118 218.293C531.928 217.94 531.731 217.662 531.527 217.459C531.324 217.255 531.059 217.113 530.734 217.031C530.422 216.936 530.001 216.889 529.472 216.889H527.457V221.834ZM527.457 210.946V214.589H531.914C532.633 214.589 533.162 214.467 533.501 214.223C533.841 213.965 534.01 213.477 534.01 212.758C534.01 212.079 533.841 211.611 533.501 211.353C533.162 211.082 532.633 210.946 531.914 210.946H527.457Z" fill="#FFF3E5"/>
<path d="M514.539 221.834H511.486V208.199H514.539V221.834ZM523.025 221.834H512.341V219.087H523.025V221.834ZM522.72 216.339H512.341V213.612H522.72V216.339ZM523.025 210.946H512.341V208.199H523.025V210.946Z" fill="#FFF3E5"/>
<path d="M505.213 218.069H499.149V215.322H504.888C505.743 215.322 506.367 215.173 506.76 214.874C507.167 214.562 507.371 213.979 507.371 213.124C507.371 212.296 507.167 211.726 506.76 211.414C506.367 211.102 505.743 210.946 504.888 210.946H499.149V208.199H505.213C506.272 208.199 507.188 208.395 507.961 208.789C508.734 209.169 509.331 209.725 509.752 210.458C510.186 211.19 510.403 212.079 510.403 213.124C510.403 214.169 510.186 215.064 509.752 215.81C509.331 216.543 508.734 217.106 507.961 217.499C507.188 217.879 506.272 218.069 505.213 218.069ZM501.143 221.834H498.09V208.199H501.143V221.834Z" fill="#FFF3E5"/>
<path d="M489.351 222.038C487.859 222.038 486.556 221.753 485.443 221.183C484.345 220.6 483.497 219.786 482.9 218.741C482.316 217.683 482.024 216.441 482.024 215.016C482.024 213.592 482.316 212.357 482.9 211.312C483.497 210.254 484.345 209.44 485.443 208.87C486.556 208.287 487.859 207.995 489.351 207.995C490.898 207.995 492.221 208.287 493.32 208.87C494.419 209.44 495.267 210.254 495.864 211.312C496.461 212.357 496.759 213.592 496.759 215.016C496.759 216.441 496.461 217.683 495.864 218.741C495.267 219.786 494.419 220.6 493.32 221.183C492.221 221.753 490.898 222.038 489.351 222.038ZM489.351 219.107C490.355 219.107 491.156 218.978 491.753 218.72C492.363 218.449 492.804 218.015 493.075 217.418C493.36 216.821 493.503 216.02 493.503 215.016C493.503 213.999 493.36 213.198 493.075 212.615C492.804 212.018 492.363 211.591 491.753 211.333C491.156 211.061 490.355 210.926 489.351 210.926C488.361 210.926 487.567 211.061 486.97 211.333C486.373 211.591 485.939 212.018 485.667 212.615C485.396 213.198 485.26 213.999 485.26 215.016C485.26 216.02 485.396 216.821 485.667 217.418C485.939 218.015 486.373 218.449 486.97 218.72C487.567 218.978 488.361 219.107 489.351 219.107Z" fill="#FFF3E5"/>
<path d="M473.59 222.038C472.098 222.038 470.795 221.753 469.683 221.183C468.584 220.6 467.736 219.786 467.139 218.741C466.555 217.683 466.264 216.441 466.264 215.016C466.264 213.592 466.555 212.357 467.139 211.312C467.736 210.254 468.584 209.44 469.683 208.87C470.795 208.287 472.098 207.995 473.59 207.995C475.137 207.995 476.46 208.287 477.559 208.87C478.658 209.44 479.506 210.254 480.103 211.312C480.7 212.357 480.998 213.592 480.998 215.016C480.998 216.441 480.7 217.683 480.103 218.741C479.506 219.786 478.658 220.6 477.559 221.183C476.46 221.753 475.137 222.038 473.59 222.038ZM473.59 219.107C474.594 219.107 475.395 218.978 475.992 218.72C476.602 218.449 477.043 218.015 477.315 217.418C477.6 216.821 477.742 216.02 477.742 215.016C477.742 213.999 477.6 213.198 477.315 212.615C477.043 212.018 476.602 211.591 475.992 211.333C475.395 211.061 474.594 210.926 473.59 210.926C472.6 210.926 471.806 211.061 471.209 211.333C470.612 211.591 470.178 212.018 469.907 212.615C469.635 213.198 469.5 213.999 469.5 215.016C469.5 216.02 469.635 216.821 469.907 217.418C470.178 218.015 470.612 218.449 471.209 218.72C471.806 218.978 472.6 219.107 473.59 219.107Z" fill="#FFF3E5"/>
<path d="M458.286 222.038C456.793 222.038 455.498 221.753 454.399 221.183C453.313 220.6 452.472 219.786 451.875 218.741C451.292 217.683 451 216.441 451 215.016C451 213.592 451.292 212.357 451.875 211.312C452.472 210.254 453.313 209.44 454.399 208.87C455.498 208.287 456.793 207.995 458.286 207.995C459.711 207.995 460.938 208.219 461.97 208.667C463.014 209.114 463.822 209.752 464.391 210.58C464.961 211.407 465.246 212.405 465.246 213.571V213.877H461.847V213.571C461.847 212.676 461.569 212.011 461.013 211.577C460.47 211.143 459.582 210.926 458.347 210.926C457.357 210.926 456.556 211.061 455.945 211.333C455.348 211.591 454.914 212.018 454.643 212.615C454.372 213.198 454.236 213.999 454.236 215.016C454.236 216.02 454.372 216.821 454.643 217.418C454.914 218.015 455.348 218.449 455.945 218.72C456.556 218.978 457.357 219.107 458.347 219.107C459.582 219.107 460.47 218.89 461.013 218.456C461.569 218.022 461.847 217.357 461.847 216.461V216.156H465.246V216.461C465.246 217.615 464.961 218.612 464.391 219.453C463.822 220.281 463.014 220.918 461.97 221.366C460.938 221.814 459.711 222.038 458.286 222.038Z" fill="#FFF3E5"/>
<path d="M931.032 195.218H914.034V184.401H913.068V167.114C913.068 164.667 912.424 163.122 911.137 162.478C909.913 161.77 907.692 161.416 904.473 161.416C901.511 161.416 899.451 161.77 898.292 162.478C897.197 163.186 896.65 164.57 896.65 166.631V167.017H878.493V166.824C878.493 162.51 879.62 158.776 881.873 155.621C884.127 152.402 887.314 149.923 891.435 148.184C895.555 146.446 900.352 145.577 905.825 145.577C911.491 145.577 916.191 146.478 919.925 148.281C923.66 150.019 926.428 152.53 928.231 155.814C930.098 159.033 931.032 162.929 931.032 167.5V195.218ZM894.718 196.184C889.246 196.184 884.996 194.993 881.97 192.61C879.008 190.228 877.527 186.977 877.527 182.856C877.527 180.538 878.075 178.478 879.169 176.675C880.264 174.872 881.97 173.423 884.288 172.329C886.606 171.17 889.6 170.397 893.27 170.011L914.034 167.983V178.027L898.099 179.862C897.262 179.926 896.65 180.12 896.264 180.442C895.942 180.763 895.781 181.182 895.781 181.697C895.781 182.47 896.135 182.985 896.843 183.242C897.616 183.435 898.71 183.532 900.127 183.532C903.346 183.532 905.889 183.371 907.756 183.049C909.624 182.663 910.976 181.987 911.813 181.021C912.65 180.055 913.068 178.671 913.068 176.868L914.42 176.482V184.981H913.068C912.167 188.393 910.203 191.13 907.177 193.19C904.151 195.186 899.998 196.184 894.718 196.184Z" fill="#FFF3E5"/>
<path d="M874.247 195.218H856.09V170.687C856.09 167.275 855.35 164.957 853.869 163.733C852.388 162.446 849.651 161.802 845.66 161.802C841.668 161.802 838.996 162.414 837.644 163.637C836.356 164.796 835.712 166.953 835.712 170.108H833.877L832.332 161.319H835.519C835.905 158.615 836.774 156.072 838.126 153.689C839.543 151.307 841.603 149.375 844.307 147.895C847.076 146.349 850.617 145.577 854.931 145.577C859.309 145.577 862.915 146.381 865.748 147.991C868.645 149.601 870.77 151.79 872.122 154.558C873.539 157.327 874.247 160.482 874.247 164.023V195.218ZM835.712 195.218H817.555V146.542H834.553V161.512L835.712 161.995V195.218Z" fill="#FFF3E5"/>
<path d="M812.759 195.218H794.603V146.542H812.759V195.218ZM812.759 142.1H794.603V130.51H812.759V142.1Z" fill="#FFF3E5"/>
<path d="M790.105 195.218H777.357C771.305 195.218 766.54 193.705 763.063 190.678C759.651 187.652 757.945 182.984 757.945 176.675V138.14H776.101V174.067C776.101 175.998 776.456 177.286 777.164 177.93C777.936 178.574 779.353 178.896 781.413 178.896H790.105V195.218ZM790.105 161.415H750.798V146.542H790.105V161.415Z" fill="#FFF3E5"/>
<path d="M749.025 195.218H732.027V184.401H731.061V167.114C731.061 164.667 730.417 163.122 729.129 162.478C727.906 161.77 725.685 161.416 722.465 161.416C719.504 161.416 717.443 161.77 716.284 162.478C715.19 163.186 714.643 164.57 714.643 166.631V167.017H696.486V166.824C696.486 162.51 697.613 158.776 699.866 155.621C702.12 152.402 705.307 149.923 709.427 148.184C713.548 146.446 718.345 145.577 723.818 145.577C729.483 145.577 734.184 146.478 737.918 148.281C741.652 150.019 744.421 152.53 746.224 155.814C748.091 159.033 749.025 162.929 749.025 167.5V195.218ZM712.711 196.184C707.238 196.184 702.989 194.993 699.963 192.61C697.001 190.228 695.52 186.977 695.52 182.856C695.52 180.538 696.067 178.478 697.162 176.675C698.256 174.872 699.963 173.423 702.281 172.329C704.598 171.17 707.592 170.397 711.262 170.011L732.027 167.983V178.027L716.091 179.862C715.254 179.926 714.643 180.12 714.256 180.442C713.934 180.763 713.773 181.182 713.773 181.697C713.773 182.47 714.127 182.985 714.836 183.242C715.608 183.435 716.703 183.532 718.119 183.532C721.339 183.532 723.882 183.371 725.749 183.049C727.616 182.663 728.968 181.987 729.805 181.021C730.642 180.055 731.061 178.671 731.061 176.868L732.413 176.482V184.981H731.061C730.16 188.393 728.196 191.13 725.17 193.19C722.144 195.186 717.991 196.184 712.711 196.184Z" fill="#FFF3E5"/>
<path d="M602.18 196.184C596.707 196.184 591.846 195.347 587.596 193.673C583.347 191.999 580.031 189.295 577.649 185.56C575.266 181.826 574.075 176.933 574.075 170.88C574.075 165.601 575.266 161.094 577.649 157.359C580.031 153.56 583.282 150.663 587.403 148.667C591.588 146.607 596.385 145.577 601.793 145.577C607.395 145.577 612.256 146.51 616.377 148.377C620.497 150.18 623.684 152.884 625.938 156.49C628.191 160.031 629.318 164.409 629.318 169.625C629.318 170.462 629.286 171.234 629.222 171.943C629.222 172.586 629.157 173.359 629.028 174.261H585.954V165.086H615.894L611.934 170.784C611.934 170.204 611.934 169.657 611.934 169.142C611.934 168.562 611.934 167.983 611.934 167.403C611.934 164.442 611.161 162.381 609.616 161.222C608.135 160.063 605.399 159.484 601.407 159.484C597.286 159.484 594.485 160.128 593.005 161.416C591.588 162.703 590.88 165.021 590.88 168.369V173.005C590.88 176.417 591.62 178.735 593.101 179.959C594.582 181.182 597.383 181.794 601.504 181.794C605.174 181.794 607.62 181.472 608.843 180.828C610.131 180.12 610.775 179.057 610.775 177.641V176.578H628.932V177.737C628.932 181.343 627.837 184.53 625.648 187.299C623.459 190.067 620.369 192.256 616.377 193.866C612.385 195.411 607.652 196.184 602.18 196.184Z" fill="#FFF3E5"/>
<path d="M533.012 196.184C528.505 196.184 524.771 195.379 521.809 193.769C518.847 192.16 516.626 189.971 515.145 187.202C513.729 184.433 513.021 181.279 513.021 177.737V146.542H531.177V171.073C531.177 174.422 531.95 176.739 533.495 178.027C535.105 179.315 537.97 179.959 542.091 179.959C546.276 179.959 549.044 179.379 550.396 178.22C551.813 176.997 552.521 174.808 552.521 171.653H554.356L555.901 180.442H552.714C552.392 183.146 551.523 185.689 550.107 188.071C548.69 190.454 546.598 192.417 543.829 193.963C541.061 195.443 537.455 196.184 533.012 196.184ZM570.678 195.218H553.68V180.248L552.521 179.766V146.542H570.678V195.218Z" fill="#FFF3E5"/>
<path d="M508.657 195.218H490.501V170.687C490.501 167.275 489.728 164.957 488.183 163.733C486.638 162.446 483.772 161.802 479.587 161.802C476.819 161.802 474.662 162.059 473.117 162.574C471.636 163.089 470.605 163.959 470.026 165.182C469.447 166.341 469.157 167.983 469.157 170.107H466.935V161.319H470.123C470.638 158.55 471.603 155.975 473.02 153.593C474.501 151.21 476.593 149.279 479.298 147.798C482.002 146.317 485.414 145.577 489.535 145.577C493.849 145.577 497.422 146.414 500.255 148.088C503.088 149.762 505.181 152.047 506.533 154.945C507.949 157.778 508.657 160.997 508.657 164.603V195.218ZM469.157 195.218H451V130.51H469.157V195.218Z" fill="#FFF3E5"/>
<path d="M660.838 195.218H651.032C645.215 195.218 640.635 193.723 637.293 190.733C634.013 187.742 632.373 183.129 632.373 176.894V130.531H649.825V174.317C649.825 176.226 650.166 177.498 650.846 178.135C651.589 178.771 652.951 179.089 654.931 179.089H660.838V195.218Z" fill="#FFF3E5"/>
<path d="M692.516 195.218H682.711C676.893 195.218 672.314 193.723 668.972 190.733C665.692 187.742 664.052 183.129 664.052 176.894V130.531H681.504V174.317C681.504 176.226 681.844 177.498 682.525 178.135C683.268 178.771 684.629 179.089 686.61 179.089H692.516V195.218Z" fill="#FFF3E5"/>
</svg>
