<svg width="787" height="224" viewBox="0 0 787 224" fill="none" xmlns="http://www.w3.org/2000/svg" xmlns:xlink="http://www.w3.org/1999/xlink">
<rect x="739" y="177" width="47" height="46" fill="#E09BDB"/>
<rect y="47" width="47" height="46" fill="#E09BDB"/>
<rect y="93" width="47" height="46" fill="#E09BDB"/>
<rect y="1" width="47" height="46" fill="#E09BDB"/>
<rect x="0.5" y="0.5" width="786" height="223" fill="url(#pattern0_2095_75808)"/>
<rect x="0.5" y="0.5" width="786" height="223" stroke="#FF00DD"/>
<rect x="48" y="47" width="691" height="130" fill="black"/>
<path d="M457.323 177.431H452.402L460.984 157.807H467.252L475.893 177.431H470.855L465.466 164.866L464.265 161.82H463.942L462.742 164.866L457.323 177.431ZM470.913 173.096H457.089V169.142H470.913V173.096Z" fill="#FFF3E5"/>
<path d="M436.862 177.431H432.468V157.807H437.155L444.184 167.092L446.879 171.222H447.201L446.996 167.268V157.807H451.389V177.431H446.703L439.468 168.058L436.979 164.368H436.686L436.862 167.971V177.431Z" fill="#FFF3E5"/>
<path d="M430.169 177.431H425.775V157.807H430.169V177.431Z" fill="#FFF3E5"/>
<path d="M415.856 177.431H411.463V157.807H415.856V177.431ZM423.149 161.761H404.169V157.807H423.149V161.761Z" fill="#FFF3E5"/>
<path d="M389.54 177.431H384.62L393.201 157.807H399.469L408.11 177.431H403.072L397.683 164.866L396.482 161.82H396.16L394.959 164.866L389.54 177.431ZM403.131 173.096H389.306V169.142H403.131V173.096Z" fill="#FFF3E5"/>
<path d="M371.432 177.431H367.039V157.807H371.432V177.431ZM383.119 177.431H368.269V173.477H383.119V177.431Z" fill="#FFF3E5"/>
<path d="M361.772 170.665H350.847V166.887H361.772V170.665Z" fill="#FFF3E5"/>
<path d="M335.861 177.724C333.713 177.724 331.839 177.314 330.238 176.494C328.656 175.654 327.436 174.483 326.576 172.979C325.737 171.456 325.317 169.669 325.317 167.619C325.317 165.569 325.737 163.792 326.576 162.288C327.436 160.765 328.656 159.594 330.238 158.774C331.839 157.934 333.713 157.514 335.861 157.514C338.087 157.514 339.991 157.934 341.573 158.774C343.154 159.594 344.375 160.765 345.234 162.288C346.093 163.792 346.523 165.569 346.523 167.619C346.523 169.669 346.093 171.456 345.234 172.979C344.375 174.483 343.154 175.654 341.573 176.494C339.991 177.314 338.087 177.724 335.861 177.724ZM335.861 173.506C337.306 173.506 338.458 173.321 339.317 172.95C340.196 172.559 340.831 171.934 341.221 171.075C341.631 170.216 341.836 169.064 341.836 167.619C341.836 166.155 341.631 165.003 341.221 164.163C340.831 163.304 340.196 162.689 339.317 162.318C338.458 161.927 337.306 161.732 335.861 161.732C334.436 161.732 333.293 161.927 332.434 162.318C331.575 162.689 330.95 163.304 330.56 164.163C330.169 165.003 329.974 166.155 329.974 167.619C329.974 169.064 330.169 170.216 330.56 171.075C330.95 171.934 331.575 172.559 332.434 172.95C333.293 173.321 334.436 173.506 335.861 173.506Z" fill="#FFF3E5"/>
<path d="M315.764 177.724C313.792 177.724 312.113 177.47 310.726 176.962C309.34 176.435 308.286 175.664 307.563 174.649C306.841 173.614 306.479 172.335 306.479 170.812V170.636H310.873V171.163C310.873 171.768 311 172.257 311.254 172.628C311.527 172.999 312.015 173.272 312.718 173.448C313.421 173.623 314.436 173.711 315.764 173.711C316.936 173.711 317.834 173.653 318.459 173.536C319.084 173.399 319.513 173.194 319.748 172.921C319.982 172.647 320.099 172.296 320.099 171.866C320.099 171.261 319.894 170.821 319.484 170.548C319.094 170.275 318.4 170.05 317.404 169.874L311.898 169.084C310.726 168.888 309.721 168.566 308.881 168.117C308.061 167.668 307.426 167.072 306.977 166.33C306.528 165.569 306.304 164.651 306.304 163.577C306.304 162.835 306.46 162.103 306.772 161.38C307.104 160.658 307.622 160.014 308.325 159.447C309.028 158.861 309.945 158.393 311.078 158.041C312.23 157.69 313.636 157.514 315.296 157.514C317.307 157.514 318.957 157.807 320.246 158.393C321.554 158.959 322.53 159.769 323.175 160.824C323.819 161.859 324.141 163.06 324.141 164.427V164.602H319.718V164.192C319.718 163.567 319.582 163.06 319.308 162.669C319.054 162.279 318.576 161.995 317.873 161.82C317.17 161.624 316.165 161.527 314.856 161.527C313.802 161.527 312.972 161.595 312.367 161.732C311.781 161.869 311.361 162.074 311.107 162.347C310.853 162.62 310.726 162.972 310.726 163.401C310.726 163.772 310.805 164.085 310.961 164.339C311.117 164.573 311.361 164.758 311.693 164.895C312.025 165.032 312.464 165.149 313.011 165.247L318.517 166.125C319.982 166.36 321.144 166.74 322.003 167.268C322.882 167.795 323.516 168.439 323.907 169.201C324.297 169.943 324.493 170.763 324.493 171.661C324.493 172.715 324.2 173.711 323.614 174.649C323.028 175.566 322.091 176.308 320.802 176.875C319.513 177.441 317.834 177.724 315.764 177.724Z" fill="#FFF3E5"/>
<path d="M295.012 177.724C292.884 177.724 291.107 177.382 289.682 176.699C288.256 176.016 287.182 175.039 286.46 173.77C285.737 172.501 285.376 170.987 285.376 169.23V157.807H289.769V168.908C289.769 170.021 289.926 170.919 290.238 171.603C290.57 172.266 291.117 172.745 291.878 173.038C292.659 173.311 293.704 173.448 295.012 173.448C296.36 173.448 297.414 173.311 298.176 173.038C298.937 172.745 299.474 172.266 299.786 171.603C300.099 170.919 300.255 170.021 300.255 168.908V157.807H304.649V169.23C304.649 170.987 304.287 172.501 303.565 173.77C302.842 175.039 301.768 176.016 300.343 176.699C298.937 177.382 297.16 177.724 295.012 177.724Z" fill="#FFF3E5"/>
<path d="M273.118 177.431H268.725V157.807H273.118V177.431ZM284.805 177.431H269.955V173.477H284.805V177.431Z" fill="#FFF3E5"/>
<path d="M242.509 177.431H237.588L246.17 157.807H252.438L261.079 177.431H256.041L250.652 164.866L249.451 161.82H249.128L247.928 164.866L242.509 177.431ZM256.099 173.096H242.275V169.142H256.099V173.096Z" fill="#FFF3E5"/>
<path d="M234.033 177.431H227.765L219.623 157.807H224.924L230.811 172.979H231.104L236.903 157.807H242.176L234.033 177.431Z" fill="#FFF3E5"/>
<path d="M217.678 177.431H213.284V157.807H217.678V177.431Z" fill="#FFF3E5"/>
<path d="M204.416 177.431H200.023V157.807H204.416V177.431ZM211.709 161.761H192.729V157.807H211.709V161.761Z" fill="#FFF3E5"/>
<path d="M177.575 177.431H172.654L181.236 157.807H187.504L196.145 177.431H191.107L185.717 164.866L184.517 161.82H184.194L182.994 164.866L177.575 177.431ZM191.165 173.096H177.341V169.142H191.165V173.096Z" fill="#FFF3E5"/>
<path d="M157.036 177.431H152.642V157.807H163.479C165.1 157.807 166.477 158.041 167.609 158.51C168.742 158.959 169.601 159.623 170.187 160.502C170.772 161.38 171.065 162.445 171.065 163.694C171.065 164.768 170.86 165.686 170.45 166.448C170.04 167.209 169.425 167.824 168.605 168.293C167.785 168.742 166.76 169.025 165.53 169.142V169.377C166.408 169.611 167.062 169.962 167.492 170.431C167.922 170.9 168.322 171.476 168.693 172.159L171.534 177.431H166.438L163.743 172.335C163.469 171.827 163.186 171.427 162.893 171.134C162.601 170.841 162.22 170.636 161.751 170.519C161.302 170.382 160.697 170.314 159.935 170.314H157.036V177.431ZM157.036 161.761V167.004H163.45C164.485 167.004 165.246 166.828 165.735 166.477C166.223 166.106 166.467 165.403 166.467 164.368C166.467 163.392 166.223 162.718 165.735 162.347C165.246 161.956 164.485 161.761 163.45 161.761H157.036Z" fill="#FFF3E5"/>
<path d="M138.443 177.431H134.05V157.807H138.443V177.431ZM150.657 177.431H135.28V173.477H150.657V177.431ZM150.218 169.523H135.28V165.598H150.218V169.523ZM150.657 161.761H135.28V157.807H150.657V161.761Z" fill="#FFF3E5"/>
<path d="M125.022 172.013H116.294V168.058H124.554C125.784 168.058 126.682 167.844 127.248 167.414C127.834 166.965 128.127 166.125 128.127 164.895C128.127 163.704 127.834 162.884 127.248 162.435C126.682 161.986 125.784 161.761 124.554 161.761H116.294V157.807H125.022C126.545 157.807 127.863 158.09 128.976 158.657C130.089 159.203 130.949 160.004 131.554 161.058C132.179 162.113 132.491 163.392 132.491 164.895C132.491 166.399 132.179 167.687 131.554 168.761C130.949 169.816 130.089 170.626 128.976 171.192C127.863 171.739 126.545 172.013 125.022 172.013ZM119.164 177.431H114.771V157.807H119.164V177.431Z" fill="#FFF3E5"/>
<path d="M102.194 177.724C100.046 177.724 98.1712 177.314 96.5701 176.494C94.9884 175.654 93.768 174.483 92.9089 172.979C92.0692 171.456 91.6494 169.669 91.6494 167.619C91.6494 165.569 92.0692 163.792 92.9089 162.288C93.768 160.765 94.9884 159.594 96.5701 158.774C98.1712 157.934 100.046 157.514 102.194 157.514C104.42 157.514 106.324 157.934 107.905 158.774C109.487 159.594 110.707 160.765 111.566 162.288C112.426 163.792 112.855 165.569 112.855 167.619C112.855 169.669 112.426 171.456 111.566 172.979C110.707 174.483 109.487 175.654 107.905 176.494C106.324 177.314 104.42 177.724 102.194 177.724ZM102.194 173.506C103.639 173.506 104.791 173.321 105.65 172.95C106.529 172.559 107.163 171.934 107.554 171.075C107.964 170.216 108.169 169.064 108.169 167.619C108.169 166.155 107.964 165.003 107.554 164.163C107.163 163.304 106.529 162.689 105.65 162.318C104.791 161.927 103.639 161.732 102.194 161.732C100.768 161.732 99.626 161.927 98.7668 162.318C97.9076 162.689 97.2828 163.304 96.8923 164.163C96.5017 165.003 96.3065 166.155 96.3065 167.619C96.3065 169.064 96.5017 170.216 96.8923 171.075C97.2828 171.934 97.9076 172.559 98.7668 172.95C99.626 173.321 100.768 173.506 102.194 173.506Z" fill="#FFF3E5"/>
<path d="M79.5116 177.724C77.3636 177.724 75.4891 177.314 73.8879 176.494C72.3063 175.654 71.0859 174.483 70.2267 172.979C69.3871 171.456 68.9673 169.669 68.9673 167.619C68.9673 165.569 69.3871 163.792 70.2267 162.288C71.0859 160.765 72.3063 159.594 73.8879 158.774C75.4891 157.934 77.3636 157.514 79.5116 157.514C81.7376 157.514 83.6414 157.934 85.223 158.774C86.8047 159.594 88.0251 160.765 88.8842 162.288C89.7434 163.792 90.173 165.569 90.173 167.619C90.173 169.669 89.7434 171.456 88.8842 172.979C88.0251 174.483 86.8047 175.654 85.223 176.494C83.6414 177.314 81.7376 177.724 79.5116 177.724ZM79.5116 173.506C80.9565 173.506 82.1086 173.321 82.9677 172.95C83.8464 172.559 84.481 171.934 84.8715 171.075C85.2816 170.216 85.4866 169.064 85.4866 167.619C85.4866 166.155 85.2816 165.003 84.8715 164.163C84.481 163.304 83.8464 162.689 82.9677 162.318C82.1086 161.927 80.9565 161.732 79.5116 161.732C78.0861 161.732 76.9438 161.927 76.0847 162.318C75.2255 162.689 74.6007 163.304 74.2101 164.163C73.8196 165.003 73.6243 166.155 73.6243 167.619C73.6243 169.064 73.8196 170.216 74.2101 171.075C74.6007 171.934 75.2255 172.559 76.0847 172.95C76.9438 173.321 78.0861 173.506 79.5116 173.506Z" fill="#FFF3E5"/>
<path d="M57.4857 177.724C55.3378 177.724 53.473 177.314 51.8914 176.494C50.3293 175.654 49.1186 174.483 48.2595 172.979C47.4198 171.456 47 169.669 47 167.619C47 165.569 47.4198 163.792 48.2595 162.288C49.1186 160.765 50.3293 159.594 51.8914 158.774C53.473 157.934 55.3378 157.514 57.4857 157.514C59.536 157.514 61.3031 157.836 62.7871 158.481C64.2906 159.125 65.4525 160.043 66.2726 161.234C67.0927 162.425 67.5027 163.86 67.5027 165.54V165.979H62.6114V165.54C62.6114 164.251 62.2111 163.294 61.4105 162.669C60.6294 162.044 59.3505 161.732 57.5736 161.732C56.1481 161.732 54.9961 161.927 54.1174 162.318C53.2582 162.689 52.6334 163.304 52.2428 164.163C51.8523 165.003 51.6571 166.155 51.6571 167.619C51.6571 169.064 51.8523 170.216 52.2428 171.075C52.6334 171.934 53.2582 172.559 54.1174 172.95C54.9961 173.321 56.1481 173.506 57.5736 173.506C59.3505 173.506 60.6294 173.194 61.4105 172.569C62.2111 171.944 62.6114 170.987 62.6114 169.699V169.259H67.5027V169.699C67.5027 171.358 67.0927 172.794 66.2726 174.004C65.4525 175.195 64.2906 176.113 62.7871 176.757C61.3031 177.402 59.536 177.724 57.4857 177.724Z" fill="#FFF3E5"/>
<path d="M737.85 139.126H713.387V123.558H711.997V98.6784C711.997 95.1573 711.071 92.9334 709.217 92.0067C707.457 90.9874 704.26 90.4778 699.627 90.4778C695.364 90.4778 692.399 90.9874 690.731 92.0067C689.156 93.026 688.368 95.0183 688.368 97.9835V98.5394H662.238V98.2614C662.238 92.0531 663.859 86.6786 667.102 82.1382C670.346 77.5051 674.932 73.9376 680.863 71.4357C686.793 68.9338 693.696 67.6829 701.573 67.6829C709.727 67.6829 716.491 68.9801 721.866 71.5747C727.24 74.0766 731.225 77.6904 733.819 82.4162C736.506 87.0493 737.85 92.6554 737.85 99.2344V139.126ZM685.588 140.515C677.712 140.515 671.597 138.801 667.241 135.373C662.979 131.944 660.848 127.265 660.848 121.334C660.848 117.999 661.635 115.033 663.211 112.439C664.786 109.844 667.241 107.759 670.577 106.184C673.913 104.516 678.222 103.404 683.504 102.848L713.387 99.9294V114.385L690.453 117.026C689.249 117.118 688.368 117.396 687.812 117.86C687.349 118.323 687.117 118.925 687.117 119.666C687.117 120.778 687.627 121.52 688.646 121.89C689.758 122.168 691.334 122.307 693.372 122.307C698.005 122.307 701.665 122.076 704.353 121.612C707.04 121.056 708.986 120.083 710.19 118.693C711.395 117.304 711.997 115.311 711.997 112.717L713.943 112.161V124.392H711.997C710.7 129.303 707.874 133.241 703.519 136.207C699.164 139.079 693.187 140.515 685.588 140.515Z" fill="#FFF3E5"/>
<path d="M656.127 139.126H629.996V103.821C629.996 98.9101 628.93 95.5742 626.799 93.8136C624.668 91.9604 620.73 91.0338 614.985 91.0338C609.24 91.0338 605.394 91.9141 603.448 93.6747C601.595 95.3426 600.668 98.4468 600.668 102.987H598.028L595.804 90.3388H600.39C600.946 86.447 602.197 82.7868 604.143 79.3583C606.182 75.9298 609.147 73.1499 613.039 71.0187C617.023 68.7948 622.12 67.6829 628.328 67.6829C634.629 67.6829 639.818 68.8411 643.895 71.1577C648.065 73.4743 651.123 76.6248 653.069 80.6093C655.108 84.5937 656.127 89.1342 656.127 94.2306V139.126ZM600.668 139.126H574.538V69.0728H599V90.6168L600.668 91.3118V139.126Z" fill="#FFF3E5"/>
<path d="M567.635 139.126H541.504V69.0729H567.635V139.126ZM567.635 62.6792H541.504V46H567.635V62.6792Z" fill="#FFF3E5"/>
<path d="M535.032 139.126H516.685C507.974 139.126 501.117 136.948 496.114 132.593C491.203 128.238 488.747 121.52 488.747 112.439V56.9805H514.878V108.686C514.878 111.466 515.387 113.319 516.407 114.246C517.519 115.172 519.557 115.636 522.522 115.636H535.032V139.126ZM535.032 90.4779H478.461V69.0729H535.032V90.4779Z" fill="#FFF3E5"/>
<path d="M475.91 139.126H451.447V123.558H450.057V98.6784C450.057 95.1573 449.13 92.9334 447.277 92.0067C445.516 90.9874 442.32 90.4778 437.686 90.4778C433.424 90.4778 430.459 90.9874 428.791 92.0067C427.216 93.026 426.428 95.0183 426.428 97.9835V98.5394H400.297V98.2614C400.297 92.0531 401.919 86.6786 405.162 82.1382C408.405 77.5051 412.992 73.9376 418.922 71.4357C424.853 68.9338 431.756 67.6829 439.632 67.6829C447.787 67.6829 454.551 68.9801 459.925 71.5747C465.3 74.0766 469.284 77.6904 471.879 82.4162C474.566 87.0493 475.91 92.6554 475.91 99.2344V139.126ZM423.648 140.515C415.772 140.515 409.656 138.801 405.301 135.373C401.038 131.944 398.907 127.265 398.907 121.334C398.907 117.999 399.695 115.033 401.27 112.439C402.845 109.844 405.301 107.759 408.637 106.184C411.973 104.516 416.281 103.404 421.563 102.848L451.447 99.9294V114.385L428.513 117.026C427.308 117.118 426.428 117.396 425.872 117.86C425.409 118.323 425.177 118.925 425.177 119.666C425.177 120.778 425.687 121.52 426.706 121.89C427.818 122.168 429.393 122.307 431.432 122.307C436.065 122.307 439.725 122.076 442.412 121.612C445.099 121.056 447.045 120.083 448.25 118.693C449.455 117.304 450.057 115.311 450.057 112.717L452.003 112.161V124.392H450.057C448.76 129.303 445.933 133.241 441.578 136.207C437.223 139.079 431.246 140.515 423.648 140.515Z" fill="#FFF3E5"/>
<path d="M264.574 140.515C256.698 140.515 249.702 139.311 243.586 136.902C237.47 134.492 232.698 130.601 229.27 125.226C225.841 119.852 224.127 112.809 224.127 104.099C224.127 96.5009 225.841 90.0145 229.27 84.6401C232.698 79.173 237.378 75.0032 243.308 72.1307C249.331 69.1655 256.234 67.6829 264.018 67.6829C272.08 67.6829 279.076 69.0265 285.006 71.7137C290.937 74.3082 295.523 78.2 298.767 83.3891C302.01 88.4856 303.631 94.7866 303.631 102.292C303.631 103.497 303.585 104.609 303.492 105.628C303.492 106.555 303.4 107.667 303.214 108.964H241.223V95.7596H284.311L278.612 103.96C278.612 103.126 278.612 102.339 278.612 101.597C278.612 100.763 278.612 99.9294 278.612 99.0954C278.612 94.8329 277.5 91.8677 275.277 90.1998C273.145 88.5319 269.207 87.6979 263.462 87.6979C257.532 87.6979 253.501 88.6246 251.37 90.4778C249.331 92.3311 248.312 95.6669 248.312 100.485V107.157C248.312 112.068 249.377 115.404 251.509 117.165C253.64 118.925 257.671 119.805 263.601 119.805C268.883 119.805 272.404 119.342 274.165 118.416C276.018 117.396 276.945 115.867 276.945 113.829V112.3H303.075V113.968C303.075 119.157 301.5 123.744 298.35 127.728C295.199 131.713 290.751 134.863 285.006 137.18C279.261 139.404 272.45 140.515 264.574 140.515Z" fill="#FFF3E5"/>
<path d="M165.03 140.516C158.544 140.516 153.169 139.357 148.907 137.041C144.644 134.724 141.447 131.574 139.316 127.589C137.278 123.605 136.258 119.064 136.258 113.968V69.073H162.389V104.377C162.389 109.196 163.501 112.532 165.725 114.385C168.041 116.238 172.165 117.165 178.095 117.165C184.118 117.165 188.103 116.331 190.049 114.663C192.087 112.902 193.107 109.752 193.107 105.211H195.748L197.971 117.86H193.385C192.921 121.752 191.67 125.412 189.632 128.84C187.593 132.269 184.582 135.095 180.597 137.319C176.613 139.45 171.424 140.516 165.03 140.516ZM219.237 139.126H194.775V117.582L193.107 116.887V69.073H219.237V139.126Z" fill="#FFF3E5"/>
<path d="M129.979 139.126H103.848V103.821C103.848 98.9102 102.736 95.5744 100.513 93.8138C98.2886 91.9605 94.1652 91.0339 88.1421 91.0339C84.1576 91.0339 81.0534 91.4046 78.8295 92.1459C76.6983 92.8872 75.2157 94.1381 74.3817 95.8987C73.5478 97.5666 73.1308 99.9295 73.1308 102.987H69.9339V90.3389H74.5207C75.262 86.3545 76.652 82.648 78.6905 79.2195C80.8218 75.791 83.8333 73.0111 87.7251 70.8798C91.6169 68.7486 96.528 67.683 102.458 67.683C108.667 67.683 113.81 68.8876 117.887 71.2968C121.964 73.706 124.975 76.9956 126.921 81.1654C128.96 85.2425 129.979 89.8756 129.979 95.0647V139.126ZM73.1308 139.126H47V46H73.1308V139.126Z" fill="#FFF3E5"/>
<path d="M348.993 139.126H334.881C326.509 139.126 319.918 136.974 315.108 132.671C310.388 128.367 308.027 121.728 308.027 112.754V46.0295H333.144V109.046C333.144 111.793 333.634 113.624 334.614 114.54C335.682 115.456 337.642 115.914 340.492 115.914H348.993V139.126Z" fill="#FFF3E5"/>
<path d="M394.584 139.126H380.472C372.1 139.126 365.509 136.974 360.699 132.671C355.979 128.367 353.619 121.728 353.619 112.754V46.0295H378.735V109.046C378.735 111.793 379.225 113.624 380.205 114.54C381.274 115.456 383.233 115.914 386.083 115.914H394.584V139.126Z" fill="#FFF3E5"/>
<rect x="0.5" y="46.5" width="738" height="93" stroke="#FF00DD"/>
<rect x="47.5" y="46.5" width="691" height="131" stroke="#FF00DD"/>
<defs>
<pattern id="pattern0_2095_75808" patternUnits="userSpaceOnUse" viewBox="-12669.1 1244.63 273.395 286.327" width="7.5410101490620125%" height="27.747729136381636%" x="-3.50111e-07" patternContentUnits="objectBoundingBox">
<g id="pattern0_2095_75808_inner">
<line x1="-12186" y1="1454.15" x2="-12485" y2="1702.15" stroke="white" stroke-width="3"/>
</g>
<use xlink:href="#pattern0_2095_75808_inner" transform="translate(149.5 0)"/>
<use xlink:href="#pattern0_2095_75808_inner" transform="translate(74.75 124)"/>
<use xlink:href="#pattern0_2095_75808_inner" transform="translate(224.25 124)"/>
<use xlink:href="#pattern0_2095_75808_inner" transform="translate(0 248)"/>
<use xlink:href="#pattern0_2095_75808_inner" transform="translate(149.5 248)"/>
<use xlink:href="#pattern0_2095_75808_inner" transform="translate(0 372)"/>
<use xlink:href="#pattern0_2095_75808_inner" transform="translate(149.5 372)"/>
</pattern></defs>
</svg>
