<svg width="1292" height="381" viewBox="0 0 1292 381" fill="none" xmlns="http://www.w3.org/2000/svg">
<path d="M657.245 90.274V139.615L692.437 104.786L722.186 134.898L687.358 169.727H737.061V213.263H687.358L722.186 248.092L692.437 277.842L657.245 243.376V293.079H615.16V241.924L578.518 277.842L548.768 248.092L583.597 213.263H534.256V169.727H583.597L548.768 134.898L578.518 104.786L615.16 141.429V90.274H657.245Z" fill="white"/>
<path d="M0 0H432V381H0V0Z" fill="white"/>
<path d="M432 0H860V381H432V0Z" fill="black"/>
<path d="M860 0H1292V381H860V0Z" fill="#7948CE"/>
<path d="M239.245 90.274V139.615L274.437 104.786L304.186 134.898L269.358 169.727H319.061V213.263H269.358L304.186 248.092L274.437 277.842L239.245 243.376V293.079H197.16V241.924L160.518 277.842L130.768 248.092L165.597 213.263H116.256V169.727H165.597L130.768 134.898L160.518 104.786L197.16 141.429V90.274H239.245Z" fill="black"/>
<path d="M1092.25 90.274V139.615L1127.44 104.786L1157.19 134.898L1122.36 169.727H1172.06V213.263H1122.36L1157.19 248.092L1127.44 277.842L1092.25 243.376V293.079H1050.16V241.924L1013.52 277.842L983.768 248.092L1018.6 213.263H969.256V169.727H1018.6L983.768 134.898L1013.52 104.786L1050.16 141.429V90.274H1092.25Z" fill="black"/>
<path d="M657.245 90.274V139.615L692.437 104.786L722.186 134.898L687.358 169.727H737.061V213.263H687.358L722.186 248.092L692.437 277.842L657.245 243.376V293.079H615.16V241.924L578.518 277.842L548.768 248.092L583.597 213.263H534.256V169.727H583.597L548.768 134.898L578.518 104.786L615.16 141.429V90.274H657.245Z" fill="#7948CE"/>
</svg>
