<svg width="388" height="39" viewBox="0 0 388 39" fill="none" xmlns="http://www.w3.org/2000/svg">
<path d="M68.7082 38.8825C59.8902 38.8825 54.7144 34.186 54.1873 26.9016L61.5196 26.5661C62.0947 30.5917 64.395 32.8441 68.804 32.8441C72.3983 32.8441 74.5069 31.5022 74.5069 28.9144C74.5069 26.5661 73.3088 25.1763 66.935 23.7386C58.2129 21.7737 54.8582 19.3776 54.8582 13.5788C54.8582 7.49248 59.6027 3.32313 67.6059 3.32313C76.0405 3.32313 80.5932 8.11549 81.3121 14.8248L74.0277 15.2082C73.6443 11.6618 71.3919 9.36151 67.5101 9.36151C64.2033 9.36151 62.1905 10.943 62.1905 13.3392C62.1905 15.8791 63.772 16.9334 69.2832 18.0836C78.7242 20.0006 81.8392 23.4031 81.8392 28.5789C81.8392 34.9527 76.7593 38.8825 68.7082 38.8825Z" fill="white"/>
<path d="M86.8473 38.1157V4.0899H94.0358V15.5916C95.4256 13.0516 98.0614 11.8535 101.129 11.8535C106.879 11.8535 109.803 15.8791 109.803 21.582V38.1157H102.614V23.3073C102.614 19.5213 101.512 17.5565 98.7323 17.5565C95.7611 17.5565 94.0358 19.6172 94.0358 23.499V38.1157H86.8473Z" fill="white"/>
<path d="M122.197 38.6908C116.83 38.6908 113.188 36.1029 113.188 31.6939C113.188 27.1891 116.015 24.8888 121.622 23.7386L129.913 22.1092C129.913 18.7545 128.379 17.0772 125.552 17.0772C122.82 17.0772 121.335 18.3712 120.855 20.7673L113.619 20.4319C114.577 14.7769 118.843 11.8535 125.552 11.8535C133.22 11.8535 137.102 15.5916 137.102 22.5884V31.3585C137.102 32.7962 137.581 33.1796 138.539 33.1796H139.258V38.1157C138.827 38.2595 137.677 38.4033 136.718 38.4033C134.082 38.4033 131.686 37.4927 131.063 34.2339C129.721 36.9655 126.558 38.6908 122.197 38.6908ZM120.568 31.023C120.568 32.7483 121.718 33.7547 123.923 33.7547C127.517 33.7547 129.913 31.5502 129.913 27.86V26.614L124.066 27.86C121.718 28.3393 120.568 29.3457 120.568 31.023Z" fill="white"/>
<path d="M142.074 38.1157V12.4286H148.879L149.023 17.6044C150.077 13.9622 151.994 12.4286 155.157 12.4286H157.505V18.3712H155.157C151.131 18.3712 149.262 19.8568 149.262 23.6907V38.1157H142.074Z" fill="white"/>
<path d="M171.104 38.6908C163.245 38.6908 158.165 33.3713 158.165 25.2722C158.165 17.1731 163.245 11.8535 171.056 11.8535C178.676 11.8535 183.66 17.1251 183.66 25.7514V27.1891H165.593C165.785 31.2626 167.941 33.2275 171.248 33.2275C173.644 33.2275 175.369 32.2211 176.04 30.1125L183.277 30.5438C181.887 35.6716 177.286 38.6908 171.104 38.6908ZM165.593 22.7801H176.28C176.088 19.0421 174.028 17.1731 171.056 17.1731C168.037 17.1731 165.976 19.2338 165.593 22.7801Z" fill="white"/>
<path d="M196.298 38.6908C189.78 38.6908 185.755 33.515 185.755 25.2722C185.755 17.0772 189.876 11.8535 196.298 11.8535C199.94 11.8535 202.672 13.435 204.014 16.0708V4.0899H211.202V38.1157H204.349L204.205 34.3297C202.768 37.1093 199.844 38.6908 196.298 38.6908ZM193.135 25.2722C193.135 30.0645 195.339 33.1796 198.646 33.1796C202.097 33.1796 204.014 30.4479 204.014 25.2722C204.014 20.0485 202.097 17.3648 198.646 17.3648C195.291 17.3648 193.135 20.384 193.135 25.2722Z" fill="white"/>
<path d="M236.522 38.1157L224.253 4.0899H231.777L240.835 29.9208L249.892 4.0899H257.416L245.1 38.1157H236.522Z" fill="white"/>
<path d="M259.243 38.1157V12.4286H266.432V38.1157H259.243ZM259.1 9.26566V3.51482H266.528V9.26566H259.1Z" fill="white"/>
<path d="M282.27 38.6908C273.979 38.6908 270.289 35.0486 269.906 30.0166L277.19 29.777C277.621 32.2211 279.011 33.6109 282.27 33.6109C284.858 33.6109 286.248 32.7483 286.248 31.023C286.248 29.4415 285.385 28.7227 281.12 28.0038C273.069 26.614 270.672 24.5533 270.672 20.0964C270.672 15.1603 274.506 11.8535 282.126 11.8535C289.842 11.8535 293.292 15.6395 293.676 20.6715L286.487 20.959C286.391 18.5629 285.002 16.9334 282.03 16.9334C279.49 16.9334 278.101 18.0836 278.101 19.8089C278.101 21.6779 279.155 22.4447 282.701 22.9718C290.8 24.1699 293.628 26.4703 293.628 30.9272C293.628 35.9112 289.267 38.6908 282.27 38.6908Z" fill="white"/>
<path d="M297.2 38.1157V12.4286H304.389V38.1157H297.2ZM297.057 9.26566V3.51482H304.485V9.26566H297.057Z" fill="white"/>
<path d="M320.898 38.6908C313.038 38.6908 307.863 33.4192 307.863 25.2722C307.863 17.1731 313.038 11.8535 320.898 11.8535C328.757 11.8535 333.933 17.1731 333.933 25.2722C333.933 33.4192 328.757 38.6908 320.898 38.6908ZM315.243 25.2722C315.243 30.2562 317.304 33.1796 320.898 33.1796C324.492 33.1796 326.553 30.2562 326.553 25.2722C326.553 20.2881 324.492 17.3648 320.898 17.3648C317.304 17.3648 315.243 20.2881 315.243 25.2722Z" fill="white"/>
<path d="M337.451 38.1157V12.4286H343.92L344.064 16.6459C345.502 13.1954 348.281 11.8535 351.684 11.8535C357.195 11.8535 360.406 15.6395 360.406 21.582V38.1157H353.217V23.9782C353.217 19.8568 352.307 17.5565 349.288 17.5565C346.317 17.5565 344.639 19.8568 344.639 23.9782V38.1157H337.451Z" fill="white"/>
<path d="M376.155 38.6908C367.865 38.6908 364.174 35.0486 363.791 30.0166L371.075 29.777C371.507 32.2211 372.897 33.6109 376.155 33.6109C378.743 33.6109 380.133 32.7483 380.133 31.023C380.133 29.4415 379.27 28.7227 375.005 28.0038C366.954 26.614 364.558 24.5533 364.558 20.0964C364.558 15.1603 368.392 11.8535 376.012 11.8535C383.727 11.8535 387.178 15.6395 387.561 20.6715L380.373 20.959C380.277 18.5629 378.887 16.9334 375.916 16.9334C373.376 16.9334 371.986 18.0836 371.986 19.8089C371.986 21.6779 373.04 22.4447 376.587 22.9718C384.686 24.1699 387.513 26.4703 387.513 30.9272C387.513 35.9112 383.152 38.6908 376.155 38.6908Z" fill="white"/>
<path d="M23.4194 0.928711V10.1795L30.0174 3.64954L35.5951 9.29526L29.0651 15.8252H38.3839V23.9877H29.0651L35.5951 30.5177L30.0174 36.0954L23.4194 29.6334V38.9523H15.529V29.3614L8.65888 36.0954L3.08118 30.5177L9.61117 23.9877H0.360352V15.8252H9.61117L3.08118 9.29526L8.65888 3.64954L15.529 10.5196V0.928711H23.4194Z" fill="white"/>
</svg>
