<svg width="689" height="53" viewBox="0 0 689 53" fill="none" xmlns="http://www.w3.org/2000/svg">
<path d="M68.7082 43.8825C59.8902 43.8825 54.7144 39.186 54.1873 31.9016L61.5196 31.5661C62.0947 35.5917 64.395 37.8441 68.804 37.8441C72.3983 37.8441 74.5069 36.5023 74.5069 33.9144C74.5069 31.5661 73.3088 30.1763 66.935 28.7386C58.2129 26.7737 54.8582 24.3776 54.8582 18.5788C54.8582 12.4925 59.6027 8.32314 67.6059 8.32314C76.0405 8.32314 80.5932 13.1155 81.3121 19.8248L74.0277 20.2082C73.6443 16.6619 71.3919 14.3615 67.5101 14.3615C64.2033 14.3615 62.1905 15.943 62.1905 18.3392C62.1905 20.8791 63.772 21.9335 69.2832 23.0836C78.7242 25.0006 81.8392 28.4032 81.8392 33.5789C81.8392 39.9528 76.7593 43.8825 68.7082 43.8825Z" fill="white"/>
<path d="M86.8473 43.1157V9.08991H94.0358V20.5916C95.4256 18.0516 98.0614 16.8535 101.129 16.8535C106.879 16.8535 109.803 20.8791 109.803 26.5821V43.1157H102.614V28.3073C102.614 24.5213 101.512 22.5565 98.7323 22.5565C95.7611 22.5565 94.0358 24.6172 94.0358 28.499V43.1157H86.8473Z" fill="white"/>
<path d="M122.197 43.6908C116.83 43.6908 113.188 41.1029 113.188 36.694C113.188 32.1891 116.015 29.8888 121.622 28.7386L129.913 27.1092C129.913 23.7546 128.379 22.0772 125.552 22.0772C122.82 22.0772 121.335 23.3712 120.855 25.7674L113.619 25.4319C114.577 19.7769 118.843 16.8535 125.552 16.8535C133.22 16.8535 137.102 20.5916 137.102 27.5885V36.3585C137.102 37.7962 137.581 38.1796 138.539 38.1796H139.258V43.1157C138.827 43.2595 137.677 43.4033 136.718 43.4033C134.082 43.4033 131.686 42.4927 131.063 39.2339C129.721 41.9656 126.558 43.6908 122.197 43.6908ZM120.568 36.023C120.568 37.7483 121.718 38.7547 123.923 38.7547C127.517 38.7547 129.913 36.5502 129.913 32.8601V31.614L124.066 32.8601C121.718 33.3393 120.568 34.3457 120.568 36.023Z" fill="white"/>
<path d="M142.074 43.1157V17.4286H148.879L149.023 22.6044C150.077 18.9622 151.994 17.4286 155.157 17.4286H157.505V23.3712H155.157C151.131 23.3712 149.262 24.8568 149.262 28.6907V43.1157H142.074Z" fill="white"/>
<path d="M171.104 43.6908C163.245 43.6908 158.165 38.3713 158.165 30.2722C158.165 22.1731 163.245 16.8535 171.056 16.8535C178.676 16.8535 183.66 22.1252 183.66 30.7514V32.1891H165.593C165.785 36.2626 167.941 38.2275 171.248 38.2275C173.644 38.2275 175.369 37.2211 176.04 35.1125L183.277 35.5438C181.887 40.6716 177.286 43.6908 171.104 43.6908ZM165.593 27.7801H176.28C176.088 24.0421 174.028 22.1731 171.056 22.1731C168.037 22.1731 165.976 24.2338 165.593 27.7801Z" fill="white"/>
<path d="M196.298 43.6908C189.78 43.6908 185.755 38.5151 185.755 30.2722C185.755 22.0772 189.876 16.8535 196.298 16.8535C199.94 16.8535 202.672 18.435 204.014 21.0708V9.08991H211.202V43.1157H204.349L204.205 39.3298C202.768 42.1093 199.844 43.6908 196.298 43.6908ZM193.135 30.2722C193.135 35.0645 195.339 38.1796 198.646 38.1796C202.097 38.1796 204.014 35.4479 204.014 30.2722C204.014 25.0485 202.097 22.3648 198.646 22.3648C195.291 22.3648 193.135 25.384 193.135 30.2722Z" fill="white"/>
<path d="M236.522 43.1157L224.253 9.08991H231.777L240.835 34.9208L249.892 9.08991H257.416L245.1 43.1157H236.522Z" fill="white"/>
<path d="M259.243 43.1157V17.4286H266.432V43.1157H259.243ZM259.1 14.2657V8.51483H266.528V14.2657H259.1Z" fill="white"/>
<path d="M282.27 43.6908C273.979 43.6908 270.289 40.0486 269.906 35.0166L277.19 34.777C277.621 37.2211 279.011 38.6109 282.27 38.6109C284.858 38.6109 286.248 37.7483 286.248 36.023C286.248 34.4415 285.385 33.7227 281.12 33.0038C273.069 31.614 270.672 29.5533 270.672 25.0964C270.672 20.1603 274.506 16.8535 282.126 16.8535C289.842 16.8535 293.292 20.6395 293.676 25.6715L286.487 25.959C286.391 23.5629 285.002 21.9335 282.03 21.9335C279.49 21.9335 278.101 23.0836 278.101 24.8089C278.101 26.6779 279.155 27.4447 282.701 27.9718C290.8 29.1699 293.628 31.4703 293.628 35.9272C293.628 40.9112 289.267 43.6908 282.27 43.6908Z" fill="white"/>
<path d="M297.2 43.1157V17.4286H304.389V43.1157H297.2ZM297.057 14.2657V8.51483H304.485V14.2657H297.057Z" fill="white"/>
<path d="M320.898 43.6908C313.038 43.6908 307.863 38.4192 307.863 30.2722C307.863 22.1731 313.038 16.8535 320.898 16.8535C328.757 16.8535 333.933 22.1731 333.933 30.2722C333.933 38.4192 328.757 43.6908 320.898 43.6908ZM315.243 30.2722C315.243 35.2562 317.304 38.1796 320.898 38.1796C324.492 38.1796 326.553 35.2562 326.553 30.2722C326.553 25.2881 324.492 22.3648 320.898 22.3648C317.304 22.3648 315.243 25.2881 315.243 30.2722Z" fill="white"/>
<path d="M337.451 43.1157V17.4286H343.92L344.064 21.6459C345.502 18.1954 348.281 16.8535 351.684 16.8535C357.195 16.8535 360.406 20.6395 360.406 26.5821V43.1157H353.217V28.9782C353.217 24.8568 352.307 22.5565 349.288 22.5565C346.317 22.5565 344.639 24.8568 344.639 28.9782V43.1157H337.451Z" fill="white"/>
<path d="M376.155 43.6908C367.865 43.6908 364.174 40.0486 363.791 35.0166L371.075 34.777C371.507 37.2211 372.897 38.6109 376.155 38.6109C378.743 38.6109 380.133 37.7483 380.133 36.023C380.133 34.4415 379.27 33.7227 375.005 33.0038C366.954 31.614 364.558 29.5533 364.558 25.0964C364.558 20.1603 368.392 16.8535 376.012 16.8535C383.727 16.8535 387.178 20.6395 387.561 25.6715L380.373 25.959C380.277 23.5629 378.887 21.9335 375.916 21.9335C373.376 21.9335 371.986 23.0836 371.986 24.8089C371.986 26.6779 373.04 27.4447 376.587 27.9718C384.686 29.1699 387.513 31.4703 387.513 35.9272C387.513 40.9112 383.152 43.6908 376.155 43.6908Z" fill="white"/>
<path d="M23.4194 5.92872V15.1795L30.0174 8.64955L35.5951 14.2953L29.0651 20.8253H38.3839V28.9877H29.0651L35.5951 35.5177L30.0174 41.0954L23.4194 34.6335V43.9523H15.529V34.3614L8.65888 41.0954L3.08118 35.5177L9.61117 28.9877H0.360352V20.8253H9.61117L3.08118 14.2953L8.65888 8.64955L15.529 15.5196V5.92872H23.4194Z" fill="white"/>
<path d="M443.755 0.850098V53H520.535V0.850098H443.755ZM519.077 51.516H445.239V2.28207H519.077V51.516Z" fill="white"/>
<path d="M480.57 13.0089L482.132 11.8633L483.694 13.0089L483.095 11.1603L484.683 10.0408H482.731L482.132 8.16621L481.533 10.0408H479.58L481.168 11.1603L480.57 13.0089Z" fill="white"/>
<path d="M472.525 15.1698L474.061 14.0242L475.623 15.1698L475.05 13.3213L476.612 12.2017H474.659L474.061 10.3271L473.462 12.2017H471.535L473.097 13.3213L472.525 15.1698Z" fill="white"/>
<path d="M468.176 16.2373L467.578 18.1119H465.625L467.213 19.2575L466.614 21.08L468.176 19.9605L469.739 21.08L469.14 19.2575L470.728 18.1119H468.775L468.176 16.2373Z" fill="white"/>
<path d="M466.016 28.0056L467.578 29.1251L466.979 27.3026L468.567 26.157H466.614L466.016 24.3085L465.417 26.157H463.464L465.052 27.3026L464.453 29.1251L466.016 28.0056Z" fill="white"/>
<path d="M468.775 34.2281L468.176 32.3796L467.578 34.2542L465.625 34.2281L467.213 35.3737L466.614 37.2223L468.176 36.0767L469.739 37.2223L469.14 35.3737L470.728 34.2281H468.775Z" fill="white"/>
<path d="M474.686 40.1383L474.087 38.2897L473.488 40.1643L471.535 40.1383L473.123 41.2839L472.525 43.1324L474.087 41.9868L475.649 43.1324L475.05 41.2839L476.638 40.1383H474.686Z" fill="white"/>
<path d="M482.731 42.2992L482.132 40.4247L481.533 42.2992H479.58L481.168 43.4188L480.57 45.2673L482.132 44.1218L483.694 45.2673L483.095 43.4188L484.683 42.2992H482.731Z" fill="white"/>
<path d="M490.776 40.1383L490.203 38.2897L489.604 40.1643L487.651 40.1383L489.214 41.2839L488.641 43.1324L490.203 41.9868L491.739 43.1324L491.166 41.2839L492.728 40.1383H490.776Z" fill="white"/>
<path d="M496.712 34.2281L496.113 32.3796L495.514 34.2542L493.561 34.2281L495.15 35.3737L494.551 37.2223L496.113 36.0767L497.649 37.2223L497.076 35.3737L498.638 34.2281H496.712Z" fill="white"/>
<path d="M500.799 26.131H498.847L498.248 24.2824L497.649 26.131H495.696L497.285 27.2765L496.686 29.1251L498.248 27.9795L499.81 29.1251L499.211 27.2765L500.799 26.131Z" fill="white"/>
<path d="M494.551 21.054L496.113 19.9344L497.649 21.054L497.076 19.2314L498.638 18.0859H496.712L496.113 16.2113L495.514 18.0859H493.561L495.15 19.2314L494.551 21.054Z" fill="white"/>
<path d="M490.203 10.3271L489.604 12.2017H487.677L489.24 13.3473L488.667 15.1698L490.203 14.0242L491.765 15.1698L491.166 13.3473L492.754 12.2017H490.802L490.203 10.3271Z" fill="white"/>
<path d="M537.406 16.3674L539.775 17.1225C539.411 18.4503 538.812 19.4136 537.953 20.0645C537.119 20.7154 536.026 21.0278 534.724 21.0278C533.11 21.0278 531.782 20.4811 530.767 19.3876C529.725 18.2941 529.205 16.784 529.205 14.8834C529.205 12.8786 529.725 11.2904 530.767 10.1969C531.808 9.07737 533.188 8.53061 534.88 8.53061C536.364 8.53061 537.562 8.97322 538.499 9.83241C539.046 10.3531 539.463 11.0821 539.749 12.0715L537.328 12.6443C537.198 12.0194 536.885 11.5247 536.443 11.1602C536 10.7957 535.427 10.6135 534.776 10.6135C533.891 10.6135 533.162 10.9259 532.589 11.5768C532.042 12.2277 531.756 13.2691 531.756 14.7011C531.756 16.2372 532.042 17.3307 532.589 17.9816C533.136 18.6325 533.865 18.945 534.75 18.945C535.401 18.945 535.948 18.7367 536.417 18.3201C536.859 17.9035 537.198 17.2526 537.406 16.3674Z" fill="white"/>
<path d="M541.311 16.2893C541.311 15.5082 541.493 14.7792 541.884 14.0502C542.275 13.3212 542.795 12.7745 543.498 12.4099C544.201 12.0194 544.982 11.8372 545.841 11.8372C547.169 11.8372 548.263 12.2798 549.096 13.139C549.955 13.9981 550.372 15.0916 550.372 16.4195C550.372 17.7473 549.955 18.8408 549.096 19.726C548.237 20.6113 547.169 21.0278 545.868 21.0278C545.06 21.0278 544.305 20.8456 543.576 20.4811C542.847 20.1166 542.301 19.5959 541.91 18.8929C541.494 18.1639 541.311 17.3047 541.311 16.2893ZM543.68 16.4195C543.68 17.2787 543.889 17.9556 544.305 18.4242C544.722 18.8929 545.217 19.1272 545.841 19.1272C546.44 19.1272 546.961 18.8929 547.378 18.4242C547.794 17.9556 548.002 17.2787 548.002 16.4195C548.002 15.5603 547.794 14.9094 547.378 14.4407C546.961 13.9721 546.466 13.7378 545.841 13.7378C545.243 13.7378 544.722 13.9721 544.305 14.4407C543.889 14.8834 543.68 15.5603 543.68 16.4195Z" fill="white"/>
<path d="M551.934 17.5911V15.2739H556.49V17.5911H551.934Z" fill="white"/>
<path d="M556.803 12.0455H558.104V11.3946C558.104 10.6656 558.183 10.0928 558.339 9.7543C558.495 9.3898 558.781 9.1034 559.198 8.86908C559.614 8.63476 560.161 8.53061 560.786 8.53061C561.437 8.53061 562.088 8.63476 562.739 8.81701L562.426 10.4312C562.062 10.3531 561.697 10.3011 561.359 10.3011C561.02 10.3011 560.786 10.3792 560.63 10.5354C560.474 10.6916 560.422 11.004 560.422 11.4466V12.0455H562.166V13.868H560.422V20.8196H558.104V13.868H556.803V12.0455Z" fill="white"/>
<path d="M569.222 20.8196V19.5178C568.909 19.9864 568.493 20.3509 567.972 20.6373C567.451 20.8977 566.905 21.0539 566.332 21.0539C565.733 21.0539 565.212 20.9237 564.744 20.6633C564.275 20.403 563.936 20.0385 563.728 19.5698C563.52 19.1012 563.416 18.4503 563.416 17.6171V12.0455H565.733V16.081C565.733 17.3047 565.785 18.0597 565.863 18.3461C565.941 18.6325 566.097 18.8408 566.332 18.997C566.566 19.1533 566.852 19.2314 567.191 19.2314C567.581 19.2314 567.946 19.1272 568.258 18.8929C568.571 18.6846 568.779 18.3982 568.909 18.0858C569.013 17.7734 569.091 16.9662 569.091 15.7165V12.0455H571.409V20.8196H569.222Z" fill="white"/>
<path d="M581.771 20.8196H579.454V16.3414C579.454 15.4041 579.402 14.7792 579.298 14.4928C579.194 14.2065 579.037 13.9982 578.803 13.8419C578.569 13.6857 578.308 13.6076 577.996 13.6076C577.605 13.6076 577.241 13.7118 576.902 13.9461C576.59 14.1544 576.356 14.4668 576.251 14.8313C576.121 15.1958 576.069 15.8727 576.069 16.8361V20.8196H573.752V12.0455H575.913V13.3473C576.668 12.3579 577.631 11.8632 578.803 11.8632C579.324 11.8632 579.792 11.9674 580.209 12.1496C580.625 12.3319 580.964 12.5662 581.172 12.8526C581.381 13.139 581.537 13.4514 581.615 13.8159C581.693 14.1804 581.745 14.7011 581.745 15.3781V20.8196H581.771Z" fill="white"/>
<path d="M592.185 20.8196H590.024V19.5178C589.66 20.0125 589.243 20.403 588.749 20.6373C588.254 20.8717 587.759 21.0018 587.265 21.0018C586.249 21.0018 585.39 20.5853 584.661 19.7781C583.932 18.971 583.594 17.8255 583.594 16.3674C583.594 14.8834 583.932 13.7378 584.635 12.9828C585.338 12.2017 586.223 11.8112 587.291 11.8112C588.28 11.8112 589.113 12.2277 589.842 13.0348V8.68685H592.159V20.8196H592.185ZM585.989 16.2373C585.989 17.1746 586.119 17.8515 586.379 18.2681C586.744 18.8669 587.265 19.1793 587.942 19.1793C588.488 19.1793 588.931 18.945 589.295 18.5024C589.66 18.0598 589.868 17.3568 589.868 16.4716C589.868 15.4562 589.686 14.7272 589.321 14.2846C588.957 13.842 588.488 13.6076 587.915 13.6076C587.369 13.6076 586.9 13.8159 586.536 14.2585C586.171 14.7011 585.989 15.3781 585.989 16.2373Z" fill="white"/>
<path d="M599.554 18.0077L601.871 18.3982C601.584 19.2574 601.116 19.8823 600.465 20.3249C599.814 20.7675 599.033 21.0018 598.043 21.0018C596.507 21.0018 595.388 20.5071 594.659 19.5178C594.086 18.7107 593.8 17.7213 593.8 16.4976C593.8 15.0396 594.19 13.894 594.945 13.0869C595.7 12.2798 596.664 11.8632 597.835 11.8632C599.137 11.8632 600.178 12.3058 600.933 13.165C601.689 14.0242 602.053 15.352 602.027 17.1225H596.221C596.247 17.7994 596.429 18.3462 596.794 18.7367C597.158 19.1272 597.601 19.3095 598.122 19.3095C598.486 19.3095 598.799 19.2053 599.033 19.0231C599.267 18.8408 599.423 18.4503 599.554 18.0077ZM599.684 15.6645C599.658 14.9875 599.501 14.4928 599.163 14.1283C598.825 13.7899 598.434 13.6076 597.965 13.6076C597.471 13.6076 597.028 13.7899 596.716 14.1544C596.377 14.5189 596.221 15.0136 596.221 15.6645H599.684Z" fill="white"/>
<path d="M611.921 20.8196H609.76V19.5178C609.395 20.0125 608.979 20.403 608.484 20.6373C607.989 20.8717 607.495 21.0018 607 21.0018C605.984 21.0018 605.125 20.5853 604.396 19.7781C603.667 18.971 603.329 17.8255 603.329 16.3674C603.329 14.8834 603.667 13.7378 604.37 12.9828C605.073 12.2017 605.958 11.8112 607.026 11.8112C608.015 11.8112 608.848 12.2277 609.577 13.0348V8.68685H611.895V20.8196H611.921ZM605.724 16.2373C605.724 17.1746 605.854 17.8515 606.115 18.2681C606.479 18.8669 607 19.1793 607.677 19.1793C608.224 19.1793 608.666 18.945 609.031 18.5024C609.395 18.0598 609.603 17.3568 609.603 16.4716C609.603 15.4562 609.421 14.7272 609.057 14.2846C608.692 13.842 608.224 13.6076 607.651 13.6076C607.104 13.6076 606.635 13.8159 606.271 14.2585C605.932 14.7011 605.724 15.3781 605.724 16.2373Z" fill="white"/>
<path d="M618.82 8.68685H621.137V13.0609C621.866 12.2538 622.699 11.8372 623.689 11.8372C624.756 11.8372 625.642 12.2277 626.345 13.0088C627.048 13.7899 627.386 14.8834 627.386 16.3414C627.386 17.8515 627.021 18.9971 626.318 19.8042C625.616 20.6113 624.73 21.0279 623.715 21.0279C623.22 21.0279 622.726 20.8977 622.231 20.6634C621.736 20.403 621.32 20.0385 620.981 19.5438V20.8456H618.82V8.68685ZM621.137 16.2373C621.137 17.1485 621.268 17.8255 621.58 18.242C621.97 18.8669 622.517 19.1793 623.194 19.1793C623.715 19.1793 624.131 18.971 624.496 18.5284C624.86 18.0858 625.043 17.4089 625.043 16.4455C625.043 15.4302 624.86 14.7272 624.496 14.2846C624.131 13.842 623.663 13.6076 623.09 13.6076C622.543 13.6076 622.075 13.8159 621.71 14.2585C621.32 14.7011 621.137 15.352 621.137 16.2373Z" fill="white"/>
<path d="M628.167 12.0455H630.64L632.749 18.268L634.806 12.0455H637.201L634.077 20.4811L633.53 22.0172C633.322 22.5379 633.14 22.9285 632.958 23.1888C632.775 23.4492 632.567 23.6835 632.333 23.8397C632.098 23.9959 631.786 24.1261 631.448 24.2303C631.109 24.3344 630.692 24.3604 630.25 24.3604C629.807 24.3604 629.365 24.3084 628.948 24.2303L628.74 22.4077C629.104 22.4859 629.443 22.5119 629.729 22.5119C630.276 22.5119 630.666 22.3557 630.927 22.0432C631.187 21.7308 631.395 21.3142 631.526 20.8456L628.167 12.0455Z" fill="white"/>
<path d="M533.657 32.3535V34.202H532.069V37.7429C532.069 38.4719 532.095 38.8885 532.121 38.9926C532.147 39.1228 532.225 39.2009 532.329 39.279C532.433 39.3571 532.563 39.3832 532.719 39.3832C532.928 39.3832 533.24 39.3051 533.657 39.1489L533.865 40.9453C533.318 41.1797 532.719 41.2838 532.042 41.2838C531.626 41.2838 531.235 41.2057 530.923 41.0755C530.585 40.9453 530.35 40.7631 530.194 40.5288C530.038 40.2944 529.934 40.008 529.855 39.6175C529.803 39.3571 529.777 38.8104 529.777 37.9772V34.15H528.71V32.3535H529.777V30.6091L532.121 29.2552V32.3535H533.657Z" fill="white"/>
<path d="M537.588 28.9949V33.447C538.343 32.5618 539.228 32.1452 540.27 32.1452C540.817 32.1452 541.285 32.2493 541.728 32.4316C542.171 32.6138 542.483 32.8742 542.691 33.1866C542.9 33.4991 543.056 33.8375 543.134 34.202C543.212 34.5665 543.264 35.1654 543.264 35.9464V41.1015H540.947V36.4672C540.947 35.5559 540.895 34.9571 540.817 34.7228C540.739 34.4624 540.582 34.2801 540.348 34.1239C540.114 33.9677 539.853 33.9156 539.515 33.9156C539.124 33.9156 538.786 34.0198 538.473 34.202C538.161 34.3843 537.953 34.6707 537.797 35.0612C537.666 35.4257 537.588 35.9985 537.588 36.7275V41.1276H535.271V29.0209H537.588V28.9949Z" fill="white"/>
<path d="M550.684 38.3157L553.001 38.7062C552.715 39.5654 552.246 40.1903 551.595 40.6329C550.945 41.0755 550.163 41.3098 549.174 41.3098C547.638 41.3098 546.518 40.8151 545.789 39.8258C545.217 39.0187 544.93 38.0293 544.93 36.8056C544.93 35.3476 545.321 34.202 546.076 33.3949C546.831 32.5878 547.794 32.1712 548.966 32.1712C550.268 32.1712 551.309 32.6138 552.064 33.473C552.819 34.3322 553.184 35.66 553.158 37.4305H547.352C547.378 38.1074 547.56 38.6542 547.924 39.0447C548.289 39.4352 548.731 39.6175 549.252 39.6175C549.617 39.6175 549.929 39.5133 550.163 39.3311C550.398 39.1488 550.554 38.7583 550.684 38.3157ZM550.814 35.9725C550.788 35.2955 550.632 34.8008 550.294 34.4363C549.955 34.0979 549.565 33.9156 549.096 33.9156C548.601 33.9156 548.159 34.0979 547.846 34.4624C547.508 34.8269 547.352 35.3216 547.352 35.9725H550.814Z" fill="white"/>
<path d="M559.719 41.1275V29.0208H568.701V31.0777H562.166V33.7594H568.258V35.7902H562.166V39.0967H568.935V41.1275H559.719Z" fill="white"/>
<path d="M576.772 41.1276V39.8258C576.46 40.2944 576.043 40.6589 575.522 40.9453C575.002 41.2057 574.455 41.3619 573.882 41.3619C573.283 41.3619 572.763 41.2317 572.294 40.9713C571.825 40.711 571.487 40.3465 571.279 39.8778C571.07 39.4092 570.966 38.7583 570.966 37.9251V32.3535H573.283V36.389C573.283 37.6127 573.335 38.3677 573.413 38.6541C573.492 38.9405 573.648 39.1488 573.882 39.305C574.116 39.4613 574.403 39.5394 574.741 39.5394C575.132 39.5394 575.496 39.4352 575.809 39.2009C576.121 38.9926 576.329 38.7062 576.46 38.3938C576.564 38.0814 576.642 37.2742 576.642 36.0245V32.3535H578.959V41.1276H576.772Z" fill="white"/>
<path d="M581.25 41.1275V32.3534H583.411V33.6032C583.776 33.0043 584.114 32.6138 584.401 32.4316C584.687 32.2493 585.025 32.1452 585.416 32.1452C585.937 32.1452 586.457 32.3014 586.952 32.5878L586.223 34.6186C585.833 34.3582 585.468 34.228 585.13 34.228C584.817 34.228 584.531 34.3061 584.297 34.4884C584.062 34.6706 583.906 34.9831 583.776 35.4517C583.646 35.9204 583.594 36.9097 583.594 38.3938V41.1275H581.25Z" fill="white"/>
<path d="M587.395 36.5973C587.395 35.8162 587.577 35.0872 587.968 34.3582C588.358 33.6292 588.879 33.0824 589.582 32.7179C590.285 32.3274 591.066 32.1452 591.925 32.1452C593.253 32.1452 594.346 32.5878 595.18 33.447C596.039 34.3061 596.455 35.3996 596.455 36.7275C596.455 38.0553 596.039 39.1488 595.18 40.034C594.32 40.9193 593.253 41.3358 591.951 41.3358C591.144 41.3358 590.389 41.1536 589.66 40.7891C588.931 40.4246 588.384 39.9039 587.994 39.2009C587.577 38.4719 587.395 37.6127 587.395 36.5973ZM589.764 36.7275C589.764 37.5867 589.972 38.2636 590.389 38.7322C590.805 39.2009 591.3 39.4352 591.925 39.4352C592.524 39.4352 593.045 39.2009 593.461 38.7322C593.878 38.2636 594.086 37.5867 594.086 36.7275C594.086 35.8683 593.878 35.2174 593.461 34.7487C593.045 34.2801 592.55 34.0458 591.925 34.0458C591.326 34.0458 590.805 34.2801 590.389 34.7487C589.972 35.1914 589.764 35.8683 589.764 36.7275Z" fill="white"/>
<path d="M598.2 32.3535H600.361V33.6553C600.647 33.2127 601.012 32.8482 601.506 32.5878C601.975 32.3014 602.522 32.1712 603.094 32.1712C604.11 32.1712 604.969 32.5618 605.698 33.3689C606.401 34.176 606.766 35.2695 606.766 36.7015C606.766 38.1595 606.401 39.3051 605.698 40.1122C604.969 40.9193 604.11 41.3359 603.094 41.3359C602.6 41.3359 602.183 41.2317 601.767 41.0495C601.376 40.8672 600.959 40.5287 600.517 40.0601V44.4862H598.2V32.3535ZM600.491 36.5973C600.491 37.5867 600.699 38.3157 601.09 38.7843C601.48 39.253 601.949 39.4873 602.522 39.4873C603.068 39.4873 603.511 39.279 603.875 38.8364C604.24 38.3938 604.422 37.6908 604.422 36.7015C604.422 35.7902 604.24 35.0872 603.875 34.6446C603.511 34.202 603.042 33.9677 602.496 33.9677C601.923 33.9677 601.454 34.176 601.09 34.6186C600.673 35.0872 600.491 35.7381 600.491 36.5973Z" fill="white"/>
<path d="M613.691 38.3157L616.008 38.7062C615.722 39.5654 615.253 40.1903 614.602 40.6329C613.951 41.0755 613.17 41.3098 612.181 41.3098C610.645 41.3098 609.525 40.8151 608.796 39.8258C608.223 39.0187 607.937 38.0293 607.937 36.8056C607.937 35.3476 608.328 34.202 609.083 33.3949C609.838 32.5878 610.801 32.1712 611.973 32.1712C613.274 32.1712 614.316 32.6138 615.071 33.473C615.826 34.3322 616.19 35.66 616.164 37.4305H610.358C610.384 38.1074 610.567 38.6542 610.931 39.0447C611.296 39.4352 611.738 39.6175 612.259 39.6175C612.624 39.6175 612.936 39.5133 613.17 39.3311C613.405 39.1488 613.561 38.7583 613.691 38.3157ZM613.821 35.9725C613.795 35.2955 613.639 34.8008 613.3 34.4363C612.962 34.0979 612.571 33.9156 612.103 33.9156C611.608 33.9156 611.166 34.0979 610.853 34.4624C610.515 34.8269 610.358 35.3216 610.358 35.9725H613.821Z" fill="white"/>
<path d="M619.757 35.0352L617.649 34.6446C617.883 33.7854 618.299 33.1606 618.872 32.77C619.445 32.3535 620.304 32.1712 621.45 32.1712C622.491 32.1712 623.246 32.3014 623.767 32.5357C624.262 32.77 624.626 33.0825 624.834 33.473C625.043 33.8375 625.147 34.5405 625.147 35.5559L625.121 38.2636C625.121 39.0447 625.147 39.5914 625.225 39.982C625.303 40.3465 625.433 40.737 625.642 41.1536H623.35C623.298 40.9974 623.22 40.7631 623.116 40.4767C623.09 40.3465 623.038 40.2423 623.038 40.2163C622.647 40.6068 622.205 40.8932 621.762 41.0755C621.32 41.2577 620.825 41.3619 620.304 41.3619C619.393 41.3619 618.69 41.1276 618.169 40.6329C617.649 40.1382 617.388 39.5133 617.388 38.7843C617.388 38.2897 617.518 37.847 617.753 37.4565C617.987 37.066 618.325 36.7796 618.742 36.5713C619.159 36.363 619.783 36.1807 620.591 36.0245C621.684 35.8162 622.439 35.634 622.856 35.4517V35.2174C622.856 34.7748 622.752 34.4624 622.517 34.2541C622.309 34.0718 621.892 33.9677 621.268 33.9677C620.851 33.9677 620.539 34.0458 620.304 34.202C620.07 34.3322 619.888 34.6186 619.757 35.0352ZM622.856 36.9098C622.569 37.0139 622.075 37.118 621.45 37.2743C620.799 37.4044 620.382 37.5346 620.174 37.6908C619.862 37.8991 619.731 38.1855 619.731 38.4979C619.731 38.8104 619.862 39.0968 620.096 39.3311C620.33 39.5654 620.643 39.6956 621.033 39.6956C621.45 39.6956 621.84 39.5654 622.231 39.279C622.517 39.0707 622.699 38.8104 622.778 38.4979C622.83 38.2897 622.856 37.9252 622.856 37.3784V36.9098Z" fill="white"/>
<path d="M635.405 41.1276H633.088V36.6494C633.088 35.7121 633.036 35.0872 632.932 34.8008C632.827 34.5144 632.671 34.3062 632.437 34.1499C632.203 33.9937 631.942 33.9156 631.63 33.9156C631.239 33.9156 630.875 34.0198 630.536 34.2541C630.224 34.4624 629.99 34.7748 629.885 35.1393C629.755 35.5038 629.703 36.1807 629.703 37.1441V41.1276H627.386V32.3535H629.547V33.6553C630.302 32.6659 631.265 32.1712 632.437 32.1712C632.958 32.1712 633.426 32.2754 633.843 32.4576C634.259 32.6399 634.598 32.8742 634.806 33.1606C635.014 33.447 635.171 33.7594 635.249 34.1239C635.327 34.4884 635.379 35.0091 635.379 35.6861V41.1276H635.405Z" fill="white"/>
<path d="M644.908 28.9949V35.5559C644.908 36.5973 644.934 37.2743 644.986 37.5867C645.09 38.0814 645.351 38.4719 645.741 38.7843C646.132 39.0968 646.678 39.227 647.355 39.227C648.058 39.227 648.579 39.0968 648.918 38.8104C649.282 38.524 649.49 38.1855 649.542 37.769C649.621 37.3524 649.647 36.6754 649.647 35.7121V29.0209H652.094V35.3736C652.094 36.8317 652.016 37.8471 651.886 38.4459C651.756 39.0447 651.521 39.5654 651.157 39.956C650.792 40.3725 650.323 40.711 649.725 40.9453C649.126 41.1797 648.345 41.3098 647.381 41.3098C646.236 41.3098 645.351 41.1797 644.752 40.9193C644.153 40.6589 643.684 40.2944 643.346 39.8779C643.007 39.4613 642.773 38.9926 642.669 38.524C642.513 37.821 642.435 36.8056 642.435 35.4518V28.9949H644.908Z" fill="white"/>
<path d="M662.665 41.1276H660.347V36.6494C660.347 35.7121 660.295 35.0872 660.191 34.8008C660.087 34.5144 659.931 34.3062 659.697 34.1499C659.462 33.9937 659.202 33.9156 658.889 33.9156C658.499 33.9156 658.134 34.0198 657.796 34.2541C657.483 34.4624 657.249 34.7748 657.145 35.1393C657.015 35.5038 656.963 36.1807 656.963 37.1441V41.1276H654.646V32.3535H656.807V33.6553C657.562 32.6659 658.525 32.1712 659.697 32.1712C660.217 32.1712 660.686 32.2754 661.102 32.4576C661.519 32.6399 661.858 32.8742 662.066 33.1606C662.274 33.447 662.43 33.7594 662.508 34.1239C662.587 34.4884 662.639 35.0091 662.639 35.6861V41.1276H662.665Z" fill="white"/>
<path d="M665.034 31.1558V28.9949H667.351V31.1558H665.034ZM665.034 41.1276V32.3535H667.351V41.1276H665.034Z" fill="white"/>
<path d="M669.2 36.5973C669.2 35.8162 669.382 35.0872 669.772 34.3582C670.163 33.6292 670.684 33.0824 671.387 32.7179C672.09 32.3274 672.871 32.1452 673.73 32.1452C675.058 32.1452 676.151 32.5878 676.984 33.447C677.843 34.3061 678.26 35.3996 678.26 36.7275C678.26 38.0553 677.843 39.1488 676.984 40.034C676.125 40.9193 675.058 41.3358 673.756 41.3358C672.949 41.3358 672.194 41.1536 671.465 40.7891C670.736 40.4246 670.189 39.9039 669.798 39.2009C669.382 38.4719 669.2 37.6127 669.2 36.5973ZM671.569 36.7275C671.569 37.5867 671.777 38.2636 672.194 38.7322C672.61 39.2009 673.105 39.4352 673.73 39.4352C674.329 39.4352 674.849 39.2009 675.266 38.7322C675.683 38.2636 675.891 37.5867 675.891 36.7275C675.891 35.8683 675.683 35.2174 675.266 34.7487C674.849 34.2801 674.355 34.0458 673.73 34.0458C673.131 34.0458 672.61 34.2801 672.194 34.7487C671.777 35.1914 671.569 35.8683 671.569 36.7275Z" fill="white"/>
<path d="M688.05 41.1276H685.732V36.6494C685.732 35.7121 685.68 35.0872 685.576 34.8008C685.472 34.5144 685.316 34.3062 685.082 34.1499C684.847 33.9937 684.587 33.9156 684.274 33.9156C683.884 33.9156 683.519 34.0198 683.181 34.2541C682.868 34.4624 682.634 34.7748 682.53 35.1393C682.4 35.5038 682.348 36.1807 682.348 37.1441V41.1276H680.031V32.3535H682.192V33.6553C682.947 32.6659 683.91 32.1712 685.082 32.1712C685.602 32.1712 686.071 32.2754 686.487 32.4576C686.904 32.6399 687.243 32.8742 687.451 33.1606C687.659 33.447 687.815 33.7594 687.893 34.1239C687.972 34.4884 688.024 35.0091 688.024 35.6861V41.1276H688.05Z" fill="white"/>
</svg>
