<svg width="116" height="39" viewBox="0 0 116 39" fill="none" xmlns="http://www.w3.org/2000/svg">
<path d="M68.7082 38.8825C59.8902 38.8825 54.7144 34.186 54.1873 26.9016L61.5196 26.5661C62.0947 30.5917 64.395 32.8441 68.804 32.8441C72.3983 32.8441 74.5069 31.5022 74.5069 28.9144C74.5069 26.5661 73.3088 25.1763 66.935 23.7386C58.2129 21.7737 54.8582 19.3776 54.8582 13.5788C54.8582 7.49248 59.6027 3.32313 67.6059 3.32313C76.0405 3.32313 80.5932 8.11549 81.3121 14.8248L74.0277 15.2082C73.6443 11.6618 71.3919 9.36151 67.5101 9.36151C64.2033 9.36151 62.1905 10.943 62.1905 13.3392C62.1905 15.8791 63.772 16.9334 69.2832 18.0836C78.7242 20.0006 81.8392 23.4031 81.8392 28.5789C81.8392 34.9527 76.7593 38.8825 68.7082 38.8825Z" fill="white"/>
<path d="M94.1957 38.1157L81.9272 4.0899H89.4512L98.5088 29.9208L107.566 4.0899H115.09L102.774 38.1157H94.1957Z" fill="white"/>
<path d="M23.4194 0.928711V10.1795L30.0174 3.64954L35.5951 9.29526L29.0651 15.8252H38.3839V23.9877H29.0651L35.5951 30.5177L30.0174 36.0954L23.4194 29.6334V38.9523H15.529V29.3614L8.65888 36.0954L3.08118 30.5177L9.61117 23.9877H0.360352V15.8252H9.61117L3.08118 9.29526L8.65888 3.64954L15.529 10.5196V0.928711H23.4194Z" fill="white"/>
</svg>
