<svg width="1018" height="213" viewBox="0 0 1018 213" fill="none" xmlns="http://www.w3.org/2000/svg">
<rect x="88" y="87" width="44" height="43" fill="#E09BDB"/>
<path d="M8.568 208V198.688H5.176V196.64H14.424V198.688H11.016V208H8.568ZM13.2884 208L17.3844 196.64H20.2644L24.3604 208H21.8324L21.0004 205.584H16.6324L15.8004 208H13.2884ZM17.3204 203.584H20.3284L18.8244 199.2L17.3204 203.584ZM25.434 208V196.64H28.682L31.578 204.912L34.458 196.64H37.706V208H35.274V200.64L32.602 207.968H30.522L27.866 200.64V208H25.434ZM39.4826 208V205.552H42.0906V208H39.4826ZM47.4965 208V196.64H50.7445L53.6405 204.912L56.5205 196.64H59.7685V208H57.3365V200.64L54.6645 207.968H52.5845L49.9285 200.64V208H47.4965ZM61.9184 208V196.64H64.3504V208H61.9184ZM66.4965 208V196.64H69.1845L73.6965 204.48V196.64H76.1285V208H73.4085L68.9285 200.432V208H66.4965ZM78.2778 208V196.64H80.7098V208H78.2778ZM82.8559 208V196.64H85.5439L90.0559 204.48V196.64H92.4879V208H89.7679L85.2879 200.432V208H82.8559ZM94.6371 208V196.64H97.8851L100.781 204.912L103.661 196.64H106.909V208H104.477V200.64L101.805 207.968H99.7251L97.0691 200.64V208H94.6371ZM114.052 208.256C110.596 208.256 108.516 206 108.516 202.336C108.516 198.672 110.596 196.384 114.052 196.384C117.508 196.384 119.588 198.672 119.588 202.336C119.588 206 117.508 208.256 114.052 208.256ZM111.028 202.336C111.028 204.8 112.148 206.208 114.052 206.208C115.94 206.208 117.076 204.8 117.076 202.336C117.076 199.872 115.94 198.432 114.052 198.432C112.148 198.432 111.028 199.872 111.028 202.336ZM124.834 208C124.834 205.088 125.922 203.504 128.866 201.936C130.418 201.12 130.946 200.704 130.946 199.84C130.946 199.008 130.386 198.432 129.346 198.432C128.178 198.432 127.506 199.136 127.346 200.4L124.85 200.256C125.058 197.84 126.658 196.384 129.314 196.384C131.922 196.384 133.442 197.76 133.442 199.808C133.442 201.584 132.61 202.368 130.466 203.52C128.642 204.496 127.794 205.344 127.73 205.952H133.442V208H124.834ZM139.911 208.256C136.919 208.256 135.063 206 135.063 202.336C135.063 198.672 136.919 196.384 139.911 196.384C142.887 196.384 144.743 198.656 144.743 202.336C144.743 205.984 142.887 208.256 139.911 208.256ZM137.575 202.336C137.575 204.896 138.391 206.208 139.911 206.208C141.415 206.208 142.231 204.896 142.231 202.336C142.231 199.76 141.415 198.432 139.911 198.432C138.391 198.432 137.575 199.76 137.575 202.336ZM146.637 208V196.64H151.181C153.901 196.64 155.549 198.048 155.549 200.352C155.549 202.656 153.901 204.08 151.181 204.08H149.069V208H146.637ZM149.069 202.032H151.037C152.317 202.032 153.053 201.456 153.053 200.352C153.053 199.248 152.317 198.688 151.037 198.688H149.069V202.032ZM155.755 208L159.611 202.304L155.787 196.64H158.603L161.083 200.464L163.499 196.64H166.331L162.507 202.272L166.379 208H163.547L161.051 204.112L158.587 208H155.755Z" fill="#E09BDB"/>
<path d="M97.6164 44.7446V65.5575L112.461 50.8661L125.01 63.568L110.318 78.2594H131.284V96.6237H110.318L125.01 111.315L112.461 123.864L97.6164 109.326V130.292H79.8643V108.714L64.4077 123.864L51.8587 111.315L66.5502 96.6237H45.7373V78.2594H66.5502L51.8587 63.568L64.4077 50.8661L79.8643 66.3227V44.7446H97.6164Z" fill="white"/>
<rect x="45.1289" y="44.1292" width="87.0509" height="86.6291" stroke="#FF00EE"/>
<rect x="1" y="44" width="175" height="87" stroke="#FF00EE"/>
<rect x="1" y="88" width="175" height="43" stroke="#FF00EE"/>
<rect x="1" y="131" width="175" height="43" stroke="#FF00EE"/>
<rect x="45" y="1" width="87" height="173" stroke="#FF00EE"/>
<rect x="89" y="1" width="87" height="173" stroke="#FF00EE"/>
<rect x="1" y="1" width="44" height="173" stroke="#FF00EE"/>
<rect x="45" y="1" width="44" height="173" stroke="#FF00EE"/>
<rect x="1" y="1" width="44" height="43" fill="#E09BDB"/>
<rect x="132" y="131" width="44" height="43" fill="#E09BDB"/>
<path opacity="0.1" d="M247.841 129.841C226.673 129.841 214.248 118.566 212.982 101.079L230.584 100.274C231.965 109.938 237.487 115.345 248.071 115.345C256.7 115.345 261.762 112.124 261.762 105.911C261.762 100.274 258.886 96.9377 243.584 93.4863C222.646 88.7695 214.593 83.0172 214.593 69.0967C214.593 54.4859 225.983 44.4769 245.195 44.4769C265.443 44.4769 276.372 55.9815 278.098 72.0878L260.611 73.0082C259.691 64.4948 254.284 58.9727 244.965 58.9727C237.027 58.9727 232.195 62.7692 232.195 68.5214C232.195 74.6188 235.991 77.1499 249.222 79.9109C271.886 84.5128 279.364 92.681 279.364 105.106C279.364 120.407 267.169 129.841 247.841 129.841ZM291.386 128V46.3176H308.643V73.9286C311.979 67.8312 318.307 64.955 325.67 64.955C339.475 64.955 346.493 74.6188 346.493 88.3093V128H329.236V92.4509C329.236 83.3623 326.59 78.6454 319.917 78.6454C312.784 78.6454 308.643 83.5924 308.643 92.9111V128H291.386ZM376.247 129.381C363.362 129.381 354.619 123.168 354.619 112.584C354.619 101.77 361.406 96.2474 374.867 93.4863L394.77 89.5748C394.77 81.5216 391.088 77.495 384.301 77.495C377.743 77.495 374.176 80.6012 373.026 86.3535L355.654 85.5482C357.955 71.9728 368.194 64.955 384.301 64.955C402.708 64.955 412.026 73.9286 412.026 90.7252V111.779C412.026 115.23 413.177 116.15 415.478 116.15H417.204V128C416.168 128.345 413.407 128.69 411.106 128.69C404.779 128.69 399.026 126.504 397.531 118.681C394.309 125.239 386.716 129.381 376.247 129.381ZM372.336 110.973C372.336 115.115 375.097 117.531 380.389 117.531C389.017 117.531 394.77 112.239 394.77 103.38V100.389L380.734 103.38C375.097 104.531 372.336 106.947 372.336 110.973ZM423.962 128V66.3356H440.299L440.644 78.7605C443.175 70.017 447.777 66.3356 455.37 66.3356H461.007V80.6012H455.37C445.706 80.6012 441.219 84.1676 441.219 93.3713V128H423.962ZM493.653 129.381C474.786 129.381 462.591 116.61 462.591 97.1678C462.591 77.7251 474.786 64.955 493.538 64.955C511.83 64.955 523.795 77.61 523.795 98.3182V101.77H480.423C480.883 111.548 486.06 116.265 493.998 116.265C499.751 116.265 503.892 113.849 505.503 108.787L522.875 109.823C519.538 122.133 508.494 129.381 493.653 129.381ZM480.423 91.1854H506.078C505.618 82.2119 500.671 77.7251 493.538 77.7251C486.29 77.7251 481.343 82.672 480.423 91.1854ZM554.133 129.381C538.487 129.381 528.823 116.956 528.823 97.1678C528.823 77.495 538.717 64.955 554.133 64.955C562.876 64.955 569.434 68.7515 572.655 75.079V46.3176H589.912V128H573.461L573.115 118.911C569.664 125.584 562.646 129.381 554.133 129.381ZM546.54 97.1678C546.54 108.672 551.832 116.15 559.77 116.15C568.053 116.15 572.655 109.593 572.655 97.1678C572.655 84.6278 568.053 78.1853 559.77 78.1853C551.717 78.1853 546.54 85.4331 546.54 97.1678ZM650.694 128L621.242 46.3176H639.304L661.048 108.327L682.792 46.3176H700.854L671.287 128H650.694ZM705.24 128V66.3356H722.497V128H705.24ZM704.895 58.7426V44.9371H722.727V58.7426H704.895ZM760.518 129.381C740.615 129.381 731.756 120.637 730.836 108.557L748.323 107.982C749.358 113.849 752.694 117.186 760.518 117.186C766.73 117.186 770.066 115.115 770.066 110.973C770.066 107.177 767.996 105.451 757.756 103.725C738.429 100.389 732.677 95.4421 732.677 84.7429C732.677 72.8932 741.88 64.955 760.172 64.955C778.695 64.955 786.978 74.0436 787.898 86.1234L770.642 86.8137C770.411 81.0614 767.075 77.1499 759.942 77.1499C753.845 77.1499 750.509 79.9109 750.509 84.0526C750.509 88.5394 753.04 90.3801 761.553 91.6456C780.996 94.5217 787.783 100.044 787.783 110.743C787.783 122.708 777.314 129.381 760.518 129.381ZM796.36 128V66.3356H813.616V128H796.36ZM796.014 58.7426V44.9371H813.847V58.7426H796.014ZM853.248 129.381C834.38 129.381 821.955 116.726 821.955 97.1678C821.955 77.7251 834.38 64.955 853.248 64.955C872.115 64.955 884.54 77.7251 884.54 97.1678C884.54 116.726 872.115 129.381 853.248 129.381ZM839.672 97.1678C839.672 109.133 844.619 116.15 853.248 116.15C861.876 116.15 866.823 109.133 866.823 97.1678C866.823 85.203 861.876 78.1853 853.248 78.1853C844.619 78.1853 839.672 85.203 839.672 97.1678ZM892.984 128V66.3356H908.516L908.861 76.4596C912.312 68.1763 918.985 64.955 927.153 64.955C940.383 64.955 948.091 74.0436 948.091 88.3093V128H930.834V94.0616C930.834 84.1676 928.649 78.6454 921.401 78.6454C914.268 78.6454 910.241 84.1676 910.241 94.0616V128H892.984ZM985.899 129.381C965.996 129.381 957.138 120.637 956.217 108.557L973.704 107.982C974.74 113.849 978.076 117.186 985.899 117.186C992.111 117.186 995.448 115.115 995.448 110.973C995.448 107.177 993.377 105.451 983.138 103.725C963.81 100.389 958.058 95.4421 958.058 84.7429C958.058 72.8932 967.262 64.955 985.554 64.955C1004.08 64.955 1012.36 74.0436 1013.28 86.1234L996.023 86.8137C995.793 81.0614 992.457 77.1499 985.324 77.1499C979.226 77.1499 975.89 79.9109 975.89 84.0526C975.89 88.5394 978.421 90.3801 986.934 91.6456C1006.38 94.5217 1013.16 100.044 1013.16 110.743C1013.16 122.708 1002.7 129.381 985.899 129.381Z" fill="white"/>
</svg>
