<svg width="420" height="53" viewBox="0 0 420 53" fill="none" xmlns="http://www.w3.org/2000/svg">
<path d="M68.7082 43.8825C59.8902 43.8825 54.7144 39.186 54.1873 31.9016L61.5196 31.5661C62.0947 35.5917 64.395 37.8441 68.804 37.8441C72.3983 37.8441 74.5069 36.5023 74.5069 33.9144C74.5069 31.5661 73.3088 30.1763 66.935 28.7386C58.2129 26.7737 54.8582 24.3776 54.8582 18.5788C54.8582 12.4925 59.6027 8.32314 67.6059 8.32314C76.0405 8.32314 80.5932 13.1155 81.3121 19.8248L74.0277 20.2082C73.6443 16.6619 71.3919 14.3615 67.5101 14.3615C64.2033 14.3615 62.1905 15.943 62.1905 18.3392C62.1905 20.8791 63.772 21.9335 69.2832 23.0836C78.7242 25.0006 81.8392 28.4032 81.8392 33.5789C81.8392 39.9528 76.7593 43.8825 68.7082 43.8825Z" fill="white"/>
<path d="M94.1957 43.1157L81.9272 9.08991H89.4512L98.5088 34.9208L107.566 9.08991H115.09L102.774 43.1157H94.1957Z" fill="white"/>
<path d="M23.4194 5.92872V15.1795L30.0174 8.64955L35.5951 14.2953L29.0651 20.8253H38.3839V28.9877H29.0651L35.5951 35.5177L30.0174 41.0954L23.4194 34.6335V43.9523H15.529V34.3614L8.65888 41.0954L3.08118 35.5177L9.61117 28.9877H0.360352V20.8253H9.61117L3.08118 14.2953L8.65888 8.64955L15.529 15.5196V5.92872H23.4194Z" fill="white"/>
<path d="M174.755 0.850098V53H251.535V0.850098H174.755ZM250.077 51.516H176.239V2.28207H250.077V51.516Z" fill="white"/>
<path d="M211.57 13.0089L213.132 11.8633L214.694 13.0089L214.095 11.1603L215.683 10.0408H213.731L213.132 8.16621L212.533 10.0408H210.58L212.168 11.1603L211.57 13.0089Z" fill="white"/>
<path d="M203.525 15.1698L205.061 14.0242L206.623 15.1698L206.05 13.3213L207.612 12.2017H205.659L205.061 10.3271L204.462 12.2017H202.535L204.097 13.3213L203.525 15.1698Z" fill="white"/>
<path d="M199.176 16.2373L198.578 18.1119H196.625L198.213 19.2575L197.614 21.08L199.176 19.9605L200.739 21.08L200.14 19.2575L201.728 18.1119H199.775L199.176 16.2373Z" fill="white"/>
<path d="M197.016 28.0056L198.578 29.1251L197.979 27.3026L199.567 26.157H197.614L197.016 24.3085L196.417 26.157H194.464L196.052 27.3026L195.453 29.1251L197.016 28.0056Z" fill="white"/>
<path d="M199.775 34.2281L199.176 32.3796L198.578 34.2542L196.625 34.2281L198.213 35.3737L197.614 37.2223L199.176 36.0767L200.739 37.2223L200.14 35.3737L201.728 34.2281H199.775Z" fill="white"/>
<path d="M205.686 40.1383L205.087 38.2897L204.488 40.1643L202.535 40.1383L204.123 41.2839L203.525 43.1324L205.087 41.9868L206.649 43.1324L206.05 41.2839L207.638 40.1383H205.686Z" fill="white"/>
<path d="M213.731 42.2992L213.132 40.4247L212.533 42.2992H210.58L212.168 43.4188L211.57 45.2673L213.132 44.1218L214.694 45.2673L214.095 43.4188L215.683 42.2992H213.731Z" fill="white"/>
<path d="M221.776 40.1383L221.203 38.2897L220.604 40.1643L218.651 40.1383L220.214 41.2839L219.641 43.1324L221.203 41.9868L222.739 43.1324L222.166 41.2839L223.728 40.1383H221.776Z" fill="white"/>
<path d="M227.712 34.2281L227.113 32.3796L226.514 34.2542L224.561 34.2281L226.15 35.3737L225.551 37.2223L227.113 36.0767L228.649 37.2223L228.076 35.3737L229.638 34.2281H227.712Z" fill="white"/>
<path d="M231.799 26.131H229.847L229.248 24.2824L228.649 26.131H226.696L228.285 27.2765L227.686 29.1251L229.248 27.9795L230.81 29.1251L230.211 27.2765L231.799 26.131Z" fill="white"/>
<path d="M225.551 21.054L227.113 19.9344L228.649 21.054L228.076 19.2314L229.638 18.0859H227.712L227.113 16.2113L226.514 18.0859H224.561L226.15 19.2314L225.551 21.054Z" fill="white"/>
<path d="M221.203 10.3271L220.604 12.2017H218.677L220.24 13.3473L219.667 15.1698L221.203 14.0242L222.765 15.1698L222.166 13.3473L223.754 12.2017H221.802L221.203 10.3271Z" fill="white"/>
<path d="M268.406 16.3674L270.775 17.1225C270.411 18.4503 269.812 19.4136 268.953 20.0645C268.119 20.7154 267.026 21.0278 265.724 21.0278C264.11 21.0278 262.782 20.4811 261.767 19.3876C260.725 18.2941 260.205 16.784 260.205 14.8834C260.205 12.8786 260.725 11.2904 261.767 10.1969C262.808 9.07737 264.188 8.53061 265.88 8.53061C267.364 8.53061 268.562 8.97322 269.499 9.83241C270.046 10.3531 270.463 11.0821 270.749 12.0715L268.328 12.6443C268.198 12.0194 267.885 11.5247 267.443 11.1602C267 10.7957 266.427 10.6135 265.776 10.6135C264.891 10.6135 264.162 10.9259 263.589 11.5768C263.042 12.2277 262.756 13.2691 262.756 14.7011C262.756 16.2372 263.042 17.3307 263.589 17.9816C264.136 18.6325 264.865 18.945 265.75 18.945C266.401 18.945 266.948 18.7367 267.417 18.3201C267.859 17.9035 268.198 17.2526 268.406 16.3674Z" fill="white"/>
<path d="M272.311 16.2893C272.311 15.5082 272.493 14.7792 272.884 14.0502C273.275 13.3212 273.795 12.7745 274.498 12.4099C275.201 12.0194 275.982 11.8372 276.841 11.8372C278.169 11.8372 279.263 12.2798 280.096 13.139C280.955 13.9981 281.372 15.0916 281.372 16.4195C281.372 17.7473 280.955 18.8408 280.096 19.726C279.237 20.6113 278.169 21.0278 276.868 21.0278C276.06 21.0278 275.305 20.8456 274.576 20.4811C273.847 20.1166 273.301 19.5959 272.91 18.8929C272.493 18.1639 272.311 17.3047 272.311 16.2893ZM274.681 16.4195C274.681 17.2787 274.889 17.9556 275.305 18.4242C275.722 18.8929 276.217 19.1272 276.841 19.1272C277.44 19.1272 277.961 18.8929 278.378 18.4242C278.794 17.9556 279.002 17.2787 279.002 16.4195C279.002 15.5603 278.794 14.9094 278.378 14.4407C277.961 13.9721 277.466 13.7378 276.841 13.7378C276.243 13.7378 275.722 13.9721 275.305 14.4407C274.889 14.8834 274.681 15.5603 274.681 16.4195Z" fill="white"/>
<path d="M282.934 17.5911V15.2739H287.49V17.5911H282.934Z" fill="white"/>
<path d="M287.803 12.0455H289.104V11.3946C289.104 10.6656 289.182 10.0928 289.339 9.7543C289.495 9.3898 289.781 9.1034 290.198 8.86908C290.614 8.63476 291.161 8.53061 291.786 8.53061C292.437 8.53061 293.088 8.63476 293.739 8.81701L293.426 10.4312C293.062 10.3531 292.697 10.3011 292.359 10.3011C292.02 10.3011 291.786 10.3792 291.63 10.5354C291.474 10.6916 291.422 11.004 291.422 11.4466V12.0455H293.166V13.868H291.422V20.8196H289.104V13.868H287.803V12.0455Z" fill="white"/>
<path d="M300.222 20.8196V19.5178C299.909 19.9864 299.493 20.3509 298.972 20.6373C298.451 20.8977 297.905 21.0539 297.332 21.0539C296.733 21.0539 296.212 20.9237 295.744 20.6633C295.275 20.403 294.936 20.0385 294.728 19.5698C294.52 19.1012 294.416 18.4503 294.416 17.6171V12.0455H296.733V16.081C296.733 17.3047 296.785 18.0597 296.863 18.3461C296.941 18.6325 297.097 18.8408 297.332 18.997C297.566 19.1533 297.852 19.2314 298.191 19.2314C298.581 19.2314 298.946 19.1272 299.258 18.8929C299.571 18.6846 299.779 18.3982 299.909 18.0858C300.013 17.7734 300.092 16.9662 300.092 15.7165V12.0455H302.409V20.8196H300.222Z" fill="white"/>
<path d="M312.771 20.8196H310.454V16.3414C310.454 15.4041 310.402 14.7792 310.298 14.4928C310.193 14.2065 310.037 13.9982 309.803 13.8419C309.569 13.6857 309.308 13.6076 308.996 13.6076C308.605 13.6076 308.241 13.7118 307.902 13.9461C307.59 14.1544 307.356 14.4668 307.251 14.8313C307.121 15.1958 307.069 15.8727 307.069 16.8361V20.8196H304.752V12.0455H306.913V13.3473C307.668 12.3579 308.631 11.8632 309.803 11.8632C310.324 11.8632 310.792 11.9674 311.209 12.1496C311.625 12.3319 311.964 12.5662 312.172 12.8526C312.381 13.139 312.537 13.4514 312.615 13.8159C312.693 14.1804 312.745 14.7011 312.745 15.3781V20.8196H312.771Z" fill="white"/>
<path d="M323.185 20.8196H321.024V19.5178C320.66 20.0125 320.243 20.403 319.749 20.6373C319.254 20.8717 318.759 21.0018 318.265 21.0018C317.249 21.0018 316.39 20.5853 315.661 19.7781C314.932 18.971 314.594 17.8255 314.594 16.3674C314.594 14.8834 314.932 13.7378 315.635 12.9828C316.338 12.2017 317.223 11.8112 318.291 11.8112C319.28 11.8112 320.113 12.2277 320.842 13.0348V8.68685H323.159V20.8196H323.185ZM316.989 16.2373C316.989 17.1746 317.119 17.8515 317.379 18.2681C317.744 18.8669 318.265 19.1793 318.942 19.1793C319.488 19.1793 319.931 18.945 320.295 18.5024C320.66 18.0598 320.868 17.3568 320.868 16.4716C320.868 15.4562 320.686 14.7272 320.321 14.2846C319.957 13.842 319.488 13.6076 318.915 13.6076C318.369 13.6076 317.9 13.8159 317.536 14.2585C317.171 14.7011 316.989 15.3781 316.989 16.2373Z" fill="white"/>
<path d="M330.554 18.0077L332.871 18.3982C332.584 19.2574 332.116 19.8823 331.465 20.3249C330.814 20.7675 330.033 21.0018 329.043 21.0018C327.507 21.0018 326.388 20.5071 325.659 19.5178C325.086 18.7107 324.8 17.7213 324.8 16.4976C324.8 15.0396 325.19 13.894 325.945 13.0869C326.7 12.2798 327.664 11.8632 328.835 11.8632C330.137 11.8632 331.178 12.3058 331.933 13.165C332.689 14.0242 333.053 15.352 333.027 17.1225H327.221C327.247 17.7994 327.429 18.3462 327.794 18.7367C328.158 19.1272 328.601 19.3095 329.122 19.3095C329.486 19.3095 329.799 19.2053 330.033 19.0231C330.267 18.8408 330.423 18.4503 330.554 18.0077ZM330.684 15.6645C330.658 14.9875 330.501 14.4928 330.163 14.1283C329.825 13.7899 329.434 13.6076 328.965 13.6076C328.471 13.6076 328.028 13.7899 327.716 14.1544C327.377 14.5189 327.221 15.0136 327.221 15.6645H330.684Z" fill="white"/>
<path d="M342.921 20.8196H340.76V19.5178C340.395 20.0125 339.979 20.403 339.484 20.6373C338.989 20.8717 338.495 21.0018 338 21.0018C336.984 21.0018 336.125 20.5853 335.396 19.7781C334.667 18.971 334.329 17.8255 334.329 16.3674C334.329 14.8834 334.667 13.7378 335.37 12.9828C336.073 12.2017 336.958 11.8112 338.026 11.8112C339.015 11.8112 339.848 12.2277 340.577 13.0348V8.68685H342.895V20.8196H342.921ZM336.724 16.2373C336.724 17.1746 336.854 17.8515 337.115 18.2681C337.479 18.8669 338 19.1793 338.677 19.1793C339.224 19.1793 339.666 18.945 340.031 18.5024C340.395 18.0598 340.603 17.3568 340.603 16.4716C340.603 15.4562 340.421 14.7272 340.057 14.2846C339.692 13.842 339.224 13.6076 338.651 13.6076C338.104 13.6076 337.635 13.8159 337.271 14.2585C336.932 14.7011 336.724 15.3781 336.724 16.2373Z" fill="white"/>
<path d="M349.82 8.68685H352.137V13.0609C352.866 12.2538 353.7 11.8372 354.689 11.8372C355.756 11.8372 356.642 12.2277 357.345 13.0088C358.047 13.7899 358.386 14.8834 358.386 16.3414C358.386 17.8515 358.021 18.9971 357.318 19.8042C356.616 20.6113 355.73 21.0279 354.715 21.0279C354.22 21.0279 353.726 20.8977 353.231 20.6634C352.736 20.403 352.32 20.0385 351.981 19.5438V20.8456H349.82V8.68685ZM352.137 16.2373C352.137 17.1485 352.268 17.8255 352.58 18.242C352.97 18.8669 353.517 19.1793 354.194 19.1793C354.715 19.1793 355.131 18.971 355.496 18.5284C355.86 18.0858 356.043 17.4089 356.043 16.4455C356.043 15.4302 355.86 14.7272 355.496 14.2846C355.131 13.842 354.663 13.6076 354.09 13.6076C353.543 13.6076 353.075 13.8159 352.71 14.2585C352.32 14.7011 352.137 15.352 352.137 16.2373Z" fill="white"/>
<path d="M359.167 12.0455H361.64L363.749 18.268L365.806 12.0455H368.201L365.077 20.4811L364.53 22.0172C364.322 22.5379 364.14 22.9285 363.958 23.1888C363.775 23.4492 363.567 23.6835 363.333 23.8397C363.098 23.9959 362.786 24.1261 362.448 24.2303C362.109 24.3344 361.692 24.3604 361.25 24.3604C360.807 24.3604 360.365 24.3084 359.948 24.2303L359.74 22.4077C360.104 22.4859 360.443 22.5119 360.729 22.5119C361.276 22.5119 361.666 22.3557 361.927 22.0432C362.187 21.7308 362.395 21.3142 362.526 20.8456L359.167 12.0455Z" fill="white"/>
<path d="M264.657 32.3535V34.202H263.069V37.7429C263.069 38.4719 263.095 38.8885 263.121 38.9926C263.147 39.1228 263.225 39.2009 263.329 39.279C263.433 39.3571 263.563 39.3832 263.719 39.3832C263.928 39.3832 264.24 39.3051 264.657 39.1489L264.865 40.9453C264.318 41.1797 263.719 41.2838 263.043 41.2838C262.626 41.2838 262.235 41.2057 261.923 41.0755C261.584 40.9453 261.35 40.7631 261.194 40.5288C261.038 40.2944 260.934 40.008 260.855 39.6175C260.803 39.3571 260.777 38.8104 260.777 37.9772V34.15H259.71V32.3535H260.777V30.6091L263.121 29.2552V32.3535H264.657Z" fill="white"/>
<path d="M268.588 28.9949V33.447C269.343 32.5618 270.228 32.1452 271.27 32.1452C271.817 32.1452 272.285 32.2493 272.728 32.4316C273.171 32.6138 273.483 32.8742 273.691 33.1866C273.9 33.4991 274.056 33.8375 274.134 34.202C274.212 34.5665 274.264 35.1654 274.264 35.9464V41.1015H271.947V36.4672C271.947 35.5559 271.895 34.9571 271.817 34.7228C271.739 34.4624 271.582 34.2801 271.348 34.1239C271.114 33.9677 270.853 33.9156 270.515 33.9156C270.124 33.9156 269.786 34.0198 269.473 34.202C269.161 34.3843 268.953 34.6707 268.796 35.0612C268.666 35.4257 268.588 35.9985 268.588 36.7275V41.1276H266.271V29.0209H268.588V28.9949Z" fill="white"/>
<path d="M281.684 38.3157L284.001 38.7062C283.715 39.5654 283.246 40.1903 282.595 40.6329C281.945 41.0755 281.163 41.3098 280.174 41.3098C278.638 41.3098 277.518 40.8151 276.789 39.8258C276.217 39.0187 275.93 38.0293 275.93 36.8056C275.93 35.3476 276.321 34.202 277.076 33.3949C277.831 32.5878 278.794 32.1712 279.966 32.1712C281.268 32.1712 282.309 32.6138 283.064 33.473C283.819 34.3322 284.184 35.66 284.158 37.4305H278.352C278.378 38.1074 278.56 38.6542 278.924 39.0447C279.289 39.4352 279.731 39.6175 280.252 39.6175C280.617 39.6175 280.929 39.5133 281.163 39.3311C281.398 39.1488 281.554 38.7583 281.684 38.3157ZM281.814 35.9725C281.788 35.2955 281.632 34.8008 281.294 34.4363C280.955 34.0979 280.565 33.9156 280.096 33.9156C279.601 33.9156 279.159 34.0979 278.846 34.4624C278.508 34.8269 278.352 35.3216 278.352 35.9725H281.814Z" fill="white"/>
<path d="M290.719 41.1275V29.0208H299.701V31.0777H293.166V33.7594H299.258V35.7902H293.166V39.0967H299.935V41.1275H290.719Z" fill="white"/>
<path d="M307.772 41.1276V39.8258C307.46 40.2944 307.043 40.6589 306.522 40.9453C306.002 41.2057 305.455 41.3619 304.882 41.3619C304.283 41.3619 303.763 41.2317 303.294 40.9713C302.825 40.711 302.487 40.3465 302.279 39.8778C302.07 39.4092 301.966 38.7583 301.966 37.9251V32.3535H304.283V36.389C304.283 37.6127 304.335 38.3677 304.413 38.6541C304.492 38.9405 304.648 39.1488 304.882 39.305C305.116 39.4613 305.403 39.5394 305.741 39.5394C306.132 39.5394 306.496 39.4352 306.809 39.2009C307.121 38.9926 307.33 38.7062 307.46 38.3938C307.564 38.0814 307.642 37.2742 307.642 36.0245V32.3535H309.959V41.1276H307.772Z" fill="white"/>
<path d="M312.25 41.1275V32.3534H314.411V33.6032C314.776 33.0043 315.114 32.6138 315.401 32.4316C315.687 32.2493 316.025 32.1452 316.416 32.1452C316.937 32.1452 317.457 32.3014 317.952 32.5878L317.223 34.6186C316.833 34.3582 316.468 34.228 316.13 34.228C315.817 34.228 315.531 34.3061 315.296 34.4884C315.062 34.6706 314.906 34.9831 314.776 35.4517C314.646 35.9204 314.594 36.9097 314.594 38.3938V41.1275H312.25Z" fill="white"/>
<path d="M318.395 36.5973C318.395 35.8162 318.577 35.0872 318.968 34.3582C319.358 33.6292 319.879 33.0824 320.582 32.7179C321.285 32.3274 322.066 32.1452 322.925 32.1452C324.253 32.1452 325.346 32.5878 326.18 33.447C327.039 34.3061 327.455 35.3996 327.455 36.7275C327.455 38.0553 327.039 39.1488 326.18 40.034C325.32 40.9193 324.253 41.3358 322.951 41.3358C322.144 41.3358 321.389 41.1536 320.66 40.7891C319.931 40.4246 319.384 39.9039 318.994 39.2009C318.577 38.4719 318.395 37.6127 318.395 36.5973ZM320.764 36.7275C320.764 37.5867 320.972 38.2636 321.389 38.7322C321.805 39.2009 322.3 39.4352 322.925 39.4352C323.524 39.4352 324.045 39.2009 324.461 38.7322C324.878 38.2636 325.086 37.5867 325.086 36.7275C325.086 35.8683 324.878 35.2174 324.461 34.7487C324.045 34.2801 323.55 34.0458 322.925 34.0458C322.326 34.0458 321.805 34.2801 321.389 34.7487C320.972 35.1914 320.764 35.8683 320.764 36.7275Z" fill="white"/>
<path d="M329.2 32.3535H331.361V33.6553C331.647 33.2127 332.012 32.8482 332.506 32.5878C332.975 32.3014 333.522 32.1712 334.094 32.1712C335.11 32.1712 335.969 32.5618 336.698 33.3689C337.401 34.176 337.765 35.2695 337.765 36.7015C337.765 38.1595 337.401 39.3051 336.698 40.1122C335.969 40.9193 335.11 41.3359 334.094 41.3359C333.6 41.3359 333.183 41.2317 332.767 41.0495C332.376 40.8672 331.959 40.5287 331.517 40.0601V44.4862H329.2V32.3535ZM331.491 36.5973C331.491 37.5867 331.699 38.3157 332.09 38.7843C332.48 39.253 332.949 39.4873 333.522 39.4873C334.068 39.4873 334.511 39.279 334.875 38.8364C335.24 38.3938 335.422 37.6908 335.422 36.7015C335.422 35.7902 335.24 35.0872 334.875 34.6446C334.511 34.202 334.042 33.9677 333.496 33.9677C332.923 33.9677 332.454 34.176 332.09 34.6186C331.673 35.0872 331.491 35.7381 331.491 36.5973Z" fill="white"/>
<path d="M344.691 38.3157L347.008 38.7062C346.722 39.5654 346.253 40.1903 345.602 40.6329C344.951 41.0755 344.17 41.3098 343.181 41.3098C341.645 41.3098 340.525 40.8151 339.796 39.8258C339.223 39.0187 338.937 38.0293 338.937 36.8056C338.937 35.3476 339.328 34.202 340.083 33.3949C340.838 32.5878 341.801 32.1712 342.973 32.1712C344.274 32.1712 345.316 32.6138 346.071 33.473C346.826 34.3322 347.19 35.66 347.164 37.4305H341.358C341.384 38.1074 341.567 38.6542 341.931 39.0447C342.296 39.4352 342.738 39.6175 343.259 39.6175C343.624 39.6175 343.936 39.5133 344.17 39.3311C344.405 39.1488 344.561 38.7583 344.691 38.3157ZM344.821 35.9725C344.795 35.2955 344.639 34.8008 344.3 34.4363C343.962 34.0979 343.571 33.9156 343.103 33.9156C342.608 33.9156 342.166 34.0979 341.853 34.4624C341.515 34.8269 341.358 35.3216 341.358 35.9725H344.821Z" fill="white"/>
<path d="M350.757 35.0352L348.649 34.6446C348.883 33.7854 349.299 33.1606 349.872 32.77C350.445 32.3535 351.304 32.1712 352.45 32.1712C353.491 32.1712 354.246 32.3014 354.767 32.5357C355.262 32.77 355.626 33.0825 355.834 33.473C356.043 33.8375 356.147 34.5405 356.147 35.5559L356.121 38.2636C356.121 39.0447 356.147 39.5914 356.225 39.982C356.303 40.3465 356.433 40.737 356.642 41.1536H354.35C354.298 40.9974 354.22 40.7631 354.116 40.4767C354.09 40.3465 354.038 40.2423 354.038 40.2163C353.647 40.6068 353.205 40.8932 352.762 41.0755C352.32 41.2577 351.825 41.3619 351.304 41.3619C350.393 41.3619 349.69 41.1276 349.169 40.6329C348.649 40.1382 348.388 39.5133 348.388 38.7843C348.388 38.2897 348.518 37.847 348.753 37.4565C348.987 37.066 349.325 36.7796 349.742 36.5713C350.159 36.363 350.783 36.1807 351.591 36.0245C352.684 35.8162 353.439 35.634 353.856 35.4517V35.2174C353.856 34.7748 353.752 34.4624 353.517 34.2541C353.309 34.0718 352.892 33.9677 352.268 33.9677C351.851 33.9677 351.539 34.0458 351.304 34.202C351.07 34.3322 350.888 34.6186 350.757 35.0352ZM353.856 36.9098C353.569 37.0139 353.075 37.118 352.45 37.2743C351.799 37.4044 351.382 37.5346 351.174 37.6908C350.862 37.8991 350.731 38.1855 350.731 38.4979C350.731 38.8104 350.862 39.0968 351.096 39.3311C351.33 39.5654 351.643 39.6956 352.033 39.6956C352.45 39.6956 352.84 39.5654 353.231 39.279C353.517 39.0707 353.699 38.8104 353.778 38.4979C353.83 38.2897 353.856 37.9252 353.856 37.3784V36.9098Z" fill="white"/>
<path d="M366.405 41.1276H364.088V36.6494C364.088 35.7121 364.036 35.0872 363.932 34.8008C363.827 34.5144 363.671 34.3062 363.437 34.1499C363.203 33.9937 362.942 33.9156 362.63 33.9156C362.239 33.9156 361.875 34.0198 361.536 34.2541C361.224 34.4624 360.99 34.7748 360.885 35.1393C360.755 35.5038 360.703 36.1807 360.703 37.1441V41.1276H358.386V32.3535H360.547V33.6553C361.302 32.6659 362.265 32.1712 363.437 32.1712C363.958 32.1712 364.426 32.2754 364.843 32.4576C365.259 32.6399 365.598 32.8742 365.806 33.1606C366.014 33.447 366.171 33.7594 366.249 34.1239C366.327 34.4884 366.379 35.0091 366.379 35.6861V41.1276H366.405Z" fill="white"/>
<path d="M375.908 28.9949V35.5559C375.908 36.5973 375.934 37.2743 375.986 37.5867C376.09 38.0814 376.351 38.4719 376.741 38.7843C377.132 39.0968 377.679 39.227 378.355 39.227C379.058 39.227 379.579 39.0968 379.918 38.8104C380.282 38.524 380.49 38.1855 380.542 37.769C380.621 37.3524 380.647 36.6754 380.647 35.7121V29.0209H383.094V35.3736C383.094 36.8317 383.016 37.8471 382.886 38.4459C382.756 39.0447 382.521 39.5654 382.157 39.956C381.792 40.3725 381.324 40.711 380.725 40.9453C380.126 41.1797 379.345 41.3098 378.381 41.3098C377.236 41.3098 376.351 41.1797 375.752 40.9193C375.153 40.6589 374.684 40.2944 374.346 39.8779C374.007 39.4613 373.773 38.9926 373.669 38.524C373.513 37.821 373.435 36.8056 373.435 35.4518V28.9949H375.908Z" fill="white"/>
<path d="M393.665 41.1276H391.347V36.6494C391.347 35.7121 391.295 35.0872 391.191 34.8008C391.087 34.5144 390.931 34.3062 390.697 34.1499C390.462 33.9937 390.202 33.9156 389.889 33.9156C389.499 33.9156 389.134 34.0198 388.796 34.2541C388.483 34.4624 388.249 34.7748 388.145 35.1393C388.015 35.5038 387.963 36.1807 387.963 37.1441V41.1276H385.646V32.3535H387.807V33.6553C388.562 32.6659 389.525 32.1712 390.697 32.1712C391.217 32.1712 391.686 32.2754 392.102 32.4576C392.519 32.6399 392.858 32.8742 393.066 33.1606C393.274 33.447 393.43 33.7594 393.508 34.1239C393.587 34.4884 393.639 35.0091 393.639 35.6861V41.1276H393.665Z" fill="white"/>
<path d="M396.034 31.1558V28.9949H398.351V31.1558H396.034ZM396.034 41.1276V32.3535H398.351V41.1276H396.034Z" fill="white"/>
<path d="M400.2 36.5973C400.2 35.8162 400.382 35.0872 400.772 34.3582C401.163 33.6292 401.684 33.0824 402.387 32.7179C403.09 32.3274 403.871 32.1452 404.73 32.1452C406.058 32.1452 407.151 32.5878 407.984 33.447C408.844 34.3061 409.26 35.3996 409.26 36.7275C409.26 38.0553 408.844 39.1488 407.984 40.034C407.125 40.9193 406.058 41.3358 404.756 41.3358C403.949 41.3358 403.194 41.1536 402.465 40.7891C401.736 40.4246 401.189 39.9039 400.798 39.2009C400.382 38.4719 400.2 37.6127 400.2 36.5973ZM402.569 36.7275C402.569 37.5867 402.777 38.2636 403.194 38.7322C403.61 39.2009 404.105 39.4352 404.73 39.4352C405.329 39.4352 405.849 39.2009 406.266 38.7322C406.683 38.2636 406.891 37.5867 406.891 36.7275C406.891 35.8683 406.683 35.2174 406.266 34.7487C405.849 34.2801 405.355 34.0458 404.73 34.0458C404.131 34.0458 403.61 34.2801 403.194 34.7487C402.777 35.1914 402.569 35.8683 402.569 36.7275Z" fill="white"/>
<path d="M419.05 41.1276H416.732V36.6494C416.732 35.7121 416.68 35.0872 416.576 34.8008C416.472 34.5144 416.316 34.3062 416.082 34.1499C415.847 33.9937 415.587 33.9156 415.274 33.9156C414.884 33.9156 414.519 34.0198 414.181 34.2541C413.868 34.4624 413.634 34.7748 413.53 35.1393C413.4 35.5038 413.348 36.1807 413.348 37.1441V41.1276H411.031V32.3535H413.192V33.6553C413.947 32.6659 414.91 32.1712 416.082 32.1712C416.602 32.1712 417.071 32.2754 417.487 32.4576C417.904 32.6399 418.243 32.8742 418.451 33.1606C418.659 33.447 418.815 33.7594 418.893 34.1239C418.972 34.4884 419.024 35.0091 419.024 35.6861V41.1276H419.05Z" fill="white"/>
</svg>
