<svg width="30" height="30" viewBox="0 0 30 30" fill="none" xmlns="http://www.w3.org/2000/svg">
<mask id="mask0_1484_1381" style="mask-type:alpha" maskUnits="userSpaceOnUse" x="0" y="0" width="30" height="30">
<rect width="30" height="30" fill="white"/>
</mask>
<g mask="url(#mask0_1484_1381)">
<path d="M7.88469 26.875C7.25323 26.875 6.71875 26.6562 6.28125 26.2188C5.84375 25.7812 5.625 25.2468 5.625 24.6153V5.38469C5.625 4.75323 5.84375 4.21875 6.28125 3.78125C6.71875 3.34375 7.25323 3.125 7.88469 3.125H18.5816L24.375 8.91844V24.6153C24.375 25.2468 24.1562 25.7812 23.7188 26.2188C23.2812 26.6562 22.7468 26.875 22.1153 26.875H7.88469ZM7.88469 25H22.1153C22.2116 25 22.2997 24.9599 22.3797 24.8797C22.4599 24.7997 22.5 24.7116 22.5 24.6153V9.85563H17.6444V5H7.88469C7.78844 5 7.70031 5.0401 7.62031 5.12031C7.5401 5.20031 7.5 5.28844 7.5 5.38469V24.6153C7.5 24.7116 7.5401 24.7997 7.62031 24.8797C7.70031 24.9599 7.78844 25 7.88469 25ZM15 23.2572C16.2677 23.2572 17.3378 22.8036 18.2103 21.8966C19.0828 20.9895 19.5191 19.9005 19.5191 18.6297V13.2691H17.6444V18.6297C17.6444 19.3814 17.3907 20.028 16.8834 20.5697C16.3761 21.1114 15.7483 21.3822 15 21.3822C14.2644 21.3822 13.6398 21.1114 13.1263 20.5697C12.6125 20.028 12.3556 19.3814 12.3556 18.6297V11.7787C12.3556 11.5192 12.4382 11.3 12.6034 11.1213C12.7684 10.9427 12.9703 10.8534 13.2091 10.8534C13.4607 10.8534 13.6659 10.9427 13.8247 11.1213C13.9832 11.3 14.0625 11.5192 14.0625 11.7787V18.6297H15.9375V11.7787C15.9375 11.0079 15.6755 10.3485 15.1516 9.80062C14.6274 9.2525 13.9799 8.97844 13.2091 8.97844C12.4382 8.97844 11.7908 9.2525 11.2669 9.80062C10.7429 10.3485 10.4809 11.0079 10.4809 11.7787V18.6297C10.4809 19.9005 10.9204 20.9895 11.7994 21.8966C12.6783 22.8036 13.7452 23.2572 15 23.2572Z" fill="white"/>
</g>
</svg>
