<svg width="755" height="325" viewBox="0 0 755 325" fill="none" xmlns="http://www.w3.org/2000/svg">
<path d="M18.46 39.832C8.89203 39.832 3.27603 34.736 2.70403 26.832L10.66 26.468C11.284 30.836 13.78 33.28 18.564 33.28C22.464 33.28 24.752 31.824 24.752 29.016C24.752 26.468 23.452 24.96 16.536 23.4C7.07203 21.268 3.43203 18.668 3.43203 12.376C3.43203 5.772 8.58003 1.248 17.264 1.248C26.416 1.248 31.356 6.448 32.136 13.728L24.232 14.144C23.816 10.296 21.372 7.8 17.16 7.8C13.572 7.8 11.388 9.516 11.388 12.116C11.388 14.872 13.104 16.016 19.084 17.264C29.328 19.344 32.708 23.036 32.708 28.652C32.708 35.568 27.196 39.832 18.46 39.832Z" fill="white"/>
<path d="M47.1555 39L33.8435 2.08H42.0075L51.8355 30.108L61.6635 2.08H69.8275L56.4635 39H47.1555Z" fill="white"/>
<path d="M72.7639 27.04V20.644H90.5999V27.04H72.7639Z" fill="white"/>
<path d="M111.763 39.832C101.103 39.832 94.7075 31.98 94.7075 20.592C94.7075 9.464 101.207 1.248 112.231 1.248C121.799 1.248 126.739 6.344 128.351 14.196L120.187 14.56C119.407 10.452 117.119 7.904 112.283 7.904C105.939 7.904 102.871 13.364 102.871 20.592C102.871 27.976 105.783 33.176 112.439 33.176C117.327 33.176 120.343 30.004 120.707 25.584H112.283V19.812H128.455V39H123.567L123.307 33.748C121.383 37.44 116.963 39.832 111.763 39.832Z" fill="white"/>
<path d="M147.386 39.624C138.858 39.624 133.346 33.852 133.346 25.064C133.346 16.276 138.858 10.504 147.334 10.504C155.602 10.504 161.01 16.224 161.01 25.584V27.144H141.406C141.614 31.564 143.954 33.696 147.542 33.696C150.142 33.696 152.014 32.604 152.742 30.316L160.594 30.784C159.086 36.348 154.094 39.624 147.386 39.624ZM141.406 22.36H153.002C152.794 18.304 150.558 16.276 147.334 16.276C144.058 16.276 141.822 18.512 141.406 22.36Z" fill="white"/>
<path d="M165.83 39V11.128H173.63V39H165.83ZM165.674 7.696V1.456H173.734V7.696H165.674Z" fill="white"/>
<path d="M191.856 39.624C182.86 39.624 178.856 35.672 178.44 30.212L186.344 29.952C186.812 32.604 188.32 34.112 191.856 34.112C194.664 34.112 196.172 33.176 196.172 31.304C196.172 29.588 195.236 28.808 190.608 28.028C181.872 26.52 179.272 24.284 179.272 19.448C179.272 14.092 183.432 10.504 191.7 10.504C200.072 10.504 203.816 14.612 204.232 20.072L196.432 20.384C196.328 17.784 194.82 16.016 191.596 16.016C188.84 16.016 187.332 17.264 187.332 19.136C187.332 21.164 188.476 21.996 192.324 22.568C201.112 23.868 204.18 26.364 204.18 31.2C204.18 36.608 199.448 39.624 191.856 39.624Z" fill="white"/>
<path d="M219.777 39C214.005 39 211.405 36.452 211.405 30.628V16.952H206.933V11.128H211.405V4.576H219.205V11.128H226.537V16.952H219.205V29.692C219.205 32.396 220.349 33.176 222.637 33.176H226.537V39H219.777Z" fill="white"/>
<path d="M243.637 44.72V0H251.229V44.72H243.637Z" fill="white"/>
<path d="M270.754 39V2.08H278.658V18.2L292.074 2.08H301.278L287.706 18.356L302.11 39H293.114L282.506 23.66L278.658 28.132V39H270.754Z" fill="white"/>
<path d="M306.098 39V2.08H314.002V39H306.098Z" fill="white"/>
<path d="M336.527 39.832C326.439 39.832 319.211 32.656 319.211 20.592C319.211 8.84 326.023 1.248 336.683 1.248C346.355 1.248 351.555 6.188 353.115 14.976L344.899 15.288C344.067 10.66 341.259 7.904 336.683 7.904C330.807 7.904 327.375 12.896 327.375 20.592C327.375 28.392 330.963 33.176 336.631 33.176C341.571 33.176 344.275 30.212 345.003 25.22L353.271 25.532C351.763 34.528 346.147 39.832 336.527 39.832Z" fill="white"/>
<path d="M358.758 39V2.08H366.662V18.2L380.078 2.08H389.282L375.71 18.356L390.114 39H381.118L370.51 23.66L366.662 28.132V39H358.758Z" fill="white"/>
<path d="M404.554 39L391.242 2.08H399.406L409.234 30.108L419.062 2.08H427.226L413.862 39H404.554Z" fill="white"/>
<path d="M445.926 39.832C434.694 39.832 427.934 32.5 427.934 20.592C427.934 8.684 434.694 1.248 445.926 1.248C457.158 1.248 463.918 8.684 463.918 20.592C463.918 32.5 457.158 39.832 445.926 39.832ZM436.098 20.592C436.098 28.6 439.738 33.176 445.926 33.176C452.062 33.176 455.754 28.6 455.754 20.592C455.754 12.584 452.062 7.904 445.926 7.904C439.738 7.904 436.098 12.584 436.098 20.592Z" fill="white"/>
<path d="M470.325 39V2.08H478.229V39H470.325Z" fill="white"/>
<path d="M485.203 39V2.08H497.943C509.903 2.08 516.612 8.736 516.612 20.592C516.612 32.396 510.007 39 498.255 39H485.203ZM493.107 32.344H497.943C505.067 32.344 508.448 28.548 508.448 20.54C508.448 12.532 505.067 8.736 497.943 8.736H493.107V32.344Z" fill="white"/>
<path d="M521.918 39V2.08H529.822V32.344H546.826V39H521.918Z" fill="white"/>
<path d="M566.582 39.832C555.35 39.832 548.59 32.5 548.59 20.592C548.59 8.684 555.35 1.248 566.582 1.248C577.814 1.248 584.574 8.684 584.574 20.592C584.574 32.5 577.814 39.832 566.582 39.832ZM556.754 20.592C556.754 28.6 560.394 33.176 566.582 33.176C572.718 33.176 576.41 28.6 576.41 20.592C576.41 12.584 572.718 7.904 566.582 7.904C560.394 7.904 556.754 12.584 556.754 20.592Z" fill="white"/>
<path d="M606.953 39.832C595.721 39.832 588.961 32.5 588.961 20.592C588.961 8.684 595.721 1.248 606.953 1.248C618.185 1.248 624.945 8.684 624.945 20.592C624.945 32.5 618.185 39.832 606.953 39.832ZM597.125 20.592C597.125 28.6 600.765 33.176 606.953 33.176C613.089 33.176 616.781 28.6 616.781 20.592C616.781 12.584 613.089 7.904 606.953 7.904C600.765 7.904 597.125 12.584 597.125 20.592Z" fill="white"/>
<path d="M631.352 39V2.08H646.12C654.96 2.08 660.316 6.656 660.316 14.144C660.316 21.632 654.96 26.26 646.12 26.26H639.256V39H631.352ZM639.256 19.604H645.652C649.812 19.604 652.204 17.732 652.204 14.144C652.204 10.556 649.812 8.736 645.652 8.736H639.256V19.604Z" fill="white"/>
<path d="M691.121 39.832C681.969 39.832 676.925 35.36 676.561 28.184L684.621 27.872C684.985 31.564 687.377 33.176 691.121 33.176C694.813 33.176 697.621 31.512 697.621 28.08C697.621 24.544 695.021 22.776 690.861 22.776H687.585V16.9H690.861C694.033 16.9 696.425 15.652 696.425 12.428C696.425 9.62 694.761 7.904 691.017 7.904C687.273 7.904 685.505 9.568 685.089 12.012L677.133 11.596C677.809 5.356 682.853 1.248 691.017 1.248C699.753 1.248 704.537 5.2 704.537 11.596C704.537 15.392 702.301 18.148 698.141 19.448C703.029 20.748 705.785 23.972 705.785 28.652C705.785 35.672 700.065 39.832 691.121 39.832Z" fill="white"/>
<path d="M710.018 39V31.044H718.494V39H710.018Z" fill="white"/>
<path d="M738.427 39.832C728.703 39.832 722.671 32.5 722.671 20.592C722.671 8.684 728.703 1.248 738.427 1.248C748.099 1.248 754.131 8.632 754.131 20.592C754.131 32.448 748.099 39.832 738.427 39.832ZM730.835 20.592C730.835 28.912 733.487 33.176 738.427 33.176C743.315 33.176 745.967 28.912 745.967 20.592C745.967 12.22 743.315 7.904 738.427 7.904C733.487 7.904 730.835 12.22 730.835 20.592Z" fill="white"/>
<path d="M15.62 116.704C7.52403 116.704 2.77203 112.392 2.28803 105.704L9.02003 105.396C9.54803 109.092 11.66 111.16 15.708 111.16C19.008 111.16 20.944 109.928 20.944 107.552C20.944 105.396 19.844 104.12 13.992 102.8C5.98403 100.996 2.90403 98.796 2.90403 93.472C2.90403 87.884 7.26003 84.056 14.608 84.056C22.352 84.056 26.532 88.456 27.192 94.616L20.504 94.968C20.152 91.712 18.084 89.6 14.52 89.6C11.484 89.6 9.63603 91.052 9.63603 93.252C9.63603 95.584 11.088 96.552 16.148 97.608C24.816 99.368 27.676 102.492 27.676 107.244C27.676 113.096 23.012 116.704 15.62 116.704Z" fill="white"/>
<path d="M39.9008 116L28.6368 84.76H35.5448L43.8608 108.476L52.1768 84.76H59.0848L47.7768 116H39.9008Z" fill="white"/>
<path d="M61.5694 105.88V100.468H76.6614V105.88H61.5694Z" fill="white"/>
<path d="M94.5691 116.704C85.5491 116.704 80.1371 110.06 80.1371 100.424C80.1371 91.008 85.6371 84.056 94.9651 84.056C103.061 84.056 107.241 88.368 108.605 95.012L101.697 95.32C101.037 91.844 99.1011 89.688 95.0091 89.688C89.6411 89.688 87.0451 94.308 87.0451 100.424C87.0451 106.672 89.5091 111.072 95.1411 111.072C99.2771 111.072 101.829 108.388 102.137 104.648H95.0091V99.764H108.693V116H104.557L104.337 111.556C102.709 114.68 98.9691 116.704 94.5691 116.704Z" fill="white"/>
<path d="M124.711 116.528C117.495 116.528 112.831 111.644 112.831 104.208C112.831 96.772 117.495 91.888 124.667 91.888C131.663 91.888 136.239 96.728 136.239 104.648V105.968H119.651C119.827 109.708 121.807 111.512 124.843 111.512C127.043 111.512 128.627 110.588 129.243 108.652L135.887 109.048C134.611 113.756 130.387 116.528 124.711 116.528ZM119.651 101.92H129.463C129.287 98.488 127.395 96.772 124.667 96.772C121.895 96.772 120.003 98.664 119.651 101.92Z" fill="white"/>
<path d="M140.318 116V92.416H146.918V116H140.318ZM140.186 89.512V84.232H147.006V89.512H140.186Z" fill="white"/>
<path d="M162.339 116.528C154.727 116.528 151.339 113.184 150.987 108.564L157.675 108.344C158.071 110.588 159.347 111.864 162.339 111.864C164.715 111.864 165.991 111.072 165.991 109.488C165.991 108.036 165.199 107.376 161.283 106.716C153.891 105.44 151.691 103.548 151.691 99.456C151.691 94.924 155.211 91.888 162.207 91.888C169.291 91.888 172.459 95.364 172.811 99.984L166.211 100.248C166.123 98.048 164.847 96.552 162.119 96.552C159.787 96.552 158.511 97.608 158.511 99.192C158.511 100.908 159.479 101.612 162.735 102.096C170.171 103.196 172.767 105.308 172.767 109.4C172.767 113.976 168.763 116.528 162.339 116.528Z" fill="white"/>
<path d="M185.965 116C181.081 116 178.881 113.844 178.881 108.916V97.344H175.097V92.416H178.881V86.872H185.481V92.416H191.685V97.344H185.481V108.124C185.481 110.412 186.449 111.072 188.385 111.072H191.685V116H185.965Z" fill="white"/>
<path d="M206.154 120.84V83H212.578V120.84H206.154Z" fill="white"/>
<path d="M229.1 116V84.76H235.788V98.4L247.14 84.76H254.928L243.444 98.532L255.632 116H248.02L239.044 103.02L235.788 106.804V116H229.1Z" fill="white"/>
<path d="M259.006 116V84.76H265.694V116H259.006Z" fill="white"/>
<path d="M284.754 116.704C276.218 116.704 270.102 110.632 270.102 100.424C270.102 90.48 275.866 84.056 284.886 84.056C293.07 84.056 297.47 88.236 298.79 95.672L291.838 95.936C291.134 92.02 288.758 89.688 284.886 89.688C279.914 89.688 277.01 93.912 277.01 100.424C277.01 107.024 280.046 111.072 284.842 111.072C289.022 111.072 291.31 108.564 291.926 104.34L298.922 104.604C297.646 112.216 292.894 116.704 284.754 116.704Z" fill="white"/>
<path d="M303.565 116V84.76H310.253V98.4L321.605 84.76H329.393L317.909 98.532L330.097 116H322.485L313.509 103.02L310.253 106.804V116H303.565Z" fill="white"/>
<path d="M342.315 116L331.051 84.76H337.959L346.275 108.476L354.591 84.76H361.499L350.191 116H342.315Z" fill="white"/>
<path d="M377.322 116.704C367.818 116.704 362.098 110.5 362.098 100.424C362.098 90.348 367.818 84.056 377.322 84.056C386.826 84.056 392.546 90.348 392.546 100.424C392.546 110.5 386.826 116.704 377.322 116.704ZM369.006 100.424C369.006 107.2 372.086 111.072 377.322 111.072C382.514 111.072 385.638 107.2 385.638 100.424C385.638 93.648 382.514 89.688 377.322 89.688C372.086 89.688 369.006 93.648 369.006 100.424Z" fill="white"/>
<path d="M397.967 116V84.76H404.655V116H397.967Z" fill="white"/>
<path d="M410.557 116V84.76H421.337C431.457 84.76 437.133 90.392 437.133 100.424C437.133 110.412 431.545 116 421.601 116H410.557ZM417.245 110.368H421.337C427.365 110.368 430.225 107.156 430.225 100.38C430.225 93.604 427.365 90.392 421.337 90.392H417.245V110.368Z" fill="white"/>
<path d="M441.623 116V84.76H448.311V110.368H462.699V116H441.623Z" fill="white"/>
<path d="M479.416 116.704C469.912 116.704 464.192 110.5 464.192 100.424C464.192 90.348 469.912 84.056 479.416 84.056C488.92 84.056 494.64 90.348 494.64 100.424C494.64 110.5 488.92 116.704 479.416 116.704ZM471.1 100.424C471.1 107.2 474.18 111.072 479.416 111.072C484.608 111.072 487.732 107.2 487.732 100.424C487.732 93.648 484.608 89.688 479.416 89.688C474.18 89.688 471.1 93.648 471.1 100.424Z" fill="white"/>
<path d="M513.576 116.704C504.072 116.704 498.352 110.5 498.352 100.424C498.352 90.348 504.072 84.056 513.576 84.056C523.08 84.056 528.8 90.348 528.8 100.424C528.8 110.5 523.08 116.704 513.576 116.704ZM505.26 100.424C505.26 107.2 508.34 111.072 513.576 111.072C518.768 111.072 521.892 107.2 521.892 100.424C521.892 93.648 518.768 89.688 513.576 89.688C508.34 89.688 505.26 93.648 505.26 100.424Z" fill="white"/>
<path d="M534.221 116V84.76H546.717C554.197 84.76 558.729 88.632 558.729 94.968C558.729 101.304 554.197 105.22 546.717 105.22H540.909V116H534.221ZM540.909 99.588H546.321C549.841 99.588 551.865 98.004 551.865 94.968C551.865 91.932 549.841 90.392 546.321 90.392H540.909V99.588Z" fill="white"/>
<path d="M584.795 116.704C577.051 116.704 572.783 112.92 572.475 106.848L579.295 106.584C579.603 109.708 581.627 111.072 584.795 111.072C587.919 111.072 590.295 109.664 590.295 106.76C590.295 103.768 588.095 102.272 584.575 102.272H581.803V97.3H584.575C587.259 97.3 589.283 96.244 589.283 93.516C589.283 91.14 587.875 89.688 584.707 89.688C581.539 89.688 580.043 91.096 579.691 93.164L572.959 92.812C573.531 87.532 577.799 84.056 584.707 84.056C592.099 84.056 596.147 87.4 596.147 92.812C596.147 96.024 594.255 98.356 590.735 99.456C594.871 100.556 597.203 103.284 597.203 107.244C597.203 113.184 592.363 116.704 584.795 116.704Z" fill="white"/>
<path d="M600.784 116V109.268H607.956V116H600.784Z" fill="white"/>
<path d="M624.823 116.704C616.595 116.704 611.491 110.5 611.491 100.424C611.491 90.348 616.595 84.056 624.823 84.056C633.007 84.056 638.111 90.304 638.111 100.424C638.111 110.456 633.007 116.704 624.823 116.704ZM618.399 100.424C618.399 107.464 620.643 111.072 624.823 111.072C628.959 111.072 631.203 107.464 631.203 100.424C631.203 93.34 628.959 89.688 624.823 89.688C620.643 89.688 618.399 93.34 618.399 100.424Z" fill="white"/>
<path d="M12.425 181.56C5.98503 181.56 2.20503 178.13 1.82003 172.81L7.17503 172.565C7.59503 175.505 9.27503 177.15 12.495 177.15C15.12 177.15 16.66 176.17 16.66 174.28C16.66 172.565 15.785 171.55 11.13 170.5C4.76003 169.065 2.31003 167.315 2.31003 163.08C2.31003 158.635 5.77503 155.59 11.62 155.59C17.78 155.59 21.105 159.09 21.63 163.99L16.31 164.27C16.03 161.68 14.385 160 11.55 160C9.13503 160 7.66503 161.155 7.66503 162.905C7.66503 164.76 8.82003 165.53 12.845 166.37C19.74 167.77 22.015 170.255 22.015 174.035C22.015 178.69 18.305 181.56 12.425 181.56Z" fill="white"/>
<path d="M31.7393 181L22.7793 156.15H28.2743L34.8893 175.015L41.5043 156.15H46.9993L38.0043 181H31.7393Z" fill="white"/>
<path d="M48.9757 172.95V168.645H60.9807V172.95H48.9757Z" fill="white"/>
<path d="M75.2254 181.56C68.0504 181.56 63.7454 176.275 63.7454 168.61C63.7454 161.12 68.1204 155.59 75.5404 155.59C81.9804 155.59 85.3054 159.02 86.3904 164.305L80.8954 164.55C80.3704 161.785 78.8304 160.07 75.5754 160.07C71.3054 160.07 69.2404 163.745 69.2404 168.61C69.2404 173.58 71.2004 177.08 75.6804 177.08C78.9704 177.08 81.0004 174.945 81.2454 171.97H75.5754V168.085H86.4604V181H83.1704L82.9954 177.465C81.7004 179.95 78.7254 181.56 75.2254 181.56Z" fill="white"/>
<path d="M99.2021 181.42C93.4621 181.42 89.7521 177.535 89.7521 171.62C89.7521 165.705 93.4621 161.82 99.1671 161.82C104.732 161.82 108.372 165.67 108.372 171.97V173.02H95.1771C95.3171 175.995 96.8921 177.43 99.3071 177.43C101.057 177.43 102.317 176.695 102.807 175.155L108.092 175.47C107.077 179.215 103.717 181.42 99.2021 181.42ZM95.1771 169.8H102.982C102.842 167.07 101.337 165.705 99.1671 165.705C96.9621 165.705 95.4571 167.21 95.1771 169.8Z" fill="white"/>
<path d="M111.617 181V162.24H116.867V181H111.617ZM111.512 159.93V155.73H116.937V159.93H111.512Z" fill="white"/>
<path d="M129.134 181.42C123.079 181.42 120.384 178.76 120.104 175.085L125.424 174.91C125.739 176.695 126.754 177.71 129.134 177.71C131.024 177.71 132.039 177.08 132.039 175.82C132.039 174.665 131.409 174.14 128.294 173.615C122.414 172.6 120.664 171.095 120.664 167.84C120.664 164.235 123.464 161.82 129.029 161.82C134.664 161.82 137.184 164.585 137.464 168.26L132.214 168.47C132.144 166.72 131.129 165.53 128.959 165.53C127.104 165.53 126.089 166.37 126.089 167.63C126.089 168.995 126.859 169.555 129.449 169.94C135.364 170.815 137.429 172.495 137.429 175.75C137.429 179.39 134.244 181.42 129.134 181.42Z" fill="white"/>
<path d="M147.927 181C144.042 181 142.292 179.285 142.292 175.365V166.16H139.282V162.24H142.292V157.83H147.542V162.24H152.477V166.16H147.542V174.735C147.542 176.555 148.312 177.08 149.852 177.08H152.477V181H147.927Z" fill="white"/>
<path d="M163.987 184.85V154.75H169.097V184.85H163.987Z" fill="white"/>
<path d="M182.238 181V156.15H187.558V167L196.588 156.15H202.783L193.648 167.105L203.343 181H197.288L190.148 170.675L187.558 173.685V181H182.238Z" fill="white"/>
<path d="M206.028 181V156.15H211.348V181H206.028Z" fill="white"/>
<path d="M226.509 181.56C219.719 181.56 214.854 176.73 214.854 168.61C214.854 160.7 219.439 155.59 226.614 155.59C233.124 155.59 236.624 158.915 237.674 164.83L232.144 165.04C231.584 161.925 229.694 160.07 226.614 160.07C222.659 160.07 220.349 163.43 220.349 168.61C220.349 173.86 222.764 177.08 226.579 177.08C229.904 177.08 231.724 175.085 232.214 171.725L237.779 171.935C236.764 177.99 232.984 181.56 226.509 181.56Z" fill="white"/>
<path d="M241.472 181V156.15H246.792V167L255.822 156.15H262.017L252.882 167.105L262.577 181H256.522L249.382 170.675L246.792 173.685V181H241.472Z" fill="white"/>
<path d="M272.296 181L263.336 156.15H268.831L275.446 175.015L282.061 156.15H287.556L278.561 181H272.296Z" fill="white"/>
<path d="M300.143 181.56C292.583 181.56 288.033 176.625 288.033 168.61C288.033 160.595 292.583 155.59 300.143 155.59C307.703 155.59 312.253 160.595 312.253 168.61C312.253 176.625 307.703 181.56 300.143 181.56ZM293.528 168.61C293.528 174 295.978 177.08 300.143 177.08C304.273 177.08 306.758 174 306.758 168.61C306.758 163.22 304.273 160.07 300.143 160.07C295.978 160.07 293.528 163.22 293.528 168.61Z" fill="white"/>
<path d="M316.565 181V156.15H321.885V181H316.565Z" fill="white"/>
<path d="M326.579 181V156.15H335.154C343.204 156.15 347.719 160.63 347.719 168.61C347.719 176.555 343.274 181 335.364 181H326.579ZM331.899 176.52H335.154C339.949 176.52 342.224 173.965 342.224 168.575C342.224 163.185 339.949 160.63 335.154 160.63H331.899V176.52Z" fill="white"/>
<path d="M351.291 181V156.15H356.611V176.52H368.056V181H351.291Z" fill="white"/>
<path d="M381.353 181.56C373.793 181.56 369.243 176.625 369.243 168.61C369.243 160.595 373.793 155.59 381.353 155.59C388.913 155.59 393.463 160.595 393.463 168.61C393.463 176.625 388.913 181.56 381.353 181.56ZM374.738 168.61C374.738 174 377.188 177.08 381.353 177.08C385.483 177.08 387.968 174 387.968 168.61C387.968 163.22 385.483 160.07 381.353 160.07C377.188 160.07 374.738 163.22 374.738 168.61Z" fill="white"/>
<path d="M408.526 181.56C400.966 181.56 396.416 176.625 396.416 168.61C396.416 160.595 400.966 155.59 408.526 155.59C416.086 155.59 420.636 160.595 420.636 168.61C420.636 176.625 416.086 181.56 408.526 181.56ZM401.911 168.61C401.911 174 404.361 177.08 408.526 177.08C412.656 177.08 415.141 174 415.141 168.61C415.141 163.22 412.656 160.07 408.526 160.07C404.361 160.07 401.911 163.22 401.911 168.61Z" fill="white"/>
<path d="M424.948 181V156.15H434.888C440.838 156.15 444.443 159.23 444.443 164.27C444.443 169.31 440.838 172.425 434.888 172.425H430.268V181H424.948ZM430.268 167.945H434.573C437.373 167.945 438.983 166.685 438.983 164.27C438.983 161.855 437.373 160.63 434.573 160.63H430.268V167.945Z" fill="white"/>
<path d="M465.178 181.56C459.018 181.56 455.623 178.55 455.378 173.72L460.803 173.51C461.048 175.995 462.658 177.08 465.178 177.08C467.663 177.08 469.553 175.96 469.553 173.65C469.553 171.27 467.803 170.08 465.003 170.08H462.798V166.125H465.003C467.138 166.125 468.748 165.285 468.748 163.115C468.748 161.225 467.628 160.07 465.108 160.07C462.588 160.07 461.398 161.19 461.118 162.835L455.763 162.555C456.218 158.355 459.613 155.59 465.108 155.59C470.988 155.59 474.208 158.25 474.208 162.555C474.208 165.11 472.703 166.965 469.903 167.84C473.193 168.715 475.048 170.885 475.048 174.035C475.048 178.76 471.198 181.56 465.178 181.56Z" fill="white"/>
<path d="M477.897 181V175.645H483.602V181H477.897Z" fill="white"/>
<path d="M497.018 181.56C490.473 181.56 486.413 176.625 486.413 168.61C486.413 160.595 490.473 155.59 497.018 155.59C503.528 155.59 507.588 160.56 507.588 168.61C507.588 176.59 503.528 181.56 497.018 181.56ZM491.908 168.61C491.908 174.21 493.693 177.08 497.018 177.08C500.308 177.08 502.093 174.21 502.093 168.61C502.093 162.975 500.308 160.07 497.018 160.07C493.693 160.07 491.908 162.975 491.908 168.61Z" fill="white"/>
<path d="M9.94003 237.448C4.78803 237.448 1.76403 234.704 1.45603 230.448L5.74003 230.252C6.07603 232.604 7.42003 233.92 9.99603 233.92C12.096 233.92 13.328 233.136 13.328 231.624C13.328 230.252 12.628 229.44 8.90403 228.6C3.80803 227.452 1.84803 226.052 1.84803 222.664C1.84803 219.108 4.62003 216.672 9.29603 216.672C14.224 216.672 16.884 219.472 17.304 223.392L13.048 223.616C12.824 221.544 11.508 220.2 9.24003 220.2C7.30803 220.2 6.13203 221.124 6.13203 222.524C6.13203 224.008 7.05603 224.624 10.276 225.296C15.792 226.416 17.612 228.404 17.612 231.428C17.612 235.152 14.644 237.448 9.94003 237.448Z" fill="white"/>
<path d="M25.3914 237L18.2234 217.12H22.6194L27.9114 232.212L33.2034 217.12H37.5994L30.4034 237H25.3914Z" fill="white"/>
<path d="M39.1806 230.56V227.116H48.7846V230.56H39.1806Z" fill="white"/>
<path d="M60.1803 237.448C54.4403 237.448 50.9963 233.22 50.9963 227.088C50.9963 221.096 54.4963 216.672 60.4323 216.672C65.5843 216.672 68.2443 219.416 69.1123 223.644L64.7163 223.84C64.2963 221.628 63.0643 220.256 60.4603 220.256C57.0443 220.256 55.3923 223.196 55.3923 227.088C55.3923 231.064 56.9603 233.864 60.5443 233.864C63.1763 233.864 64.8003 232.156 64.9963 229.776H60.4603V226.668H69.1683V237H66.5363L66.3963 234.172C65.3603 236.16 62.9803 237.448 60.1803 237.448Z" fill="white"/>
<path d="M79.3617 237.336C74.7697 237.336 71.8017 234.228 71.8017 229.496C71.8017 224.764 74.7697 221.656 79.3337 221.656C83.7857 221.656 86.6977 224.736 86.6977 229.776V230.616H76.1417C76.2537 232.996 77.5137 234.144 79.4457 234.144C80.8457 234.144 81.8537 233.556 82.2457 232.324L86.4737 232.576C85.6617 235.572 82.9737 237.336 79.3617 237.336ZM76.1417 228.04H82.3857C82.2737 225.856 81.0697 224.764 79.3337 224.764C77.5697 224.764 76.3657 225.968 76.1417 228.04Z" fill="white"/>
<path d="M89.2933 237V221.992H93.4933V237H89.2933ZM89.2093 220.144V216.784H93.5493V220.144H89.2093Z" fill="white"/>
<path d="M103.307 237.336C98.4629 237.336 96.3069 235.208 96.0829 232.268L100.339 232.128C100.591 233.556 101.403 234.368 103.307 234.368C104.819 234.368 105.631 233.864 105.631 232.856C105.631 231.932 105.127 231.512 102.635 231.092C97.9309 230.28 96.5309 229.076 96.5309 226.472C96.5309 223.588 98.7709 221.656 103.223 221.656C107.731 221.656 109.747 223.868 109.971 226.808L105.771 226.976C105.715 225.576 104.903 224.624 103.167 224.624C101.683 224.624 100.871 225.296 100.871 226.304C100.871 227.396 101.487 227.844 103.559 228.152C108.291 228.852 109.943 230.196 109.943 232.8C109.943 235.712 107.395 237.336 103.307 237.336Z" fill="white"/>
<path d="M118.341 237C115.233 237 113.833 235.628 113.833 232.492V225.128H111.425V221.992H113.833V218.464H118.033V221.992H121.981V225.128H118.033V231.988C118.033 233.444 118.649 233.864 119.881 233.864H121.981V237H118.341Z" fill="white"/>
<path d="M131.189 240.08V216H135.277V240.08H131.189Z" fill="white"/>
<path d="M145.791 237V217.12H150.047V225.8L157.271 217.12H162.227L154.919 225.884L162.675 237H157.831L152.119 228.74L150.047 231.148V237H145.791Z" fill="white"/>
<path d="M164.822 237V217.12H169.078V237H164.822Z" fill="white"/>
<path d="M181.207 237.448C175.775 237.448 171.883 233.584 171.883 227.088C171.883 220.76 175.551 216.672 181.291 216.672C186.499 216.672 189.299 219.332 190.139 224.064L185.715 224.232C185.267 221.74 183.755 220.256 181.291 220.256C178.127 220.256 176.279 222.944 176.279 227.088C176.279 231.288 178.211 233.864 181.263 233.864C183.923 233.864 185.379 232.268 185.771 229.58L190.223 229.748C189.411 234.592 186.387 237.448 181.207 237.448Z" fill="white"/>
<path d="M193.177 237V217.12H197.434V225.8L204.658 217.12H209.613L202.305 225.884L210.061 237H205.217L199.505 228.74L197.434 231.148V237H193.177Z" fill="white"/>
<path d="M217.837 237L210.669 217.12H215.065L220.357 232.212L225.649 217.12H230.045L222.849 237H217.837Z" fill="white"/>
<path d="M240.114 237.448C234.066 237.448 230.426 233.5 230.426 227.088C230.426 220.676 234.066 216.672 240.114 216.672C246.162 216.672 249.802 220.676 249.802 227.088C249.802 233.5 246.162 237.448 240.114 237.448ZM234.822 227.088C234.822 231.4 236.782 233.864 240.114 233.864C243.418 233.864 245.406 231.4 245.406 227.088C245.406 222.776 243.418 220.256 240.114 220.256C236.782 220.256 234.822 222.776 234.822 227.088Z" fill="white"/>
<path d="M253.252 237V217.12H257.508V237H253.252Z" fill="white"/>
<path d="M261.263 237V217.12H268.123C274.563 217.12 278.175 220.704 278.175 227.088C278.175 233.444 274.619 237 268.291 237H261.263ZM265.519 233.416H268.123C271.959 233.416 273.779 231.372 273.779 227.06C273.779 222.748 271.959 220.704 268.123 220.704H265.519V233.416Z" fill="white"/>
<path d="M281.033 237V217.12H285.289V233.416H294.445V237H281.033Z" fill="white"/>
<path d="M305.083 237.448C299.035 237.448 295.395 233.5 295.395 227.088C295.395 220.676 299.035 216.672 305.083 216.672C311.131 216.672 314.771 220.676 314.771 227.088C314.771 233.5 311.131 237.448 305.083 237.448ZM299.791 227.088C299.791 231.4 301.751 233.864 305.083 233.864C308.387 233.864 310.375 231.4 310.375 227.088C310.375 222.776 308.387 220.256 305.083 220.256C301.751 220.256 299.791 222.776 299.791 227.088Z" fill="white"/>
<path d="M326.821 237.448C320.773 237.448 317.133 233.5 317.133 227.088C317.133 220.676 320.773 216.672 326.821 216.672C332.869 216.672 336.509 220.676 336.509 227.088C336.509 233.5 332.869 237.448 326.821 237.448ZM321.529 227.088C321.529 231.4 323.489 233.864 326.821 233.864C330.125 233.864 332.113 231.4 332.113 227.088C332.113 222.776 330.125 220.256 326.821 220.256C323.489 220.256 321.529 222.776 321.529 227.088Z" fill="white"/>
<path d="M339.959 237V217.12H347.911C352.671 217.12 355.555 219.584 355.555 223.616C355.555 227.648 352.671 230.14 347.911 230.14H344.215V237H339.959ZM344.215 226.556H347.659C349.899 226.556 351.187 225.548 351.187 223.616C351.187 221.684 349.899 220.704 347.659 220.704H344.215V226.556Z" fill="white"/>
<path d="M372.142 237.448C367.214 237.448 364.498 235.04 364.302 231.176L368.642 231.008C368.838 232.996 370.126 233.864 372.142 233.864C374.13 233.864 375.642 232.968 375.642 231.12C375.642 229.216 374.242 228.264 372.002 228.264H370.238V225.1H372.002C373.71 225.1 374.998 224.428 374.998 222.692C374.998 221.18 374.102 220.256 372.086 220.256C370.07 220.256 369.118 221.152 368.894 222.468L364.61 222.244C364.974 218.884 367.69 216.672 372.086 216.672C376.79 216.672 379.366 218.8 379.366 222.244C379.366 224.288 378.162 225.772 375.922 226.472C378.554 227.172 380.038 228.908 380.038 231.428C380.038 235.208 376.958 237.448 372.142 237.448Z" fill="white"/>
<path d="M382.317 237V232.716H386.881V237H382.317Z" fill="white"/>
<path d="M397.614 237.448C392.378 237.448 389.13 233.5 389.13 227.088C389.13 220.676 392.378 216.672 397.614 216.672C402.822 216.672 406.07 220.648 406.07 227.088C406.07 233.472 402.822 237.448 397.614 237.448ZM393.526 227.088C393.526 231.568 394.954 233.864 397.614 233.864C400.246 233.864 401.674 231.568 401.674 227.088C401.674 222.58 400.246 220.256 397.614 220.256C394.954 220.256 393.526 222.58 393.526 227.088Z" fill="white"/>
<path d="M8.16503 285.368C3.93303 285.368 1.44903 283.114 1.19603 279.618L4.71503 279.457C4.99103 281.389 6.09503 282.47 8.21103 282.47C9.93603 282.47 10.948 281.826 10.948 280.584C10.948 279.457 10.373 278.79 7.31403 278.1C3.12803 277.157 1.51803 276.007 1.51803 273.224C1.51803 270.303 3.79503 268.302 7.63603 268.302C11.684 268.302 13.869 270.602 14.214 273.822L10.718 274.006C10.534 272.304 9.45303 271.2 7.59003 271.2C6.00303 271.2 5.03703 271.959 5.03703 273.109C5.03703 274.328 5.79603 274.834 8.44103 275.386C12.972 276.306 14.467 277.939 14.467 280.423C14.467 283.482 12.029 285.368 8.16503 285.368Z" fill="white"/>
<path d="M20.8573 285L14.9693 268.67H18.5803L22.9273 281.067L27.2743 268.67H30.8853L24.9743 285H20.8573Z" fill="white"/>
<path d="M32.184 279.71V276.881H40.073V279.71H32.184Z" fill="white"/>
<path d="M49.4339 285.368C44.7189 285.368 41.8899 281.895 41.8899 276.858C41.8899 271.936 44.7649 268.302 49.6409 268.302C53.8729 268.302 56.0579 270.556 56.7709 274.029L53.1599 274.19C52.8149 272.373 51.8029 271.246 49.6639 271.246C46.8579 271.246 45.5009 273.661 45.5009 276.858C45.5009 280.124 46.7889 282.424 49.7329 282.424C51.8949 282.424 53.2289 281.021 53.3899 279.066H49.6639V276.513H56.8169V285H54.6549L54.5399 282.677C53.6889 284.31 51.7339 285.368 49.4339 285.368Z" fill="white"/>
<path d="M65.1899 285.276C61.4179 285.276 58.9799 282.723 58.9799 278.836C58.9799 274.949 61.4179 272.396 65.1669 272.396C68.8239 272.396 71.2159 274.926 71.2159 279.066V279.756H62.5449C62.6369 281.711 63.6719 282.654 65.2589 282.654C66.4089 282.654 67.2369 282.171 67.5589 281.159L71.0319 281.366C70.3649 283.827 68.1569 285.276 65.1899 285.276ZM62.5449 277.64H67.6739C67.5819 275.846 66.5929 274.949 65.1669 274.949C63.7179 274.949 62.7289 275.938 62.5449 277.64Z" fill="white"/>
<path d="M73.3481 285V272.672H76.7981V285H73.3481ZM73.2791 271.154V268.394H76.8441V271.154H73.2791Z" fill="white"/>
<path d="M84.8592 285.276C80.8802 285.276 79.1092 283.528 78.9252 281.113L82.4212 280.998C82.6282 282.171 83.2952 282.838 84.8592 282.838C86.1012 282.838 86.7682 282.424 86.7682 281.596C86.7682 280.837 86.3542 280.492 84.3072 280.147C80.4432 279.48 79.2932 278.491 79.2932 276.352C79.2932 273.983 81.1332 272.396 84.7902 272.396C88.4932 272.396 90.1492 274.213 90.3332 276.628L86.8832 276.766C86.8372 275.616 86.1702 274.834 84.7442 274.834C83.5252 274.834 82.8582 275.386 82.8582 276.214C82.8582 277.111 83.3642 277.479 85.0662 277.732C88.9532 278.307 90.3102 279.411 90.3102 281.55C90.3102 283.942 88.2172 285.276 84.8592 285.276Z" fill="white"/>
<path d="M97.209 285C94.656 285 93.506 283.873 93.506 281.297V275.248H91.528V272.672H93.506V269.774H96.956V272.672H100.199V275.248H96.956V280.883C96.956 282.079 97.462 282.424 98.474 282.424H100.199V285H97.209Z" fill="white"/>
<path d="M107.763 287.53V267.75H111.121V287.53H107.763Z" fill="white"/>
<path d="M119.757 285V268.67H123.253V275.8L129.187 268.67H133.258L127.255 275.869L133.626 285H129.647L124.955 278.215L123.253 280.193V285H119.757Z" fill="white"/>
<path d="M135.39 285V268.67H138.886V285H135.39Z" fill="white"/>
<path d="M148.849 285.368C144.387 285.368 141.19 282.194 141.19 276.858C141.19 271.66 144.203 268.302 148.918 268.302C153.196 268.302 155.496 270.487 156.186 274.374L152.552 274.512C152.184 272.465 150.942 271.246 148.918 271.246C146.319 271.246 144.801 273.454 144.801 276.858C144.801 280.308 146.388 282.424 148.895 282.424C151.08 282.424 152.276 281.113 152.598 278.905L156.255 279.043C155.588 283.022 153.104 285.368 148.849 285.368Z" fill="white"/>
<path d="M158.682 285V268.67H162.178V275.8L168.112 268.67H172.183L166.18 275.869L172.551 285H168.572L163.88 278.215L162.178 280.193V285H158.682Z" fill="white"/>
<path d="M178.937 285L173.049 268.67H176.66L181.007 281.067L185.354 268.67H188.965L183.054 285H178.937Z" fill="white"/>
<path d="M197.237 285.368C192.269 285.368 189.279 282.125 189.279 276.858C189.279 271.591 192.269 268.302 197.237 268.302C202.205 268.302 205.195 271.591 205.195 276.858C205.195 282.125 202.205 285.368 197.237 285.368ZM192.89 276.858C192.89 280.4 194.5 282.424 197.237 282.424C199.951 282.424 201.584 280.4 201.584 276.858C201.584 273.316 199.951 271.246 197.237 271.246C194.5 271.246 192.89 273.316 192.89 276.858Z" fill="white"/>
<path d="M208.028 285V268.67H211.524V285H208.028Z" fill="white"/>
<path d="M214.609 285V268.67H220.244C225.534 268.67 228.501 271.614 228.501 276.858C228.501 282.079 225.58 285 220.382 285H214.609ZM218.105 282.056H220.244C223.395 282.056 224.89 280.377 224.89 276.835C224.89 273.293 223.395 271.614 220.244 271.614H218.105V282.056Z" fill="white"/>
<path d="M230.849 285V268.67H234.345V282.056H241.866V285H230.849Z" fill="white"/>
<path d="M250.604 285.368C245.636 285.368 242.646 282.125 242.646 276.858C242.646 271.591 245.636 268.302 250.604 268.302C255.572 268.302 258.562 271.591 258.562 276.858C258.562 282.125 255.572 285.368 250.604 285.368ZM246.257 276.858C246.257 280.4 247.867 282.424 250.604 282.424C253.318 282.424 254.951 280.4 254.951 276.858C254.951 273.316 253.318 271.246 250.604 271.246C247.867 271.246 246.257 273.316 246.257 276.858Z" fill="white"/>
<path d="M268.46 285.368C263.492 285.368 260.502 282.125 260.502 276.858C260.502 271.591 263.492 268.302 268.46 268.302C273.428 268.302 276.418 271.591 276.418 276.858C276.418 282.125 273.428 285.368 268.46 285.368ZM264.113 276.858C264.113 280.4 265.723 282.424 268.46 282.424C271.174 282.424 272.807 280.4 272.807 276.858C272.807 273.316 271.174 271.246 268.46 271.246C265.723 271.246 264.113 273.316 264.113 276.858Z" fill="white"/>
<path d="M279.252 285V268.67H285.784C289.694 268.67 292.063 270.694 292.063 274.006C292.063 277.318 289.694 279.365 285.784 279.365H282.748V285H279.252ZM282.748 276.421H285.577C287.417 276.421 288.475 275.593 288.475 274.006C288.475 272.419 287.417 271.614 285.577 271.614H282.748V276.421Z" fill="white"/>
<path d="M305.688 285.368C301.64 285.368 299.409 283.39 299.248 280.216L302.813 280.078C302.974 281.711 304.032 282.424 305.688 282.424C307.321 282.424 308.563 281.688 308.563 280.17C308.563 278.606 307.413 277.824 305.573 277.824H304.124V275.225H305.573C306.976 275.225 308.034 274.673 308.034 273.247C308.034 272.005 307.298 271.246 305.642 271.246C303.986 271.246 303.204 271.982 303.02 273.063L299.501 272.879C299.8 270.119 302.031 268.302 305.642 268.302C309.506 268.302 311.622 270.05 311.622 272.879C311.622 274.558 310.633 275.777 308.793 276.352C310.955 276.927 312.174 278.353 312.174 280.423C312.174 283.528 309.644 285.368 305.688 285.368Z" fill="white"/>
<path d="M314.046 285V281.481H317.795V285H314.046Z" fill="white"/>
<path d="M326.612 285.368C322.311 285.368 319.643 282.125 319.643 276.858C319.643 271.591 322.311 268.302 326.612 268.302C330.89 268.302 333.558 271.568 333.558 276.858C333.558 282.102 330.89 285.368 326.612 285.368ZM323.254 276.858C323.254 280.538 324.427 282.424 326.612 282.424C328.774 282.424 329.947 280.538 329.947 276.858C329.947 273.155 328.774 271.246 326.612 271.246C324.427 271.246 323.254 273.155 323.254 276.858Z" fill="white"/>
<path d="M4.97003 323.224C2.39403 323.224 0.882027 321.852 0.728027 319.724L2.87003 319.626C3.03803 320.802 3.71003 321.46 4.99803 321.46C6.04803 321.46 6.66403 321.068 6.66403 320.312C6.66403 319.626 6.31403 319.22 4.45203 318.8C1.90403 318.226 0.924027 317.526 0.924027 315.832C0.924027 314.054 2.31003 312.836 4.64803 312.836C7.11203 312.836 8.44203 314.236 8.65203 316.196L6.52403 316.308C6.41203 315.272 5.75403 314.6 4.62003 314.6C3.65403 314.6 3.06603 315.062 3.06603 315.762C3.06603 316.504 3.52803 316.812 5.13803 317.148C7.89603 317.708 8.80603 318.702 8.80603 320.214C8.80603 322.076 7.32203 323.224 4.97003 323.224Z" fill="white"/>
<path d="M12.6957 323L9.11173 313.06H11.3097L13.9557 320.606L16.6017 313.06H18.7997L15.2017 323H12.6957Z" fill="white"/>
<path d="M19.5903 319.78V318.058H24.3923V319.78H19.5903Z" fill="white"/>
<path d="M30.0902 323.224C27.2202 323.224 25.4982 321.11 25.4982 318.044C25.4982 315.048 27.2482 312.836 30.2162 312.836C32.7922 312.836 34.1222 314.208 34.5562 316.322L32.3582 316.42C32.1482 315.314 31.5322 314.628 30.2302 314.628C28.5222 314.628 27.6962 316.098 27.6962 318.044C27.6962 320.032 28.4802 321.432 30.2722 321.432C31.5882 321.432 32.4002 320.578 32.4982 319.388H30.2302V317.834H34.5842V323H33.2682L33.1982 321.586C32.6802 322.58 31.4902 323.224 30.0902 323.224Z" fill="white"/>
<path d="M39.6808 323.168C37.3848 323.168 35.9008 321.614 35.9008 319.248C35.9008 316.882 37.3848 315.328 39.6668 315.328C41.8928 315.328 43.3488 316.868 43.3488 319.388V319.808H38.0708C38.1268 320.998 38.7568 321.572 39.7228 321.572C40.4228 321.572 40.9268 321.278 41.1228 320.662L43.2368 320.788C42.8308 322.286 41.4868 323.168 39.6808 323.168ZM38.0708 318.52H41.1928C41.1368 317.428 40.5348 316.882 39.6668 316.882C38.7848 316.882 38.1828 317.484 38.0708 318.52Z" fill="white"/>
<path d="M44.6467 323V315.496H46.7467V323H44.6467ZM44.6047 314.572V312.892H46.7747V314.572H44.6047Z" fill="white"/>
<path d="M51.6535 323.168C49.2315 323.168 48.1535 322.104 48.0415 320.634L50.1695 320.564C50.2955 321.278 50.7015 321.684 51.6535 321.684C52.4095 321.684 52.8155 321.432 52.8155 320.928C52.8155 320.466 52.5635 320.256 51.3175 320.046C48.9655 319.64 48.2655 319.038 48.2655 317.736C48.2655 316.294 49.3855 315.328 51.6115 315.328C53.8655 315.328 54.8735 316.434 54.9855 317.904L52.8855 317.988C52.8575 317.288 52.4515 316.812 51.5835 316.812C50.8415 316.812 50.4355 317.148 50.4355 317.652C50.4355 318.198 50.7435 318.422 51.7795 318.576C54.1455 318.926 54.9715 319.598 54.9715 320.9C54.9715 322.356 53.6975 323.168 51.6535 323.168Z" fill="white"/>
<path d="M59.1707 323C57.6167 323 56.9167 322.314 56.9167 320.746V317.064H55.7127V315.496H56.9167V313.732H59.0167V315.496H60.9907V317.064H59.0167V320.494C59.0167 321.222 59.3247 321.432 59.9407 321.432H60.9907V323H59.1707Z" fill="white"/>
<path d="M65.5946 324.54V312.5H67.6386V324.54H65.5946Z" fill="white"/>
<path d="M72.8954 323V313.06H75.0234V317.4L78.6354 313.06H81.1134L77.4594 317.442L81.3374 323H78.9154L76.0594 318.87L75.0234 320.074V323H72.8954Z" fill="white"/>
<path d="M82.411 323V313.06H84.539V323H82.411Z" fill="white"/>
<path d="M90.6035 323.224C87.8875 323.224 85.9415 321.292 85.9415 318.044C85.9415 314.88 87.7755 312.836 90.6455 312.836C93.2495 312.836 94.6495 314.166 95.0695 316.532L92.8575 316.616C92.6335 315.37 91.8775 314.628 90.6455 314.628C89.0635 314.628 88.1395 315.972 88.1395 318.044C88.1395 320.144 89.1055 321.432 90.6315 321.432C91.9615 321.432 92.6895 320.634 92.8855 319.29L95.1115 319.374C94.7055 321.796 93.1935 323.224 90.6035 323.224Z" fill="white"/>
<path d="M96.5888 323V313.06H98.7168V317.4L102.329 313.06H104.807L101.153 317.442L105.031 323H102.609L99.7528 318.87L98.7168 320.074V323H96.5888Z" fill="white"/>
<path d="M108.918 323L105.334 313.06H107.532L110.178 320.606L112.824 313.06H115.022L111.424 323H108.918Z" fill="white"/>
<path d="M120.057 323.224C117.033 323.224 115.213 321.25 115.213 318.044C115.213 314.838 117.033 312.836 120.057 312.836C123.081 312.836 124.901 314.838 124.901 318.044C124.901 321.25 123.081 323.224 120.057 323.224ZM117.411 318.044C117.411 320.2 118.391 321.432 120.057 321.432C121.709 321.432 122.703 320.2 122.703 318.044C122.703 315.888 121.709 314.628 120.057 314.628C118.391 314.628 117.411 315.888 117.411 318.044Z" fill="white"/>
<path d="M126.626 323V313.06H128.754V323H126.626Z" fill="white"/>
<path d="M130.632 323V313.06H134.062C137.282 313.06 139.088 314.852 139.088 318.044C139.088 321.222 137.31 323 134.146 323H130.632ZM132.76 321.208H134.062C135.98 321.208 136.89 320.186 136.89 318.03C136.89 315.874 135.98 314.852 134.062 314.852H132.76V321.208Z" fill="white"/>
<path d="M140.516 323V313.06H142.645V321.208H147.223V323H140.516Z" fill="white"/>
<path d="M152.541 323.224C149.517 323.224 147.697 321.25 147.697 318.044C147.697 314.838 149.517 312.836 152.541 312.836C155.565 312.836 157.385 314.838 157.385 318.044C157.385 321.25 155.565 323.224 152.541 323.224ZM149.895 318.044C149.895 320.2 150.875 321.432 152.541 321.432C154.193 321.432 155.187 320.2 155.187 318.044C155.187 315.888 154.193 314.628 152.541 314.628C150.875 314.628 149.895 315.888 149.895 318.044Z" fill="white"/>
<path d="M163.411 323.224C160.387 323.224 158.567 321.25 158.567 318.044C158.567 314.838 160.387 312.836 163.411 312.836C166.435 312.836 168.255 314.838 168.255 318.044C168.255 321.25 166.435 323.224 163.411 323.224ZM160.765 318.044C160.765 320.2 161.745 321.432 163.411 321.432C165.063 321.432 166.057 320.2 166.057 318.044C166.057 315.888 165.063 314.628 163.411 314.628C161.745 314.628 160.765 315.888 160.765 318.044Z" fill="white"/>
<path d="M169.979 323V313.06H173.955C176.335 313.06 177.777 314.292 177.777 316.308C177.777 318.324 176.335 319.57 173.955 319.57H172.107V323H169.979ZM172.107 317.778H173.829C174.949 317.778 175.593 317.274 175.593 316.308C175.593 315.342 174.949 314.852 173.829 314.852H172.107V317.778Z" fill="white"/>
<path d="M186.071 323.224C183.607 323.224 182.249 322.02 182.151 320.088L184.321 320.004C184.419 320.998 185.063 321.432 186.071 321.432C187.065 321.432 187.821 320.984 187.821 320.06C187.821 319.108 187.121 318.632 186.001 318.632H185.119V317.05H186.001C186.855 317.05 187.499 316.714 187.499 315.846C187.499 315.09 187.051 314.628 186.043 314.628C185.035 314.628 184.559 315.076 184.447 315.734L182.305 315.622C182.487 313.942 183.845 312.836 186.043 312.836C188.395 312.836 189.683 313.9 189.683 315.622C189.683 316.644 189.081 317.386 187.961 317.736C189.277 318.086 190.019 318.954 190.019 320.214C190.019 322.104 188.479 323.224 186.071 323.224Z" fill="white"/>
<path d="M191.159 323V320.858H193.441V323H191.159Z" fill="white"/>
<path d="M198.807 323.224C196.189 323.224 194.565 321.25 194.565 318.044C194.565 314.838 196.189 312.836 198.807 312.836C201.411 312.836 203.035 314.824 203.035 318.044C203.035 321.236 201.411 323.224 198.807 323.224ZM196.763 318.044C196.763 320.284 197.477 321.432 198.807 321.432C200.123 321.432 200.837 320.284 200.837 318.044C200.837 315.79 200.123 314.628 198.807 314.628C197.477 314.628 196.763 315.79 196.763 318.044Z" fill="white"/>
</svg>
