<svg width="194" height="27" viewBox="0 0 194 27" fill="none" xmlns="http://www.w3.org/2000/svg">
<mask id="mask0_5110_2538" style="mask-type:alpha" maskUnits="userSpaceOnUse" x="0" y="1" width="18" height="19">
<rect x="18" y="1.49219" width="18" height="18" transform="rotate(90 18 1.49219)" fill="#D9D9D9"/>
</mask>
<g mask="url(#mask0_5110_2538)">
<path d="M1.15756 13.5098L8.99675 5.66016L16.8359 13.5098L15.1655 15.1803L8.99675 9.01153L2.828 15.1803L1.15756 13.5098Z" fill="black"/>
</g>
<path d="M191.64 0C192.658 0.000179286 193.614 0.695989 193.614 1.90332C193.614 3.1108 192.658 3.80646 191.64 3.80664C190.616 3.80664 189.664 3.11095 189.664 1.90332C189.664 0.695833 190.616 0 191.64 0ZM191.023 1.0752V2.7334H191.427L191.427 2.04199H191.529L191.908 2.7334H192.299L191.875 2.01758C192.163 2.00524 192.349 1.88956 192.349 1.58105C192.349 1.18624 192.081 1.0752 191.645 1.0752H191.023ZM191.637 1.36816C191.76 1.36819 191.945 1.38085 191.945 1.54102C191.945 1.7137 191.863 1.75096 191.719 1.75098H191.427V1.36816L191.637 1.36816Z" fill="black"/>
<path d="M42.2344 0.0507812V21.0555H47.3142V16.9672L48.1588 15.584L50.7293 21.0555H56.1518L51.378 11.7038L55.6133 5.14284H50.1662L47.3264 10.6388V0.0507812H42.2344Z" fill="black"/>
<path d="M56.5781 3.99223H61.6579V0.0507812H56.5781V3.99223ZM56.5781 21.0555H61.6579V5.14284H56.5781V21.0555Z" fill="black"/>
<path d="M75.9325 11.3737H71.3545C71.3545 10.1619 71.2444 9.31728 71.024 8.8399C70.8037 8.37476 70.4242 8.12995 69.8857 8.12995C69.2981 8.12995 68.9064 8.47268 68.6983 9.15815C68.4902 9.84362 68.3923 11.1534 68.3923 13.0996C68.3923 15.0458 68.4902 16.3556 68.6983 17.0288C68.9064 17.702 69.2981 18.0448 69.8857 18.0448C70.8649 18.0448 71.3545 17.1757 71.3545 15.4253V14.3971H75.9325C75.9325 16.9431 75.4796 18.7425 74.5738 19.7829C73.619 20.8968 72.0522 21.4599 69.8857 21.4599C67.7068 21.4599 66.1278 20.9703 65.1486 19.991C63.9245 18.7547 63.3125 16.5514 63.3125 13.3689C63.3125 9.91706 63.9735 7.53016 65.2832 6.22043C66.2992 5.2167 67.9149 4.71484 70.1427 4.71484C72.2726 4.71484 73.8026 5.32687 74.7451 6.53868C75.5408 7.61585 75.9325 9.21935 75.9325 11.3737Z" fill="black"/>
<path d="M77.2031 21.0555V0.0507812H82.2829V10.6388L85.1227 5.14284H90.582L86.3468 11.7038L91.1206 21.0555H85.698L83.1275 15.584L82.2829 16.9672V21.0555H77.2031Z" fill="black"/>
<path d="M93.9779 21.0533L90.2812 5.14062H95.5324L96.9768 16.5855H97.038L98.4457 5.14062H103.697L99.9757 21.0533H93.9779Z" fill="black"/>
<path d="M108.822 13.1113C108.822 14.776 108.834 15.743 108.883 16.0001C109.055 17.371 109.507 18.0565 110.242 18.0565C110.976 18.0565 111.429 17.371 111.601 16.0001C111.637 15.7308 111.662 14.7638 111.662 13.1113C111.662 11.4466 111.637 10.4796 111.601 10.1981C111.429 8.82714 110.976 8.14167 110.242 8.14167C109.507 8.14167 109.055 8.83938 108.883 10.2348C108.834 10.4796 108.822 11.4466 108.822 13.1113ZM116.717 13.1113C116.717 15.6818 116.35 17.5914 115.615 18.8521C114.624 20.6025 112.825 21.4716 110.23 21.4716C107.525 21.4716 105.701 20.6515 104.758 18.999C104.085 17.8239 103.742 15.8532 103.742 13.0868C103.742 10.5163 104.109 8.60681 104.844 7.34604C105.835 5.59564 107.635 4.72656 110.23 4.72656C112.935 4.72656 114.759 5.54668 115.701 7.19915C116.387 8.37424 116.717 10.345 116.717 13.1113Z" fill="black"/>
<path d="M118.383 5.14284H123.463V21.0555H118.383V5.14284ZM118.383 0.0507812H123.463V3.99223H118.383V0.0507812Z" fill="black"/>
<path d="M130.24 13.1114C130.24 14.5191 130.265 15.4004 130.326 15.7554C130.498 16.9305 130.95 17.518 131.685 17.518C132.395 17.518 132.848 16.9182 133.007 15.7186C133.068 15.3882 133.093 14.5068 133.093 13.0992C133.093 11.667 133.068 10.7857 133.007 10.4552C132.835 9.25565 132.395 8.65587 131.685 8.65587C130.95 8.65587 130.498 9.25565 130.326 10.4552C130.265 10.798 130.24 11.6793 130.24 13.1114ZM133.093 0.0507812H138.172V21.0555H133.264V18.8767H133.203C132.603 20.6026 131.44 21.4717 129.726 21.4717C128.049 21.4717 126.862 20.7617 126.164 19.3296C125.491 17.9709 125.148 15.7921 125.148 12.7687C125.148 7.41957 126.715 4.7389 129.861 4.7389C131.526 4.7389 132.603 5.47333 133.068 6.94219V0.0507812H133.093Z" fill="black"/>
<path d="M145.424 0.0507812H140.344V21.0555H145.424V0.0507812Z" fill="black"/>
<path d="M154.262 0.0507812H158.045V3.75966H154.262C154.262 3.75966 154.262 0.0507812 154.262 0.0507812ZM152.169 13.1114C152.169 14.7761 152.194 15.7431 152.23 16.0002C152.402 17.3711 152.855 18.0566 153.589 18.0566C154.323 18.0566 154.776 17.3711 154.948 16.0002C154.984 15.7309 155.009 14.7639 155.009 13.1114C155.009 11.4467 154.984 10.4797 154.948 10.1982C154.776 8.82724 154.323 8.14177 153.589 8.14177C152.855 8.14177 152.402 8.83947 152.23 10.2349C152.194 10.4797 152.169 11.4467 152.169 13.1114ZM149.121 0.0507812H152.904V3.75966H149.121C149.121 3.75966 149.121 0.0507812 149.121 0.0507812ZM160.077 13.1114C160.077 15.6819 159.709 17.5915 158.975 18.8522C157.971 20.6026 156.184 21.4717 153.589 21.4717C150.884 21.4717 149.06 20.6516 148.118 18.9991C147.444 17.824 147.102 15.8533 147.102 13.0869C147.102 10.5164 147.469 8.60691 148.203 7.34613C149.195 5.59574 150.994 4.72666 153.589 4.72666C156.294 4.72666 158.118 5.54678 159.061 7.19925C159.734 8.37434 160.077 10.3451 160.077 13.1114Z" fill="black"/>
<path d="M166.279 13.1113C166.279 14.776 166.291 15.743 166.34 16.0001C166.511 17.371 166.964 18.0565 167.698 18.0565C168.433 18.0565 168.886 17.371 169.057 16.0001C169.094 15.7308 169.118 14.7638 169.118 13.1113C169.118 11.4466 169.094 10.4796 169.057 10.1981C168.886 8.82714 168.433 8.14167 167.698 8.14167C166.964 8.14167 166.511 8.83938 166.34 10.2348C166.303 10.4796 166.279 11.4466 166.279 13.1113ZM174.186 13.1113C174.186 15.6818 173.819 17.5914 173.084 18.8521C172.093 20.6025 170.293 21.4716 167.698 21.4716C164.993 21.4716 163.169 20.6515 162.227 18.999C161.554 17.8239 161.211 15.8532 161.211 13.0868C161.211 10.5163 161.578 8.60681 162.313 7.34604C163.304 5.59564 165.103 4.72656 167.698 4.72656C170.404 4.72656 172.227 5.54668 173.17 7.19915C173.843 8.37424 174.186 10.345 174.186 13.1113Z" fill="black"/>
<path d="M180.931 13.0863C180.931 14.5185 180.956 15.3998 181.017 15.7303C181.188 16.9298 181.629 17.5296 182.339 17.5296C183.073 17.5296 183.526 16.9298 183.698 15.7303C183.759 15.3998 183.783 14.5185 183.783 13.0863C183.783 11.6787 183.759 10.7973 183.698 10.4424C183.526 9.26728 183.073 8.67973 182.339 8.67973C181.629 8.67973 181.176 9.27951 181.017 10.4791C180.956 10.7973 180.931 11.6664 180.931 13.0863ZM175.852 26.2326V5.14222H180.76V7.32103H180.821C181.421 5.59512 182.584 4.73828 184.298 4.73828C185.974 4.73828 187.162 5.46047 187.86 6.88037C188.533 8.23907 188.875 10.4179 188.875 13.4413C188.875 18.7904 187.296 21.4711 184.163 21.4711C182.498 21.4711 181.421 20.7366 180.956 19.2678V26.2449H175.852V26.2326Z" fill="black"/>
</svg>
