<svg width="88" height="140" viewBox="0 0 88 140" fill="none" xmlns="http://www.w3.org/2000/svg">
<path fill-rule="evenodd" clip-rule="evenodd" d="M78.5068 69.6296C84.0576 62.3392 87.3542 53.2326 87.3542 43.3543C87.3542 19.4104 67.9858 0 44.0937 0C20.2016 0 0.833252 19.4104 0.833252 43.3543C0.833252 53.2326 4.12987 62.3393 9.68071 69.6297C4.12992 76.9201 0.833335 86.0267 0.833335 95.905C0.833335 119.849 20.2017 139.259 44.0938 139.259C67.9859 139.259 87.3542 119.849 87.3542 95.905C87.3542 86.0266 84.0576 76.92 78.5068 69.6296ZM78.5068 69.6296C70.603 59.2489 58.1289 52.5507 44.0938 52.5507C30.0586 52.5507 17.5845 59.249 9.68071 69.6297C17.5845 80.0104 30.0586 86.7086 44.0937 86.7086C58.1289 86.7086 70.603 80.0103 78.5068 69.6296Z" fill="white"/>
<circle cx="44.0938" cy="69.5358" r="14.3576" fill="white"/>
</svg>
